<svg width="21" height="27" viewBox="0 0 21 27" fill="none" xmlns="http://www.w3.org/2000/svg">
<path fill-rule="evenodd" clip-rule="evenodd" d="M0 3.375C0 2.47989 0.355579 1.62145 0.988514 0.988515C1.62145 0.355579 2.47989 0 3.375 0L12.3069 0C12.7545 9.55756e-05 13.1836 0.177948 13.5 0.494438L19.7556 6.75C20.0721 7.06639 20.2499 7.49555 20.25 7.94306V23.625C20.25 24.5201 19.8944 25.3785 19.2615 26.0115C18.6285 26.6444 17.7701 27 16.875 27H3.375C2.47989 27 1.62145 26.6444 0.988514 26.0115C0.355579 25.3785 0 24.5201 0 23.625V3.375ZM11.8125 6.75L12.6562 2.53125L17.7188 7.59375L13.5 8.4375C13.0524 8.4375 12.6232 8.25971 12.3068 7.94324C11.9903 7.62677 11.8125 7.19755 11.8125 6.75ZM4.21875 13.5C3.99497 13.5 3.78036 13.5889 3.62213 13.7471C3.4639 13.9054 3.375 14.12 3.375 14.3438C3.375 14.5675 3.4639 14.7821 3.62213 14.9404C3.78036 15.0986 3.99497 15.1875 4.21875 15.1875H16.0312C16.255 15.1875 16.4696 15.0986 16.6279 14.9404C16.7861 14.7821 16.875 14.5675 16.875 14.3438C16.875 14.12 16.7861 13.9054 16.6279 13.7471C16.4696 13.5889 16.255 13.5 16.0312 13.5H4.21875ZM3.375 17.7188C3.375 17.495 3.4639 17.2804 3.62213 17.1221C3.78036 16.9639 3.99497 16.875 4.21875 16.875H16.0312C16.255 16.875 16.4696 16.9639 16.6279 17.1221C16.7861 17.2804 16.875 17.495 16.875 17.7188C16.875 17.9425 16.7861 18.1571 16.6279 18.3154C16.4696 18.4736 16.255 18.5625 16.0312 18.5625H4.21875C3.99497 18.5625 3.78036 18.4736 3.62213 18.3154C3.4639 18.1571 3.375 17.9425 3.375 17.7188ZM3.375 21.0938C3.375 20.87 3.4639 20.6554 3.62213 20.4971C3.78036 20.3389 3.99497 20.25 4.21875 20.25H10.9688C11.1925 20.25 11.4071 20.3389 11.5654 20.4971C11.7236 20.6554 11.8125 20.87 11.8125 21.0938C11.8125 21.3175 11.7236 21.5321 11.5654 21.6904C11.4071 21.8486 11.1925 21.9375 10.9688 21.9375H4.21875C3.99497 21.9375 3.78036 21.8486 3.62213 21.6904C3.4639 21.5321 3.375 21.3175 3.375 21.0938Z" fill="#BFC0CC"/>
</svg>
