<svg width="159" height="33" viewBox="0 0 159 33" fill="none" xmlns="http://www.w3.org/2000/svg">
<path d="M38.6906 32.7169H28.2712C26.743 32.7169 25.2149 31.9528 24.3813 30.4941L6.80725 0H17.2266C18.7548 0 20.283 0.764089 21.1166 2.22281L38.6906 32.7169Z" fill="white"/>
<path d="M7.91874 32.7164C12.2949 32.7164 15.8375 29.1738 15.8375 24.7976C15.8375 20.4215 12.2949 16.8789 7.91874 16.8789C3.54259 16.8789 0 20.4215 0 24.7976C0 29.1738 3.54259 32.7164 7.91874 32.7164Z" fill="#FF5722"/>
<path fill-rule="evenodd" clip-rule="evenodd" d="M156.499 21.3943C157.889 21.3943 159 20.2829 159 18.8936V17.4349H156.708V18.8936C156.708 18.9631 156.638 19.102 156.499 19.102H151.081C151.012 19.102 150.873 19.0326 150.873 18.8936V12.7809C150.873 12.7115 150.942 12.5725 151.081 12.5725H156.499C156.569 12.5725 156.708 12.642 156.708 12.7809V14.2396H159V12.7809C159 11.3917 157.889 10.2803 156.499 10.2803H151.081C149.692 10.2803 148.581 11.3917 148.581 12.7809V18.8936C148.581 20.2829 149.692 21.3943 151.081 21.3943H156.499ZM142.259 21.3943C143.649 21.3943 144.76 20.2829 144.76 18.8936V17.4349H142.398V18.8936C142.398 18.9631 142.329 19.102 142.19 19.102H136.841C136.772 19.102 136.633 19.0326 136.633 18.8936V12.7809C136.633 12.7115 136.702 12.5725 136.841 12.5725H142.259C142.329 12.5725 142.468 12.642 142.468 12.7809V14.2396H144.76V12.7809C144.76 11.3917 143.649 10.2803 142.259 10.2803H136.841C135.452 10.2803 134.341 11.3917 134.341 12.7809V18.8936C134.341 20.2829 135.452 21.3943 136.841 21.3943H142.259ZM108.153 12.642H115.1V10.3497C112.043 10.3497 108.917 10.3497 105.861 10.3497V21.3943H112.946C114.822 21.3943 116.28 19.9356 116.28 18.0601C116.28 16.1846 114.822 14.7259 112.946 14.7259H108.153V12.642ZM108.153 19.102H112.946C113.502 19.102 113.988 18.6158 113.988 18.0601C113.988 17.5044 113.502 17.0182 112.946 17.0182H108.153V19.102ZM67.3093 12.642V14.7259H72.1022C72.6579 14.7259 73.1441 14.2396 73.1441 13.6839C73.1441 13.1282 72.6579 12.642 72.1022 12.642H67.3093ZM65.017 10.3497H72.1022C73.9777 10.3497 75.4364 11.8085 75.4364 13.6839C75.4364 14.5175 75.1585 15.2816 74.6028 15.8373C75.0891 16.393 75.4364 17.1571 75.4364 17.9906C75.4364 19.8661 73.9777 21.3248 72.1022 21.3248H65.017C65.017 17.7128 65.017 14.0313 65.017 10.3497ZM67.3093 19.102H72.1022C72.6579 19.102 73.1441 18.6158 73.1441 18.0601C73.1441 17.5044 72.6579 17.0182 72.1022 17.0182H67.3093V19.102ZM53.9724 17.0876H58.1402L56.612 12.642H55.5701L53.9724 17.0876ZM58.2791 10.3497L62.0996 21.3943H59.6684L58.9737 19.3799H53.2083L52.5137 21.3943H50.0825C51.3328 17.7128 52.5832 14.0313 53.903 10.3497C55.3617 10.3497 56.8204 10.3497 58.2791 10.3497ZM99.4705 12.642C99.5399 12.642 99.6789 12.7115 99.6789 12.8504V18.9631C99.6789 19.0326 99.6094 19.1715 99.4705 19.1715H94.0524C93.9829 19.1715 93.844 19.102 93.844 18.9631V12.8504C93.844 12.7809 93.9135 12.642 94.0524 12.642H99.4705ZM99.4705 21.3943C100.86 21.3943 101.971 20.2829 101.971 18.8936V12.7809C101.971 11.3917 100.86 10.2803 99.4705 10.2803H94.0524C92.6631 10.2803 91.5517 11.3917 91.5517 12.7809V18.8936C91.5517 20.2829 92.6631 21.3943 94.0524 21.3943H99.4705ZM88.7038 10.3497H78.3538V12.642H82.3827V21.3943H84.6749V12.642H88.7038V10.3497ZM128.02 12.642C128.089 12.642 128.228 12.7115 128.228 12.8504V18.9631C128.228 19.0326 128.159 19.1715 128.02 19.1715H122.602C122.532 19.1715 122.393 19.102 122.393 18.9631V12.8504C122.393 12.7809 122.463 12.642 122.602 12.642H128.02ZM128.02 21.3943C129.409 21.3943 130.52 20.2829 130.52 18.8936V12.7809C130.52 11.3917 129.409 10.2803 128.02 10.2803H122.602C121.212 10.2803 120.101 11.3917 120.101 12.7809V18.8936C120.101 20.2829 121.212 21.3943 122.602 21.3943H128.02Z" fill="white"/>
</svg>
