<svg width="9" height="6" viewBox="0 0 9 6" fill="none" xmlns="http://www.w3.org/2000/svg">
<path fill-rule="evenodd" clip-rule="evenodd" d="M0.630175 0.77261C0.803741 0.585115 1.08515 0.585115 1.25871 0.77261L4.5 4.27402L7.74129 0.77261C7.91485 0.585115 8.19626 0.585115 8.36983 0.77261C8.54339 0.960106 8.54339 1.2641 8.36983 1.45159L4.5 5.63199L0.630175 1.45159C0.456608 1.2641 0.456608 0.960106 0.630175 0.77261Z" fill="#ffffff"/>
<path fill-rule="evenodd" clip-rule="evenodd" d="M0.446715 0.60278C0.719232 0.308391 1.16966 0.308391 1.44217 0.60278L4.5 3.90601L7.55783 0.60278C7.83034 0.308391 8.28077 0.308392 8.55329 0.60278C8.81557 0.886116 8.81557 1.33809 8.55329 1.62142L4.5 6L0.446715 1.62142C0.184428 1.33809 0.184428 0.886116 0.446715 0.60278ZM1.07525 0.942441C1.00064 0.861838 0.88825 0.861838 0.813635 0.942441C0.728788 1.0341 0.728788 1.19011 0.813635 1.28176L4.5 5.26397L8.18637 1.28176C8.27121 1.19011 8.27121 1.0341 8.18637 0.942441C8.11175 0.861837 7.99936 0.861838 7.92475 0.942441L4.5 4.64204L1.07525 0.942441Z" fill="#ffffff"/>
</svg>
