<svg width="20" height="20" viewBox="0 0 32 30" fill="none" xmlns="http://www.w3.org/2000/svg">
<path d="M1.06673 0.422251C0.477696 0.422251 0 0.899928 0 1.48898C0 2.07804 0.477429 2.55571 1.06673 2.55571H4.61111C6.37651 6.92822 8.11531 11.3087 9.86655 15.6891L8.25543 19.5668C8.12051 19.8902 8.15846 20.2798 8.35316 20.571C8.54809 20.8621 8.89383 21.0459 9.24427 21.0444H27.0221C27.5856 21.0524 28.1039 20.5414 28.1039 19.9777C28.1039 19.4142 27.5855 18.903 27.0221 18.911H10.8443L11.7664 16.7108L28.8889 15.3443C29.3371 15.3091 29.7428 14.9599 29.8445 14.5221L31.978 5.27768C32.1176 4.65491 31.5717 3.97559 30.9336 3.97755H7.47773L6.32223 1.08866C6.164 0.69754 5.75527 0.421997 5.33341 0.421997L1.06673 0.422251ZM8.3334 6.11127H29.5887L27.9332 13.2891L11.7224 14.578L8.3334 6.11127ZM12.8002 22.4668C10.8491 22.4668 9.24464 24.0713 9.24464 26.0224C9.24464 27.9735 10.8491 29.5779 12.8002 29.5779C14.7513 29.5779 16.3558 27.9735 16.3558 26.0224C16.3558 24.0713 14.7513 22.4668 12.8002 22.4668ZM23.4669 22.4668C21.5158 22.4668 19.9113 24.0713 19.9113 26.0224C19.9113 27.9735 21.5158 29.5779 23.4669 29.5779C25.418 29.5779 27.0224 27.9735 27.0224 26.0224C27.0224 24.0713 25.418 22.4668 23.4669 22.4668ZM12.8002 24.6003C13.5983 24.6003 14.2223 25.2243 14.2223 26.0224C14.2223 26.8205 13.5983 27.4445 12.8002 27.4445C12.0021 27.4445 11.3781 26.8202 11.3781 26.0224C11.3781 25.2243 12.0024 24.6003 12.8002 24.6003ZM23.4669 24.6003C24.265 24.6003 24.889 25.2246 24.889 26.0224C24.889 26.8205 24.2647 27.4445 23.4669 27.4445C22.6688 27.4445 22.0448 26.8205 22.0448 26.0224C22.0448 25.2243 22.6688 24.6003 23.4669 24.6003Z" fill="#ffffff"/>
</svg>
