<svg width="22" height="22" viewBox="0 0 22 22" fill="none" xmlns="http://www.w3.org/2000/svg">
<path d="M1.4657 0.820789C2.34383 -0.0595031 4.99853 -0.206598 5.01848 0.259386C5.03842 0.724624 7.40918 5.88795 7.42972 6.35405C7.45028 6.81987 5.867 8.40666 5.40393 8.87115C4.94485 9.33086 8.50175 13.3606 8.56906 13.4368C8.64468 13.5049 12.6646 17.0699 13.1237 16.6094C13.5869 16.145 15.1708 14.5582 15.6339 14.5789C16.0983 14.5988 21.2502 16.9751 21.7148 16.9964C22.1792 17.0163 22.0329 19.6764 21.1547 20.5573C20.4036 21.3098 16.5149 24.042 9.75312 19.163C9.01164 18.7355 7.83732 17.7549 6.05619 15.9704C6.05558 15.9698 6.0542 15.9684 6.05282 15.9676C6.05144 15.9656 6.05006 15.9649 6.04868 15.9635C6.0473 15.9621 6.04592 15.9607 6.04454 15.9593C6.04392 15.958 6.04254 15.9566 6.04178 15.956C4.26203 14.1707 3.28341 12.9928 2.8567 12.25C-2.01047 5.47167 0.715416 1.57322 1.46577 0.82086L1.4657 0.820789Z" fill="#2E3F7F"/>
</svg>
