<svg width="24" height="24" viewBox="0 0 24 24" fill="none" xmlns="http://www.w3.org/2000/svg">
<path d="M0.722739 0.000696274C0.494903 0.00923393 0.283299 0.120726 0.147533 0.304031C0.0119346 0.48717 -0.0330934 0.722206 0.0254943 0.942492L2.52435 10.3085L13.5588 11.9975L2.52607 13.6849L0.0257084 23.0535C-0.024681 23.2409 -0.000406729 23.4406 0.0933387 23.6103C0.187252 23.7802 0.343104 23.9073 0.528578 23.9645C0.713894 24.0218 0.914277 24.0051 1.08754 23.9177L23.5866 12.6681C23.7532 12.5844 23.8824 12.442 23.9496 12.268C24.0167 12.0943 24.0167 11.9017 23.9496 11.728C23.8825 11.5542 23.7532 11.4116 23.5866 11.3279L1.08754 0.0783117C0.974545 0.022064 0.848991 -0.00455352 0.722936 0.000636276L0.722739 0.000696274Z" fill="#2E3F7F"/>
</svg>
