<svg width="200" height="64" viewBox="0 0 200 64" fill="none" xmlns="http://www.w3.org/2000/svg">
<path d="M78.4218 27.0254V4.32581H88.3388C90.7214 4.32581 92.5675 4.85171 93.8769 5.90351C95.1862 6.93385 95.8409 8.37203 95.8409 10.2181C95.8409 11.4416 95.5297 12.4934 94.9072 13.3735C94.2847 14.2535 93.4261 14.8975 92.3313 15.3053C93.6193 15.6703 94.6174 16.3142 95.3258 17.2372C96.0556 18.1388 96.4205 19.2872 96.4205 20.6824C96.4205 22.7002 95.7336 24.2671 94.3598 25.3833C93.0075 26.4781 91.1186 27.0254 88.693 27.0254H78.4218ZM82.3821 13.953H87.6304C90.4424 13.953 91.8484 12.869 91.8484 10.701C91.8484 8.53302 90.4424 7.44902 87.6304 7.44902H82.3821V13.953ZM82.3821 23.9022H88.1778C91.0112 23.9022 92.4279 22.7646 92.4279 20.4892C92.4279 18.2139 91.0112 17.0762 88.1778 17.0762H82.3821V23.9022Z" fill="#231F20"/>
<path d="M105.612 27.3474C104.475 27.3474 103.455 27.1328 102.553 26.7035C101.673 26.2527 100.976 25.6517 100.461 24.9004C99.9669 24.1491 99.72 23.3012 99.72 22.3567C99.72 21.1976 100.021 20.2853 100.622 19.6199C101.223 18.933 102.199 18.4393 103.552 18.1388C104.904 17.8383 106.718 17.688 108.993 17.688H110.12V17.0118C110.12 15.9386 109.884 15.1658 109.412 14.6936C108.939 14.2213 108.145 13.9852 107.029 13.9852C106.149 13.9852 105.247 14.1248 104.324 14.4038C103.401 14.6614 102.468 15.0692 101.523 15.6273L100.364 12.8905C100.922 12.5041 101.577 12.1714 102.328 11.8924C103.101 11.5918 103.906 11.3665 104.743 11.2162C105.602 11.0445 106.407 10.9586 107.158 10.9586C109.455 10.9586 111.161 11.4952 112.277 12.5685C113.393 13.6203 113.952 15.2624 113.952 17.4948V27.0254H110.184V24.514C109.82 25.3941 109.24 26.0917 108.446 26.6069C107.652 27.1006 106.707 27.3474 105.612 27.3474ZM106.449 24.5784C107.501 24.5784 108.371 24.2135 109.057 23.4837C109.766 22.7538 110.12 21.8308 110.12 20.7146V20.0063H109.025C107.008 20.0063 105.602 20.1673 104.807 20.4892C104.035 20.7898 103.648 21.3479 103.648 22.1635C103.648 22.8719 103.895 23.4515 104.389 23.9022C104.882 24.353 105.569 24.5784 106.449 24.5784Z" fill="#231F20"/>
<path d="M118.445 27.0254V11.2806H122.244V23.87H127.653V11.2806H131.453V23.87H136.862V11.2806H140.661V27.0254H118.445Z" fill="#231F20"/>
<path d="M77.81 59.6743L76.5543 56.4867C77.4558 56.1647 78.1749 55.7032 78.7116 55.1022C79.2482 54.4797 79.6238 53.6318 79.8385 52.5585C80.0746 51.4638 80.1927 50.0578 80.1927 48.3406V43.4787H92.8787V59.2235H88.854V46.6341H83.8955V48.4694C83.8955 51.8609 83.4125 54.4475 82.4465 56.2291C81.5021 57.9893 79.9566 59.1377 77.81 59.6743Z" fill="#231F20"/>
<path d="M104.653 59.5455C103.022 59.5455 101.605 59.2128 100.403 58.5474C99.2007 57.8819 98.2669 56.9375 97.6015 55.7139C96.9361 54.4689 96.6034 53.0093 96.6034 51.335C96.6034 49.6607 96.9361 48.2118 97.6015 46.9883C98.2669 45.7647 99.2007 44.8203 100.403 44.1548C101.605 43.4894 103.022 43.1567 104.653 43.1567C106.284 43.1567 107.701 43.4894 108.903 44.1548C110.105 44.8203 111.039 45.7647 111.704 46.9883C112.37 48.2118 112.702 49.6607 112.702 51.335C112.702 53.0093 112.37 54.4689 111.704 55.7139C111.039 56.9375 110.105 57.8819 108.903 58.5474C107.701 59.2128 106.284 59.5455 104.653 59.5455ZM104.653 56.4867C105.855 56.4867 106.821 56.0574 107.551 55.1988C108.281 54.3187 108.645 53.0308 108.645 51.335C108.645 49.6178 108.281 48.3406 107.551 47.5034C106.821 46.6448 105.855 46.2155 104.653 46.2155C103.451 46.2155 102.485 46.6448 101.755 47.5034C101.025 48.3406 100.66 49.6178 100.66 51.335C100.66 53.0308 101.025 54.3187 101.755 55.1988C102.485 56.0574 103.451 56.4867 104.653 56.4867Z" fill="#231F20"/>
<path d="M116.432 59.2235V43.4787H128.346V46.6341H120.457V59.2235H116.432Z" fill="#231F20"/>
<path d="M138.36 59.5455C136.729 59.5455 135.312 59.2128 134.11 58.5474C132.908 57.8819 131.974 56.9375 131.309 55.7139C130.643 54.4689 130.311 53.0093 130.311 51.335C130.311 49.6607 130.643 48.2118 131.309 46.9883C131.974 45.7647 132.908 44.8203 134.11 44.1548C135.312 43.4894 136.729 43.1567 138.36 43.1567C139.992 43.1567 141.408 43.4894 142.61 44.1548C143.812 44.8203 144.746 45.7647 145.412 46.9883C146.077 48.2118 146.41 49.6607 146.41 51.335C146.41 53.0093 146.077 54.4689 145.412 55.7139C144.746 56.9375 143.812 57.8819 142.61 58.5474C141.408 59.2128 139.992 59.5455 138.36 59.5455ZM138.36 56.4867C139.562 56.4867 140.528 56.0574 141.258 55.1988C141.988 54.3187 142.353 53.0308 142.353 51.335C142.353 49.6178 141.988 48.3406 141.258 47.5034C140.528 46.6448 139.562 46.2155 138.36 46.2155C137.158 46.2155 136.192 46.6448 135.462 47.5034C134.733 48.3406 134.368 49.6178 134.368 51.335C134.368 53.0308 134.733 54.3187 135.462 55.1988C136.192 56.0574 137.158 56.4867 138.36 56.4867Z" fill="#231F20"/>
<path d="M153.456 59.2235V46.6341H148.079V43.4787H162.89V46.6341H157.481V59.2235H153.456Z" fill="#231F20"/>
<path d="M165.358 59.2235V43.4787H168.997V53.9752L176.885 43.4787H180.234V59.2235H176.595V48.727L168.707 59.2235H165.358Z" fill="#231F20"/>
<path d="M184.79 59.2235V43.4787H199.698V59.2235H195.673V46.6341H188.815V59.2235H184.79Z" fill="#231F20"/>
<path d="M31.6499 0.652039C48.9568 0.652039 62.9978 14.693 62.9978 32C62.9978 49.3069 48.9568 63.3479 31.6499 63.3479C14.3429 63.3479 0.30191 49.3069 0.30191 32C0.30191 14.693 14.3429 0.652039 31.6499 0.652039ZM31.6499 3.77013C16.058 3.77013 3.42028 16.4075 3.42028 31.9997C3.42028 47.592 16.0576 60.2293 31.6499 60.2293C47.2421 60.2293 59.8794 47.592 59.8794 31.9997C59.8794 16.4075 47.2421 3.77013 31.6499 3.77013Z" fill="#2E3F7F"/>
<path d="M33.1311 16.26L36.5538 26.8467L47.6783 26.8234C49.1906 26.8234 49.791 28.7647 48.5903 29.6375L39.5785 36.1392L43.0397 46.7417C43.5231 48.2387 41.7302 49.4079 40.5447 48.4025L31.6497 41.916L22.6613 48.4726C21.2969 49.4705 19.8157 48.1219 20.3849 46.3833L23.7292 36.1631L14.7174 29.6381C13.4465 28.718 14.1948 26.7223 15.7387 26.8316L26.7544 26.8473L30.1771 16.2606C30.6372 14.8185 32.6797 14.8419 33.1316 16.2606L33.1311 16.26ZM33.9419 28.8816L31.6498 21.7872L29.3968 28.7881C29.1705 29.482 28.6403 29.9572 27.8845 29.9572L20.4394 29.9415L26.4734 34.307C27.0036 34.6888 27.2532 35.3908 27.0428 36.0455L24.7273 43.1317L30.722 38.7503C31.2522 38.3528 32.0005 38.3294 32.5698 38.7427L38.5805 43.1316L36.2807 36.0997C36.0544 35.4602 36.2573 34.7201 36.8343 34.3068L42.8683 29.9412L35.4932 29.957C34.8069 29.988 34.1604 29.5595 33.9417 28.8814L33.9419 28.8816Z" fill="#2E3F7F"/>
</svg>
