<svg width="184" height="100" viewBox="0 0 184 100" fill="none" xmlns="http://www.w3.org/2000/svg">
<path d="M92 0.367065C109.307 0.367065 123.348 14.4081 123.348 31.715C123.348 49.0219 109.307 63.0629 92 63.0629C74.6931 63.0629 60.6521 49.0219 60.6521 31.715C60.6521 14.4081 74.6931 0.367065 92 0.367065ZM92 3.48515C76.4082 3.48515 63.7705 16.1225 63.7705 31.7147C63.7705 47.307 76.4078 59.9443 92 59.9443C107.592 59.9443 120.23 47.307 120.23 31.7147C120.23 16.1225 107.592 3.48515 92 3.48515Z" fill="#2E3F7F"/>
<path d="M93.4813 15.9751L96.904 26.5618L108.028 26.5384C109.541 26.5384 110.141 28.4797 108.94 29.3526L99.9286 35.8542L103.39 46.4567C103.873 47.9538 102.08 49.1229 100.895 48.1175L91.9999 41.631L83.0115 48.1876C81.6471 49.1855 80.1658 47.8369 80.7351 46.0983L84.0794 35.8782L75.0676 29.3531C73.7967 28.433 74.545 26.4373 76.0888 26.5466L87.1046 26.5624L90.5273 15.9757C90.9874 14.5336 93.0299 14.5569 93.4818 15.9757L93.4813 15.9751ZM94.2921 28.5966L92 21.5022L89.7469 28.5031C89.5207 29.197 88.9905 29.6723 88.2347 29.6723L80.7896 29.6565L86.8236 34.0221C87.3538 34.4038 87.6034 35.1059 87.393 35.7606L85.0774 42.8468L91.0722 38.4653C91.6024 38.0678 92.3507 38.0444 92.92 38.4577L98.9307 42.8467L96.6309 35.8148C96.4046 35.1752 96.6075 34.4351 97.1844 34.0218L103.218 29.6563L95.8434 29.672C95.1571 29.703 94.5106 29.2745 94.2919 28.5964L94.2921 28.5966Z" fill="#2E3F7F"/>
<path d="M0.242676 99.213V78.063H9.48268C11.7027 78.063 13.4227 78.553 14.6427 79.533C15.8627 80.493 16.4727 81.833 16.4727 83.553C16.4727 84.693 16.1827 85.673 15.6027 86.493C15.0227 87.313 14.2227 87.913 13.2027 88.293C14.4027 88.633 15.3327 89.233 15.9927 90.093C16.6727 90.933 17.0127 92.003 17.0127 93.303C17.0127 95.183 16.3727 96.643 15.0927 97.683C13.8327 98.703 12.0727 99.213 9.81268 99.213H0.242676ZM3.93268 87.033H8.82268C11.4427 87.033 12.7527 86.023 12.7527 84.003C12.7527 81.983 11.4427 80.973 8.82268 80.973H3.93268V87.033ZM3.93268 96.303H9.33268C11.9727 96.303 13.2927 95.243 13.2927 93.123C13.2927 91.003 11.9727 89.943 9.33268 89.943H3.93268V96.303Z" fill="#231F20"/>
<path d="M25.577 99.513C24.517 99.513 23.567 99.313 22.727 98.913C21.907 98.493 21.257 97.933 20.777 97.233C20.317 96.533 20.087 95.743 20.087 94.863C20.087 93.783 20.367 92.933 20.927 92.313C21.487 91.673 22.397 91.213 23.657 90.933C24.917 90.653 26.607 90.513 28.727 90.513H29.777V89.883C29.777 88.883 29.557 88.163 29.117 87.723C28.677 87.283 27.937 87.063 26.897 87.063C26.077 87.063 25.237 87.193 24.377 87.453C23.517 87.693 22.647 88.073 21.767 88.593L20.687 86.043C21.207 85.683 21.817 85.373 22.517 85.113C23.237 84.833 23.987 84.623 24.767 84.483C25.567 84.323 26.317 84.243 27.017 84.243C29.157 84.243 30.747 84.743 31.787 85.743C32.827 86.723 33.347 88.253 33.347 90.333V99.213H29.837V96.873C29.497 97.693 28.957 98.343 28.217 98.823C27.477 99.283 26.597 99.513 25.577 99.513ZM26.357 96.933C27.337 96.933 28.147 96.593 28.787 95.913C29.447 95.233 29.777 94.373 29.777 93.333V92.673H28.757C26.877 92.673 25.567 92.823 24.827 93.123C24.107 93.403 23.747 93.923 23.747 94.683C23.747 95.343 23.977 95.883 24.437 96.303C24.897 96.723 25.537 96.933 26.357 96.933Z" fill="#231F20"/>
<path d="M37.5334 99.213V84.543H41.0734V96.273H46.1134V84.543H49.6534V96.273H54.6934V84.543H58.2334V99.213H37.5334Z" fill="#231F20"/>
<path d="M70.1903 99.633L69.0203 96.663C69.8603 96.363 70.5303 95.933 71.0303 95.373C71.5303 94.793 71.8803 94.003 72.0803 93.003C72.3003 91.983 72.4103 90.673 72.4103 89.073V84.543H84.2303V99.213H80.4803V87.483H75.8603V89.193C75.8603 92.353 75.4103 94.763 74.5103 96.423C73.6303 98.063 72.1903 99.133 70.1903 99.633Z" fill="#231F20"/>
<path d="M95.2006 99.513C93.6806 99.513 92.3606 99.203 91.2406 98.583C90.1206 97.963 89.2506 97.083 88.6306 95.943C88.0106 94.783 87.7006 93.423 87.7006 91.863C87.7006 90.303 88.0106 88.953 88.6306 87.813C89.2506 86.673 90.1206 85.793 91.2406 85.173C92.3606 84.553 93.6806 84.243 95.2006 84.243C96.7206 84.243 98.0406 84.553 99.1606 85.173C100.281 85.793 101.151 86.673 101.771 87.813C102.391 88.953 102.701 90.303 102.701 91.863C102.701 93.423 102.391 94.783 101.771 95.943C101.151 97.083 100.281 97.963 99.1606 98.583C98.0406 99.203 96.7206 99.513 95.2006 99.513ZM95.2006 96.663C96.3206 96.663 97.2206 96.263 97.9006 95.463C98.5806 94.643 98.9206 93.443 98.9206 91.863C98.9206 90.263 98.5806 89.073 97.9006 88.293C97.2206 87.493 96.3206 87.093 95.2006 87.093C94.0806 87.093 93.1806 87.493 92.5006 88.293C91.8206 89.073 91.4806 90.263 91.4806 91.863C91.4806 93.443 91.8206 94.643 92.5006 95.463C93.1806 96.263 94.0806 96.663 95.2006 96.663Z" fill="#231F20"/>
<path d="M106.176 99.213V84.543H117.276V87.483H109.926V99.213H106.176Z" fill="#231F20"/>
<path d="M126.607 99.513C125.087 99.513 123.767 99.203 122.647 98.583C121.527 97.963 120.657 97.083 120.037 95.943C119.417 94.783 119.107 93.423 119.107 91.863C119.107 90.303 119.417 88.953 120.037 87.813C120.657 86.673 121.527 85.793 122.647 85.173C123.767 84.553 125.087 84.243 126.607 84.243C128.127 84.243 129.447 84.553 130.567 85.173C131.687 85.793 132.557 86.673 133.177 87.813C133.797 88.953 134.107 90.303 134.107 91.863C134.107 93.423 133.797 94.783 133.177 95.943C132.557 97.083 131.687 97.963 130.567 98.583C129.447 99.203 128.127 99.513 126.607 99.513ZM126.607 96.663C127.727 96.663 128.627 96.263 129.307 95.463C129.987 94.643 130.327 93.443 130.327 91.863C130.327 90.263 129.987 89.073 129.307 88.293C128.627 87.493 127.727 87.093 126.607 87.093C125.487 87.093 124.587 87.493 123.907 88.293C123.227 89.073 122.887 90.263 122.887 91.863C122.887 93.443 123.227 94.643 123.907 95.463C124.587 96.263 125.487 96.663 126.607 96.663Z" fill="#231F20"/>
<path d="M140.672 99.213V87.483H135.662V84.543H149.462V87.483H144.422V99.213H140.672Z" fill="#231F20"/>
<path d="M151.762 99.213V84.543H155.152V94.323L162.502 84.543H165.622V99.213H162.232V89.433L154.882 99.213H151.762Z" fill="#231F20"/>
<path d="M169.867 99.213V84.543H183.757V99.213H180.007V87.483H173.617V99.213H169.867Z" fill="#231F20"/>
</svg>
