<svg width="175" height="56" viewBox="0 0 175 56" fill="none" xmlns="http://www.w3.org/2000/svg">
<path d="M68.6189 23.6472V3.78504H77.2963C79.3811 3.78504 80.9964 4.24521 82.1421 5.16553C83.2878 6.06708 83.8607 7.32549 83.8607 8.94076C83.8607 10.0113 83.5883 10.9317 83.0437 11.7017C82.499 12.4718 81.7477 13.0353 80.7898 13.3921C81.9167 13.7114 82.7901 14.2749 83.4099 15.0825C84.0485 15.8714 84.3678 16.8762 84.3678 18.0971C84.3678 19.8626 83.7668 21.2337 82.5647 22.2104C81.3814 23.1683 79.7286 23.6472 77.6062 23.6472H68.6189ZM72.0842 12.2089H76.6765C79.137 12.2089 80.3672 11.2604 80.3672 9.36336C80.3672 7.46636 79.137 6.51785 76.6765 6.51785H72.0842V12.2089ZM72.0842 20.9144H77.1554C79.6347 20.9144 80.8743 19.919 80.8743 17.928C80.8743 15.9371 79.6347 14.9417 77.1554 14.9417H72.0842V20.9144Z" fill="white"/>
<path d="M92.4106 23.929C91.4152 23.929 90.523 23.7411 89.7342 23.3655C88.9641 22.9711 88.3537 22.4452 87.9029 21.7878C87.4709 21.1304 87.2549 20.3885 87.2549 19.5621C87.2549 18.5479 87.5179 17.7496 88.0438 17.1674C88.5697 16.5663 89.4242 16.1343 90.6075 15.8714C91.7908 15.6084 93.3779 15.477 95.3688 15.477H96.3549V14.8853C96.3549 13.9462 96.1483 13.2701 95.7351 12.8568C95.3219 12.4436 94.6269 12.237 93.6502 12.237C92.8802 12.237 92.0913 12.3591 91.2837 12.6033C90.476 12.8287 89.659 13.1855 88.8326 13.6739L87.8184 11.2791C88.3067 10.9411 88.8796 10.6499 89.5369 10.4058C90.2131 10.1428 90.9174 9.94561 91.6499 9.81413C92.4012 9.66387 93.1056 9.58875 93.7629 9.58875C95.7726 9.58875 97.2658 10.0583 98.2425 10.9974C99.2192 11.9177 99.7075 13.3546 99.7075 15.3079V23.6472H96.4112V21.4497C96.0919 22.2198 95.5848 22.8302 94.8899 23.281C94.1949 23.713 93.3685 23.929 92.4106 23.929ZM93.1431 21.5061C94.0635 21.5061 94.8241 21.1868 95.4252 20.5482C96.045 19.9096 96.3549 19.1019 96.3549 18.1253V17.5054H95.397C93.6315 17.5054 92.4012 17.6463 91.7063 17.928C91.0301 18.191 90.692 18.6793 90.692 19.3931C90.692 20.0129 90.908 20.52 91.34 20.9144C91.772 21.3088 92.3731 21.5061 93.1431 21.5061Z" fill="white"/>
<path d="M103.639 23.6472V9.87048H106.963V20.8862H111.697V9.87048H115.021V20.8862H119.754V9.87048H123.079V23.6472H103.639Z" fill="white"/>
<path d="M68.0836 52.215L66.9849 49.4258C67.7737 49.1441 68.4029 48.7403 68.8725 48.2144C69.342 47.6697 69.6707 46.9278 69.8585 45.9887C70.0651 45.0308 70.1684 43.8005 70.1684 42.298V38.0438H81.2687V51.8205H77.7471V40.8048H73.4084V42.4107C73.4084 45.3782 72.9858 47.6415 72.1406 49.2004C71.3142 50.7406 69.9618 51.7454 68.0836 52.215Z" fill="white"/>
<path d="M91.5711 52.1023C90.1437 52.1023 88.9041 51.8112 87.8523 51.2289C86.8005 50.6467 85.9834 49.8202 85.4012 48.7496C84.8189 47.6603 84.5278 46.3831 84.5278 44.9181C84.5278 43.4531 84.8189 42.1853 85.4012 41.1147C85.9834 40.0441 86.8005 39.2177 87.8523 38.6354C88.9041 38.0532 90.1437 37.7621 91.5711 37.7621C92.9986 37.7621 94.2382 38.0532 95.29 38.6354C96.3418 39.2177 97.1588 40.0441 97.7411 41.1147C98.3233 42.1853 98.6145 43.4531 98.6145 44.9181C98.6145 46.3831 98.3233 47.6603 97.7411 48.7496C97.1588 49.8202 96.3418 50.6467 95.29 51.2289C94.2382 51.8112 92.9986 52.1023 91.5711 52.1023ZM91.5711 49.4258C92.6229 49.4258 93.4681 49.0502 94.1067 48.2989C94.7453 47.5288 95.0646 46.4019 95.0646 44.9181C95.0646 43.4155 94.7453 42.298 94.1067 41.5655C93.4681 40.8142 92.6229 40.4385 91.5711 40.4385C90.5193 40.4385 89.6741 40.8142 89.0355 41.5655C88.3969 42.298 88.0777 43.4155 88.0777 44.9181C88.0777 46.4019 88.3969 47.5288 89.0355 48.2989C89.6741 49.0502 90.5193 49.4258 91.5711 49.4258Z" fill="white"/>
<path d="M101.878 51.8205V38.0438H112.302V40.8048H105.4V51.8205H101.878Z" fill="white"/>
<path d="M121.065 52.1023C119.638 52.1023 118.398 51.8112 117.346 51.2289C116.294 50.6467 115.477 49.8202 114.895 48.7496C114.313 47.6603 114.022 46.3831 114.022 44.9181C114.022 43.4531 114.313 42.1853 114.895 41.1147C115.477 40.0441 116.294 39.2177 117.346 38.6354C118.398 38.0532 119.638 37.7621 121.065 37.7621C122.493 37.7621 123.732 38.0532 124.784 38.6354C125.836 39.2177 126.653 40.0441 127.235 41.1147C127.817 42.1853 128.108 43.4531 128.108 44.9181C128.108 46.3831 127.817 47.6603 127.235 48.7496C126.653 49.8202 125.836 50.6467 124.784 51.2289C123.732 51.8112 122.493 52.1023 121.065 52.1023ZM121.065 49.4258C122.117 49.4258 122.962 49.0502 123.601 48.2989C124.239 47.5288 124.559 46.4019 124.559 44.9181C124.559 43.4155 124.239 42.298 123.601 41.5655C122.962 40.8142 122.117 40.4385 121.065 40.4385C120.013 40.4385 119.168 40.8142 118.529 41.5655C117.891 42.298 117.572 43.4155 117.572 44.9181C117.572 46.4019 117.891 47.5288 118.529 48.2989C119.168 49.0502 120.013 49.4258 121.065 49.4258Z" fill="white"/>
<path d="M134.274 51.8205V40.8048H129.569V38.0438H142.529V40.8048H137.796V51.8205H134.274Z" fill="white"/>
<path d="M144.688 51.8205V38.0438H147.872V47.2283L154.774 38.0438H157.704V51.8205H154.521V42.636L147.618 51.8205H144.688Z" fill="white"/>
<path d="M161.691 51.8205V38.0438H174.736V51.8205H171.214V40.8048H165.213V51.8205H161.691Z" fill="white"/>
<path d="M27.6936 0.570549C42.8372 0.570549 55.1231 12.8564 55.1231 28C55.1231 43.1436 42.8372 55.4295 27.6936 55.4295C12.55 55.4295 0.26416 43.1436 0.26416 28C0.26416 12.8564 12.55 0.570549 27.6936 0.570549ZM27.6936 3.29888C14.0508 3.29888 2.99273 14.3565 2.99273 27.9998C2.99273 41.643 14.0504 52.7006 27.6936 52.7006C41.3368 52.7006 52.3945 41.643 52.3945 27.9998C52.3945 14.3565 41.3368 3.29888 27.6936 3.29888Z" fill="white"/>
<path d="M28.9897 14.2275L31.9846 23.4909L41.7185 23.4704C43.0418 23.4704 43.5671 25.1691 42.5165 25.9329L34.6311 31.6218L37.6597 40.8989C38.0828 42.2089 36.514 43.2319 35.4766 42.3521L27.6935 36.6765L19.8286 42.4135C18.6348 43.2867 17.3387 42.1066 17.8368 40.5854L20.7631 31.6428L12.8777 25.9333C11.7657 25.1282 12.4205 23.382 13.7713 23.4776L23.4101 23.4914L26.405 14.2281C26.8075 12.9662 28.5948 12.9867 28.9902 14.2281L28.9897 14.2275ZM29.6992 25.2714L27.6936 19.0638L25.7222 25.1896C25.5242 25.7967 25.0603 26.2126 24.3989 26.2126L17.8845 26.1988L23.1643 30.0187C23.6282 30.3527 23.8466 30.967 23.6624 31.5398L21.6363 37.7403L26.8818 33.9065C27.3457 33.5587 28.0005 33.5382 28.4986 33.8998L33.7579 37.7402L31.7456 31.5873C31.5476 31.0277 31.7251 30.3801 32.23 30.0185L37.5098 26.1986L31.0566 26.2124C30.4561 26.2395 29.8903 25.8645 29.699 25.2712L29.6992 25.2714Z" fill="white"/>
</svg>
