<svg width="16" height="18" viewBox="0 0 16 18" fill="none" xmlns="http://www.w3.org/2000/svg">
<path d="M12.1378 1.12257C9.39685 0.599119 6.55043 0.599119 3.80944 1.12257C2.59708 1.38429 1.06846 2.84994 0.804898 4.00152C0.330496 6.25234 0.330496 8.5555 0.804898 10.8063C1.12117 11.9579 2.64979 13.4236 3.80944 13.6853C3.86215 13.6853 3.91486 13.7376 3.91486 13.79V17.0877C3.91486 17.2447 4.12571 17.3494 4.23114 17.1924L5.81248 15.5697C5.81248 15.5697 7.07755 14.2611 7.28839 14.0517C7.28839 14.0517 7.34111 13.9993 7.39382 13.9993C8.97516 14.0517 10.6092 13.8947 12.1905 13.6329C13.4029 13.3712 14.9315 11.9056 15.1951 10.754C15.6695 8.50316 15.6695 6.2 15.1951 3.94918C14.8788 2.84994 13.3502 1.38429 12.1378 1.12257ZM12.1905 10.9634C11.927 11.4868 11.6107 11.9056 11.0836 12.1673C10.9255 12.2196 10.7673 12.272 10.6092 12.3243C10.3984 12.272 10.2402 12.2196 10.0821 12.1673C8.39533 11.4868 6.81399 10.5446 5.54892 9.18364C4.86367 8.39847 4.28385 7.50861 3.80944 6.56641C3.5986 6.09531 3.38775 5.67655 3.22962 5.20545C3.07149 4.78669 3.33504 4.36793 3.5986 4.05387C3.86215 3.7398 4.17842 3.53042 4.5474 3.37338C4.81096 3.21635 5.07452 3.32104 5.28536 3.53042C5.70705 4.05387 6.12874 4.57731 6.44501 5.1531C6.65586 5.51951 6.60314 5.93827 6.23417 6.19999C6.12874 6.25234 6.07603 6.30468 5.97061 6.40937C5.9179 6.46172 5.81247 6.51406 5.75976 6.61875C5.65434 6.77578 5.65434 6.93282 5.70705 7.08985C6.12874 8.29378 6.91941 9.23598 8.13177 9.75943C8.34262 9.86412 8.50075 9.91646 8.76431 9.91646C9.13329 9.86412 9.29142 9.44536 9.55498 9.23598C9.81854 9.0266 10.1348 9.02661 10.4511 9.18364C10.7146 9.34067 10.9782 9.55005 11.2945 9.75943C11.558 9.96881 11.8216 10.1258 12.0851 10.3352C12.2433 10.4399 12.296 10.7016 12.1905 10.9634ZM9.97667 7.03751C9.87125 7.03751 9.92396 7.03751 9.97667 7.03751C9.76582 7.03751 9.71311 6.93282 9.6604 6.77579C9.6604 6.6711 9.6604 6.51406 9.60769 6.40937C9.55498 6.2 9.44956 5.99062 9.23871 5.83358C9.13329 5.78124 9.02787 5.72889 8.92244 5.67655C8.76431 5.6242 8.65889 5.6242 8.50075 5.6242C8.34262 5.57186 8.28991 5.46717 8.28991 5.31014C8.28991 5.20545 8.44804 5.10076 8.55346 5.10076C9.39685 5.1531 10.0294 5.6242 10.1348 6.61875C10.1348 6.6711 10.1348 6.77579 10.1348 6.82813C10.1348 6.93282 10.0821 7.03751 9.97667 7.03751ZM9.44956 4.73434C9.186 4.62966 8.92244 4.52497 8.60618 4.47262C8.50075 4.47262 8.34262 4.42028 8.2372 4.42028C8.07906 4.42028 7.97364 4.31559 8.02635 4.15855C8.02635 4.00152 8.13177 3.89683 8.28991 3.94918C8.81702 4.00152 9.29142 4.10621 9.76583 4.31559C10.7146 4.78669 11.2417 5.57186 11.3999 6.61875C11.3999 6.6711 11.3999 6.72344 11.3999 6.77579C11.3999 6.88048 11.3999 6.98516 11.3999 7.1422C11.3999 7.19454 11.3999 7.24689 11.3999 7.29923C11.3472 7.50861 10.9782 7.56096 10.9255 7.29923C10.9255 7.24689 10.8728 7.1422 10.8728 7.08985C10.8728 6.61875 10.7673 6.14765 10.5565 5.72889C10.2402 5.25779 9.87125 4.94372 9.44956 4.73434ZM12.296 7.87502C12.1378 7.87502 12.0324 7.71799 12.0324 7.56096C12.0324 7.24689 11.9797 6.93282 11.927 6.61875C11.7161 4.94372 10.3457 3.58276 8.7116 3.32104C8.44804 3.26869 8.18449 3.2687 7.97364 3.21635C7.81551 3.21635 7.60466 3.21635 7.55195 3.00697C7.49924 2.84994 7.65737 2.6929 7.81551 2.6929C7.86822 2.6929 7.92093 2.6929 7.92093 2.6929C10.0821 2.74525 8.02635 2.6929 7.92093 2.6929C10.1348 2.74525 11.9797 4.2109 12.3487 6.40937C12.4014 6.77579 12.4541 7.1422 12.4541 7.56096C12.5595 7.71799 12.4541 7.87502 12.296 7.87502Z" fill="#2E3F7F"/>
</svg>
