<svg width="16" height="16" viewBox="0 0 16 16" fill="none" xmlns="http://www.w3.org/2000/svg">
<path d="M13.4064 2.58575C11.9683 1.15257 10.0507 0.356354 8.0266 0.356354C3.8186 0.356354 0.409588 3.75353 0.409588 7.94692C0.409588 9.27394 0.78245 10.601 1.42164 11.7157L0.356323 15.6436L4.40453 14.582C5.52311 15.1659 6.74822 15.4844 8.0266 15.4844C12.2346 15.4844 15.6436 12.0872 15.6436 7.89384C15.5903 5.92985 14.8446 4.01893 13.4064 2.58575ZM11.7019 10.654C11.5421 11.0787 10.7964 11.5033 10.4236 11.5564C10.104 11.6095 9.67784 11.6095 9.25171 11.5033C8.98538 11.3972 8.61252 11.291 8.1864 11.0787C6.26883 10.2825 5.04372 8.37156 4.93718 8.21232C4.83065 8.10616 4.1382 7.20378 4.1382 6.24833C4.1382 5.29287 4.61759 4.86823 4.77738 4.6559C4.93718 4.44358 5.15025 4.44358 5.31004 4.44358C5.41657 4.44358 5.57637 4.44358 5.6829 4.44358C5.78943 4.44358 5.94923 4.3905 6.10903 4.76207C6.26883 5.13363 6.64169 6.08909 6.69495 6.14217C6.74822 6.24833 6.74822 6.35449 6.69495 6.46065C6.64169 6.56682 6.58842 6.67298 6.48189 6.77914C6.37536 6.8853 6.26883 7.04454 6.21556 7.09762C6.10903 7.20379 6.0025 7.30995 6.10903 7.46919C6.21556 7.68151 6.58842 8.2654 7.17435 8.79621C7.92007 9.43318 8.50599 9.64551 8.71906 9.75167C8.93212 9.85783 9.03865 9.80475 9.14518 9.69859C9.25171 9.59242 9.62457 9.16778 9.73111 8.95545C9.83764 8.74313 9.99743 8.79621 10.1572 8.84929C10.317 8.90237 11.2758 9.3801 11.4356 9.48626C11.6487 9.59243 11.7552 9.6455 11.8085 9.69859C11.8617 9.85783 11.8617 10.2294 11.7019 10.654Z" fill="#2E3F7F"/>
</svg>
