<svg width="16" height="16" viewBox="0 0 16 16" fill="none" xmlns="http://www.w3.org/2000/svg">
<path d="M8.0042 2.02692C9.95111 2.02692 10.1817 2.03546 10.9473 2.06962C11.6589 2.10093 12.0432 2.22048 12.2994 2.3201C12.6381 2.45103 12.8829 2.61043 13.1362 2.86375C13.3924 3.11992 13.5489 3.36186 13.6798 3.70058C13.7795 3.95675 13.899 4.34386 13.9303 5.0526C13.9645 5.82112 13.973 6.05167 13.973 7.99573C13.973 9.94264 13.9645 10.1732 13.9303 10.9389C13.899 11.6505 13.7795 12.0347 13.6798 12.2909C13.5489 12.6296 13.3895 12.8744 13.1362 13.1277C12.88 13.3839 12.6381 13.5404 12.2994 13.6714C12.0432 13.771 11.6561 13.8905 10.9473 13.9218C10.1788 13.956 9.94826 13.9645 8.0042 13.9645C6.05729 13.9645 5.82674 13.956 5.06107 13.9218C4.34948 13.8905 3.96522 13.771 3.70905 13.6714C3.37033 13.5404 3.12555 13.381 2.87222 13.1277C2.61605 12.8715 2.4595 12.6296 2.32857 12.2909C2.22894 12.0347 2.1094 11.6476 2.07809 10.9389C2.04393 10.1704 2.03539 9.9398 2.03539 7.99573C2.03539 6.04883 2.04393 5.81827 2.07809 5.0526C2.1094 4.34101 2.22894 3.95675 2.32857 3.70058C2.4595 3.36186 2.6189 3.11708 2.87222 2.86375C3.12839 2.60758 3.37033 2.45103 3.70905 2.3201C3.96522 2.22048 4.35233 2.10093 5.06107 2.06962C5.82674 2.03546 6.05729 2.02692 8.0042 2.02692ZM8.0042 0.714752C6.02598 0.714752 5.77835 0.723291 5.0013 0.757448C4.22709 0.791604 3.69482 0.916844 3.23371 1.09616C2.75267 1.28402 2.34565 1.53166 1.94146 1.93869C1.53443 2.34287 1.2868 2.7499 1.09894 3.22809C0.919621 3.69204 0.794381 4.22146 0.760225 4.99567C0.726068 5.77558 0.717529 6.02321 0.717529 8.00143C0.717529 9.97964 0.726068 10.2273 0.760225 11.0043C0.794381 11.7785 0.919621 12.3108 1.09894 12.7719C1.2868 13.253 1.53443 13.66 1.94146 14.0642C2.34565 14.4683 2.75267 14.7188 3.23086 14.9038C3.69482 15.0832 4.22424 15.2084 4.99845 15.2426C5.77551 15.2767 6.02314 15.2853 8.00136 15.2853C9.97957 15.2853 10.2272 15.2767 11.0043 15.2426C11.7785 15.2084 12.3107 15.0832 12.7719 14.9038C13.25 14.7188 13.6571 14.4683 14.0612 14.0642C14.4654 13.66 14.7159 13.253 14.9009 12.7748C15.0802 12.3108 15.2055 11.7814 15.2396 11.0072C15.2738 10.2301 15.2823 9.98249 15.2823 8.00427C15.2823 6.02605 15.2738 5.77842 15.2396 5.00137C15.2055 4.22716 15.0802 3.69489 14.9009 3.23378C14.7216 2.7499 14.474 2.34287 14.0669 1.93869C13.6628 1.5345 13.2557 1.28402 12.7775 1.09901C12.3136 0.91969 11.7842 0.79445 11.01 0.760294C10.2301 0.723291 9.98242 0.714752 8.0042 0.714752Z" fill="#2E3F7F"/>
<path d="M8.00431 4.25848C5.93786 4.25848 4.26135 5.93499 4.26135 8.00144C4.26135 10.0679 5.93786 11.7444 8.00431 11.7444C10.0708 11.7444 11.7473 10.0679 11.7473 8.00144C11.7473 5.93499 10.0708 4.25848 8.00431 4.25848ZM8.00431 10.4294C6.66368 10.4294 5.57637 9.34207 5.57637 8.00144C5.57637 6.66081 6.66368 5.5735 8.00431 5.5735C9.34495 5.5735 10.4323 6.66081 10.4323 8.00144C10.4323 9.34207 9.34495 10.4294 8.00431 10.4294Z" fill="#2E3F7F"/>
<path d="M12.7689 4.11047C12.7689 4.59435 12.3761 4.9843 11.8951 4.9843C11.4112 4.9843 11.0212 4.5915 11.0212 4.11047C11.0212 3.62659 11.414 3.23663 11.8951 3.23663C12.3761 3.23663 12.7689 3.62943 12.7689 4.11047Z" fill="#2E3F7F"/>
</svg>
