<svg width="17" height="10" viewBox="0 0 17 10" fill="none" xmlns="http://www.w3.org/2000/svg">
<path d="M16.3546 8.83647C16.3546 8.7742 16.2924 8.77421 16.2924 8.71194C16.0433 8.2138 15.4829 7.59113 14.7357 6.90619C14.3621 6.59486 14.1753 6.34578 14.0507 6.22125C13.8639 5.97218 13.8639 5.78539 13.9262 5.53632C13.9885 5.34951 14.2375 5.03817 14.6734 4.47777C14.9225 4.16643 15.047 3.97964 15.2338 3.79283C16.1678 2.54749 16.6037 1.73801 16.4792 1.36441L16.4169 1.30215C16.3546 1.23988 16.2924 1.17761 16.1678 1.17761C16.0433 1.11535 15.8565 1.11535 15.6697 1.17761H13.3035C13.2413 1.17761 13.2413 1.17761 13.1167 1.17761C13.0545 1.17761 12.9922 1.17761 12.9922 1.17761H12.9299H12.8677L12.8054 1.23987C12.7431 1.30214 12.7431 1.30214 12.7431 1.36441C12.4941 2.04935 12.1827 2.60975 11.8714 3.23242C11.6846 3.54376 11.4978 3.8551 11.311 4.10417C11.1242 4.35324 10.9996 4.54004 10.8751 4.66457C10.7506 4.7891 10.626 4.85137 10.5638 4.97591C10.5015 5.03817 10.377 5.10044 10.377 5.03818C10.3147 5.03818 10.2524 5.03817 10.2524 4.97591C10.1902 4.91364 10.1279 4.85137 10.0656 4.7891C10.0034 4.72684 10.0034 4.6023 9.9411 4.47777C9.9411 4.35323 9.9411 4.2287 9.9411 4.16643C9.9411 4.10416 9.9411 3.91737 9.9411 3.79283C9.9411 3.60603 9.9411 3.48149 9.9411 3.41923C9.9411 3.23242 9.9411 2.98336 9.9411 2.73429C9.9411 2.48522 9.9411 2.29842 9.9411 2.17388C9.9411 2.04935 9.9411 1.86255 9.9411 1.73801C9.9411 1.55121 9.9411 1.42667 9.9411 1.36441C9.9411 1.30214 9.87885 1.17761 9.87885 1.11534C9.81658 1.05308 9.7543 0.990806 9.69203 0.928539C9.62977 0.866272 9.50524 0.866274 9.44297 0.804006C9.13163 0.741739 8.75804 0.679474 8.32217 0.679474C7.32589 0.679474 6.64095 0.741743 6.39188 0.866277C6.26735 0.928545 6.14281 0.990808 6.08055 1.11534C5.95601 1.23988 5.95601 1.30215 6.01828 1.30215C6.32961 1.36441 6.57868 1.48894 6.70322 1.67574L6.76549 1.80029C6.82776 1.86255 6.82774 1.98708 6.89001 2.17388C6.95228 2.36068 6.95228 2.54749 6.95228 2.79655C6.95228 3.17016 6.95228 3.54376 6.95228 3.79283C6.95228 4.10417 6.89001 4.29097 6.89001 4.47777C6.89001 4.66457 6.82776 4.78911 6.76549 4.85137C6.70322 4.97591 6.70321 5.03818 6.64095 5.03818C6.64095 5.03818 6.64094 5.10044 6.57868 5.10044C6.51641 5.10044 6.45415 5.16271 6.32961 5.16271C6.26734 5.16271 6.14281 5.10044 6.08055 5.03818C5.95601 4.97591 5.83148 4.85138 5.76921 4.72684C5.64468 4.60231 5.52014 4.4155 5.3956 4.16643C5.27107 3.91736 5.08426 3.6683 4.95973 3.29469L4.8352 3.04563C4.77294 2.92109 4.6484 2.67202 4.52387 2.36069C4.39933 2.04935 4.27479 1.80029 4.15026 1.48895C4.08799 1.36441 4.02573 1.30214 3.96347 1.23987H3.9012C3.9012 1.23987 3.83892 1.17761 3.77665 1.17761C3.71439 1.17761 3.65213 1.11534 3.58986 1.11534H1.34824C1.09917 1.11534 0.974636 1.17761 0.912369 1.23987L0.850098 1.30215C0.850098 1.30215 0.850098 1.36441 0.850098 1.42668C0.850098 1.48895 0.850101 1.55121 0.912369 1.67574C1.2237 2.42295 1.59731 3.17016 1.97091 3.91737C2.34451 4.6023 2.71812 5.22498 2.96719 5.66085C3.27852 6.09672 3.52759 6.53259 3.83892 6.90619C4.15026 7.2798 4.33706 7.52886 4.39932 7.6534C4.52386 7.77793 4.58612 7.8402 4.64839 7.90246L4.8352 8.08927C4.95974 8.2138 5.14653 8.4006 5.3956 8.58741C5.64467 8.77421 5.956 8.961 6.26734 9.14781C6.57868 9.33461 6.95229 9.45915 7.32589 9.58368C7.76176 9.70822 8.13536 9.77048 8.50896 9.70822H9.44297C9.62977 9.70822 9.75431 9.64595 9.87885 9.52141L9.9411 9.45914C9.9411 9.39687 10.0034 9.39688 10.0034 9.33461C10.0034 9.27234 10.0034 9.21008 10.0034 9.08554C10.0034 8.83648 10.0034 8.64967 10.0656 8.46287C10.1279 8.27607 10.1279 8.15154 10.1902 8.027C10.2525 7.90247 10.3147 7.8402 10.377 7.77793C10.4392 7.71566 10.5015 7.6534 10.5015 7.6534H10.5638C10.6883 7.59113 10.8751 7.6534 10.9997 7.77793C11.1865 7.90246 11.3732 8.08927 11.4978 8.27607C11.6223 8.46287 11.8091 8.64967 12.0582 8.89874C12.3073 9.14781 12.4941 9.33461 12.6186 9.39688L12.8054 9.52141C12.9299 9.58368 13.0545 9.64595 13.2413 9.70822C13.4281 9.77048 13.5526 9.77048 13.6771 9.77048L15.7942 9.70822C15.981 9.70822 16.1678 9.64595 16.2924 9.58368C16.4169 9.52142 16.4792 9.45914 16.4792 9.33461C16.4792 9.27234 16.4792 9.14781 16.4792 9.08554C16.3546 8.96101 16.3546 8.89874 16.3546 8.83647Z" fill="#2E3F7F"/>
</svg>
