<?xml version="1.0" encoding="utf-8"?><svg xmlns="http://www.w3.org/2000/svg" xmlns:xlink="http://www.w3.org/1999/xlink"><symbol fill="none" viewBox="0 0 24 24" id="icon_comp_03" xmlns="http://www.w3.org/2000/svg"><path d="M20 7H4a2 2 0 00-2 2v10a2 2 0 002 2h16a2 2 0 002-2V9a2 2 0 00-2-2z" stroke="#1C1D1F" stroke-width="2" stroke-linecap="round" stroke-linejoin="round"/><path d="M16 21V5a2 2 0 00-2-2h-4a2 2 0 00-2 2v16" stroke="#1C1D1F" stroke-width="2" stroke-linecap="round" stroke-linejoin="round"/></symbol><symbol viewBox="0 0 24 24" id="icon_disc_03" xmlns="http://www.w3.org/2000/svg"><path d="M7.773 6.292l-.012-.012h.244a2.304 2.304 0 012.302 2.302l-2.534-2.29zm0 0a2.305 2.305 0 00-2.07 2.29.65.65 0 001.301 0 1.002 1.002 0 012.002 0c0 .552-.45 1-1 1a.65.65 0 00-.651.651v1.1a.65.65 0 001.3 0v-.543a2.306 2.306 0 001.652-2.208l-2.534-2.29zm.232 9.345a5.686 5.686 0 005.68-5.679 5.686 5.686 0 00-5.68-5.679 5.686 5.686 0 00-5.679 5.68c0 .97.25 1.928.723 2.772a.65.65 0 01.08.38m4.876 2.526l-5.158-.612.101-.01m5.057.622l-.025.1a5.781 5.781 0 01-2.797-.736.55.55 0 00-.321-.068m3.143.704v.1l.048-.088-.022.088-3.179-.903m3.153.803c-.97 0-1.929-.25-2.773-.723a.648.648 0 00-.38-.08m3.153.803l-3.153-.803M3.129 13.11l-.1-.01.1.01zm0 0l-.18 1.904m0 0l-.01.101 1.923-.183m-1.914.082l1.904-.181.01.1m0 0l-.01-.1m16.466 4.585l-1.904-.182h-.001a.66.66 0 00-.379.08 5.683 5.683 0 01-8.113-3.02 6.988 6.988 0 004.064-6.339 6.89 6.89 0 00-.09-1.11 5.683 5.683 0 017.046 5.513c0 .97-.25 1.93-.724 2.773a.65.65 0 00-.08.38l.181 1.905zm0 0l-.181-1.905.181 1.905zm1.133-1.832a6.98 6.98 0 00.79-3.226 6.988 6.988 0 00-8.671-6.77 6.988 6.988 0 00-6.564-4.61 6.988 6.988 0 00-6.98 6.98 6.99 6.99 0 00.791 3.226l-.237 2.491a.651.651 0 00.709.71l2.491-.238a6.988 6.988 0 004.915.583 6.973 6.973 0 006.568 4.61 6.988 6.988 0 003.226-.79l2.492.237a.651.651 0 00.521-.188l-.07-.07.07.07-.05-3.013zm-14.446-3.95a.65.65 0 100-1.3.65.65 0 000 1.3z"/></symbol><symbol fill="none" viewBox="0 0 24 24" id="icon_exp_03" xmlns="http://www.w3.org/2000/svg"><path d="M17 21v-2a4 4 0 00-4-4H5a4 4 0 00-4 4v2m8-10a4 4 0 100-8 4 4 0 000 8zm14 10v-2a4 4 0 00-3-3.87m-4-12a4 4 0 010 7.75" stroke="#1C1D1F" stroke-width="2" stroke-linecap="round" stroke-linejoin="round"/></symbol><symbol viewBox="0 0 24 24" id="icon_faq_03" xmlns="http://www.w3.org/2000/svg"><path d="M12 22c5.523 0 10-4.477 10-10S17.523 2 12 2 2 6.477 2 12s4.477 10 10 10z"/><path d="M9.09 9a3 3 0 015.83 1c0 2-3 3-3 3m.08 4h.01"/></symbol><symbol fill="none" viewBox="0 0 24 24" id="icon_mess_03" xmlns="http://www.w3.org/2000/svg"><path d="M21 11.5a8.38 8.38 0 01-.9 3.8 8.5 8.5 0 01-7.6 4.7 8.379 8.379 0 01-3.8-.9L3 21l1.9-5.7a8.38 8.38 0 01-.9-3.8 8.5 8.5 0 014.7-7.6 8.38 8.38 0 013.8-.9h.5a8.48 8.48 0 018 8v.5z" stroke="#1C1D1F" stroke-width="2" stroke-linecap="round" stroke-linejoin="round"/></symbol><symbol fill="none" viewBox="0 0 24 24" id="icon_news_03" xmlns="http://www.w3.org/2000/svg"><path d="M11 4H4a2 2 0 00-2 2v14a2 2 0 002 2h14a2 2 0 002-2v-7" stroke="#2F3134" stroke-width="2" stroke-linecap="round" stroke-linejoin="round"/><path d="M18.5 2.5a2.121 2.121 0 113 3L12 15l-4 1 1-4 9.5-9.5z" stroke="#2F3134" stroke-width="2" stroke-linecap="round" stroke-linejoin="round"/></symbol><symbol fill="none" viewBox="0 0 24 24" id="icon_prokach_03" xmlns="http://www.w3.org/2000/svg"><path d="M18 20V10m-6 10V4M6 20v-6" stroke="#2F3134" stroke-width="2" stroke-linecap="round" stroke-linejoin="round"/></symbol><symbol viewBox="0 0 24 24" id="icon_user_03" xmlns="http://www.w3.org/2000/svg"><path d="M20 21v-2a4 4 0 00-4-4H8a4 4 0 00-4 4v2m8-10a4 4 0 100-8 4 4 0 000 8z"/></symbol></svg>