<svg width="24" height="24" viewBox="0 0 24 24" fill="none" xmlns="http://www.w3.org/2000/svg">
<path d="M7.77313 6.29214L7.76128 6.28047H8.00533C9.27453 6.28047 10.307 7.3131 10.3068 8.58192L7.77313 6.29214ZM7.77313 6.29214C6.61259 6.40894 5.70373 7.39134 5.70373 8.58216C5.70373 8.9413 5.9952 9.23251 6.35408 9.23251C6.71321 9.23251 7.00443 8.94105 7.00443 8.58216C7.00443 8.03024 7.45339 7.58146 8.00514 7.58146C8.55705 7.58146 9.00584 8.03042 9.00584 8.58216C9.00584 9.13408 8.55688 9.58287 8.00514 9.58287C7.646 9.58287 7.35478 9.87433 7.35478 10.2332V11.3339C7.35478 11.6931 7.64625 11.9843 8.00514 11.9843C8.36427 11.9843 8.65549 11.6928 8.65549 11.3339V10.79C9.60898 10.5086 10.3068 9.6255 10.3068 8.58193L7.77313 6.29214ZM8.00537 15.6375L8.00538 15.6374C11.137 15.6374 13.6846 13.0897 13.6846 9.95821C13.6846 6.82663 11.1369 4.27901 8.00538 4.27901C4.87389 4.27901 2.32618 6.82672 2.32618 9.95821C2.32618 10.9286 2.57635 11.8873 3.04923 12.731L3.04925 12.731C3.11379 12.8463 3.14223 12.979 3.12949 13.1109M8.00537 15.6375L2.84668 15.0247L2.94806 15.015M8.00537 15.6375L7.98026 15.7374C7.0014 15.7331 6.03511 15.4788 5.18321 15.0011C5.10066 14.9547 5.00795 14.9307 4.91388 14.9307C4.89661 14.9307 4.87914 14.9314 4.86186 14.9332M8.00537 15.6375C8.00537 15.6375 8.00538 15.6375 8.00538 15.6375C8.00542 15.6375 8.00545 15.6375 8.00548 15.6375V15.7372L8.05264 15.6493L8.05274 15.6493L8.03063 15.7374L4.85201 14.8336M8.00537 15.6375C7.03507 15.6375 6.07642 15.3873 5.23226 14.914C5.1346 14.859 5.02497 14.8307 4.91388 14.8307C4.89372 14.8307 4.87294 14.8316 4.85201 14.8336M8.00537 15.6375L4.85201 14.8336M3.12949 13.1109L3.02995 13.1012L3.1295 13.1107L3.12949 13.1109ZM3.12949 13.1109L2.94806 15.015M2.94806 15.015L2.9384 15.1164L4.86186 14.9332M2.94806 15.015L4.85191 14.8337L4.86186 14.9332M4.86186 14.9332L4.85237 14.8336L4.85201 14.8336M21.3182 19.4186L19.4139 19.2372L19.413 19.2371C19.2833 19.2258 19.1501 19.2525 19.0342 19.3174L19.0341 19.3174C18.1904 19.7903 17.2317 20.0405 16.2613 20.0405C13.8476 20.0405 11.7256 18.5268 10.9209 16.2978C13.3172 15.1913 14.9854 12.7669 14.9854 9.95823C14.9854 9.5801 14.9536 9.20963 14.8952 8.84807C15.3397 8.73813 15.7973 8.68221 16.2614 8.68221C19.3929 8.68221 21.9406 11.2298 21.9406 14.3614C21.9406 15.3318 21.6904 16.2905 21.217 17.1345L21.2169 17.1347C21.1525 17.25 21.124 17.3822 21.1367 17.5143L21.3182 19.4186ZM21.3182 19.4186L21.1367 17.5144L21.3182 19.4186ZM22.451 17.5872C22.9686 16.595 23.2413 15.4845 23.2413 14.3614C23.2413 10.5126 20.1102 7.38141 16.2613 7.38141C15.6866 7.38141 15.12 7.45117 14.5693 7.58855C13.5967 4.90318 11.0229 2.97812 8.00549 2.97812C4.15668 2.97812 1.02549 6.10931 1.02549 9.95813C1.02549 11.0814 1.29834 12.192 1.81633 13.1846L1.57882 15.6761L1.5788 15.6762C1.56067 15.8691 1.62912 16.0603 1.76641 16.1976C1.90359 16.335 2.09582 16.4034 2.28785 16.3852L2.28794 16.3852L4.77942 16.1477C5.77166 16.6653 6.88226 16.9381 8.00551 16.9381C8.58757 16.9381 9.15308 16.8659 9.69404 16.7309C10.6807 19.4765 13.2918 21.3414 16.2615 21.3414C17.3848 21.3414 18.4954 21.0684 19.488 20.5506L21.9795 20.7881L21.9799 20.7881C22.1731 20.8058 22.3638 20.7379 22.501 20.6005C22.501 20.6005 22.501 20.6006 22.5009 20.6006L22.4306 20.5301L22.5011 20.6005L22.451 17.5872ZM8.00538 13.6357C8.36467 13.6357 8.65573 13.3446 8.65573 12.9853C8.65573 12.626 8.36467 12.335 8.00538 12.335C7.64609 12.335 7.35503 12.626 7.35503 12.9853C7.35503 13.3446 7.64609 13.6357 8.00538 13.6357Z" fill="#1C1D1F" stroke="#1C1D1F" stroke-width="0.2"/>
</svg>
