<?xml version="1.0" encoding="utf-8"?>
<!-- Svg Vector Icons : http://www.onlinewebfonts.com/icon -->
<!DOCTYPE svg PUBLIC "-//W3C//DTD SVG 1.1//EN" "http://www.w3.org/Graphics/SVG/1.1/DTD/svg11.dtd">
<svg version="1.1" xmlns="http://www.w3.org/2000/svg" xmlns:xlink="http://www.w3.org/1999/xlink" x="0px" y="0px" viewBox="0 0 1000 1000" enable-background="new 0 0 1000 1000" xml:space="preserve">
<metadata> Svg Vector Icons : http://www.onlinewebfonts.com/icon </metadata>
<g><g transform="translate(0.000000,511.000000) scale(0.100000,-0.100000)"><path d="M994.8,4982.2c-406.2-81.2-757.4-461.1-855.4-927.1c-52.6-238.9-52.6-7655.6,0-7894.5c100.4-477.9,451.6-848.2,879.3-929.4c81.2-14.4,1567.4-19.1,4069.1-16.7l3940.1,7.2l136.2,57.4c291.5,121.8,549.6,403.8,666.6,735.9l57.4,162.5l7.2,1505.3c7.2,1624.8,9.6,1605.7-117.1,1768.1c-152.9,191.2-480.3,217.4-678.6,55c-184-152.9-179.2-98-179.2-1655.8c0-1309.4-2.4-1390.6-45.4-1486.2c-88.4-188.7,248.5-174.4-3877.9-174.4c-3588.8,0-3689.2,2.4-3760.9,45.4c-164.9,100.3-155.3-150.5-148.1,3920.9c7.2,3557.8,9.6,3670.1,52.6,3734.6c95.6,138.6,55,136.2,1579.4,136.2c1209,0,1412.1,4.8,1488.6,35.8c382.3,162.5,401.4,690.5,31.1,879.3l-131.4,64.5l-1505.3-2.4C1773.7,5001.3,1049.8,4991.8,994.8,4982.2z"/><path d="M6805.8,4977.4c-322.6-112.3-437.2-511.3-222.2-771.8c141-169.6,186.4-179.2,910.3-179.2c351.2,0,638-7.2,638-19.1c0-9.6-812.4-829.1-1806.4-1820.7C5092.6,956.1,4504.8,351.6,4473.7,287.1c-152.9-325,81.2-716.8,446.8-747.9c255.7-21.5,169.6-95.6,2148,1882.8C8067.4,2420.8,8891.7,3238,8901.3,3238c11.9,0,19.1-286.7,19.1-638c0-724,9.6-769.4,179.2-910.3c152.9-126.6,363.2-143.4,549.6-47.8c95.6,50.2,143.4,105.1,200.7,234.2c47.8,102.7,50.2,152.9,50.2,1395.4c0,951-7.2,1311.8-28.7,1385.8c-38.2,126.6-200.7,289.1-320.2,322.6C9424.5,5015.7,6906.1,5013.3,6805.8,4977.4z"/></g></g>
</svg>