<?xml version="1.0" encoding="utf-8"?><svg xmlns="http://www.w3.org/2000/svg" xmlns:xlink="http://www.w3.org/1999/xlink"><symbol viewBox="0 0 15 13" id="LK_firm" xmlns="http://www.w3.org/2000/svg"><path fill-rule="evenodd" clip-rule="evenodd" d="M14.063 12.125s.937 0 .937-.938c0-.937-.938-3.75-4.688-3.75s-4.687 2.813-4.687 3.75c0 .938.938.938.938.938h7.5zm-7.48-.938h7.459a.197.197 0 00.013-.001l.008-.002c-.002-.248-.157-.966-.713-1.613-.518-.606-1.427-1.196-3.037-1.196-1.61 0-2.52.59-3.038 1.196-.556.647-.712 1.366-.713 1.613l.021.004zm3.73-5.624a1.875 1.875 0 100-3.75 1.875 1.875 0 000 3.75zm2.812-1.875a2.811 2.811 0 11-5.623 0 2.811 2.811 0 015.623 0zM6.503 7.7a5.512 5.512 0 00-1.154-.232 6.89 6.89 0 00-.662-.03C.938 7.438 0 10.25 0 11.188c0 .625.312.937.938.937H4.89a2.098 2.098 0 01-.202-.938c0-.946.353-1.914 1.021-2.722a4.96 4.96 0 01.794-.765zm-1.89.675c-1.564.019-2.452.6-2.963 1.196-.56.65-.712 1.372-.712 1.617H3.75c0-.98.303-1.956.862-2.813zM1.405 4.156a2.813 2.813 0 115.625 0 2.813 2.813 0 01-5.625 0zM4.22 2.281a1.875 1.875 0 100 3.75 1.875 1.875 0 000-3.75z"/></symbol><symbol viewBox="0 0 15 15" id="LK_logout" xmlns="http://www.w3.org/2000/svg"><g clip-path="url(#clip0_129_188)" fill-rule="evenodd" clip-rule="evenodd"><path d="M9.375 11.719a.469.469 0 01-.469.469h-7.5a.469.469 0 01-.468-.47V3.282a.469.469 0 01.468-.469h7.5a.469.469 0 01.469.47v1.874a.469.469 0 00.938 0V3.281a1.406 1.406 0 00-1.407-1.406h-7.5A1.406 1.406 0 000 3.281v8.438a1.406 1.406 0 001.406 1.406h7.5a1.406 1.406 0 001.406-1.406V9.844a.469.469 0 00-.937 0v1.875z"/><path d="M14.863 7.832a.467.467 0 000-.664l-2.812-2.812a.47.47 0 10-.664.663L13.4 7.031H5.156a.469.469 0 100 .938H13.4L11.387 9.98a.47.47 0 10.664.663l2.812-2.812z"/></g></symbol><symbol viewBox="0 0 15 15" id="LK_messages" xmlns="http://www.w3.org/2000/svg"><path fill-rule="evenodd" clip-rule="evenodd" d="M0 3.75a1.875 1.875 0 011.875-1.875h11.25A1.875 1.875 0 0115 3.75v7.5a1.875 1.875 0 01-1.875 1.875H1.875A1.875 1.875 0 010 11.25v-7.5zm1.875-.938a.937.937 0 00-.938.938v.203L7.5 7.891l6.563-3.938V3.75a.938.938 0 00-.938-.938H1.875zm12.188 2.235L9.601 7.723l4.46 2.696V5.047zm-.032 6.448L8.69 8.269l-1.19.715-1.192-.714-5.34 3.224a.937.937 0 00.906.694h11.25a.938.938 0 00.906-.693zM.937 10.419l4.461-2.696-4.46-2.676v5.372z"/></symbol><symbol viewBox="0 0 15 15" id="LK_quest" xmlns="http://www.w3.org/2000/svg"><g clip-path="url(#clip0_129_191)"><path fill-rule="evenodd" clip-rule="evenodd" d="M7.5 14.063A6.563 6.563 0 107.5.937a6.563 6.563 0 000 13.126zm0 .937a7.5 7.5 0 100-15 7.5 7.5 0 000 15z"/><path d="M4.926 5.424a.222.222 0 00.226.232h.773c.13 0 .233-.106.25-.234.084-.615.506-1.064 1.258-1.064.643 0 1.232.322 1.232 1.095 0 .596-.35.87-.905 1.286-.63.458-1.13.994-1.095 1.863l.003.203a.234.234 0 00.234.23h.76a.234.234 0 00.235-.234v-.098c0-.673.256-.87.947-1.393.57-.434 1.166-.916 1.166-1.928 0-1.416-1.196-2.1-2.506-2.1-1.188 0-2.489.552-2.578 2.142zm1.46 5.403c0 .5.398.87.947.87.57 0 .963-.37.963-.87 0-.517-.393-.881-.964-.881-.548 0-.946.364-.946.881z"/></g></symbol><symbol viewBox="0 0 15 15" id="LK_quest_ans" xmlns="http://www.w3.org/2000/svg"><g clip-path="url(#clip0_129_191)"><path fill-rule="evenodd" clip-rule="evenodd" d="M7.5 14.063A6.563 6.563 0 107.5.937a6.563 6.563 0 000 13.126zm0 .937a7.5 7.5 0 100-15 7.5 7.5 0 000 15z"/><path d="M4.926 5.424a.222.222 0 00.226.232h.773c.13 0 .233-.106.25-.234.084-.615.506-1.064 1.258-1.064.643 0 1.232.322 1.232 1.095 0 .596-.35.87-.905 1.286-.63.458-1.13.994-1.095 1.863l.003.203a.234.234 0 00.234.23h.76a.234.234 0 00.235-.234v-.098c0-.673.256-.87.947-1.393.57-.434 1.166-.916 1.166-1.928 0-1.416-1.196-2.1-2.506-2.1-1.188 0-2.489.552-2.578 2.142zm1.46 5.403c0 .5.398.87.947.87.57 0 .963-.37.963-.87 0-.517-.393-.881-.964-.881-.548 0-.946.364-.946.881z"/></g></symbol><symbol viewBox="0 0 15 15" id="LK_quest_interest" xmlns="http://www.w3.org/2000/svg"><g clip-path="url(#clip0_129_191)"><path fill-rule="evenodd" clip-rule="evenodd" d="M7.5 14.063A6.563 6.563 0 107.5.937a6.563 6.563 0 000 13.126zm0 .937a7.5 7.5 0 100-15 7.5 7.5 0 000 15z"/><path d="M4.926 5.424a.222.222 0 00.226.232h.773c.13 0 .233-.106.25-.234.084-.615.506-1.064 1.258-1.064.643 0 1.232.322 1.232 1.095 0 .596-.35.87-.905 1.286-.63.458-1.13.994-1.095 1.863l.003.203a.234.234 0 00.234.23h.76a.234.234 0 00.235-.234v-.098c0-.673.256-.87.947-1.393.57-.434 1.166-.916 1.166-1.928 0-1.416-1.196-2.1-2.506-2.1-1.188 0-2.489.552-2.578 2.142zm1.46 5.403c0 .5.398.87.947.87.57 0 .963-.37.963-.87 0-.517-.393-.881-.964-.881-.548 0-.946.364-.946.881z"/></g></symbol><symbol viewBox="0 0 15 15" id="LK_quest_my" xmlns="http://www.w3.org/2000/svg"><g clip-path="url(#clip0_129_191)"><path fill-rule="evenodd" clip-rule="evenodd" d="M7.5 14.063A6.563 6.563 0 107.5.937a6.563 6.563 0 000 13.126zm0 .937a7.5 7.5 0 100-15 7.5 7.5 0 000 15z"/><path d="M4.926 5.424a.222.222 0 00.226.232h.773c.13 0 .233-.106.25-.234.084-.615.506-1.064 1.258-1.064.643 0 1.232.322 1.232 1.095 0 .596-.35.87-.905 1.286-.63.458-1.13.994-1.095 1.863l.003.203a.234.234 0 00.234.23h.76a.234.234 0 00.235-.234v-.098c0-.673.256-.87.947-1.393.57-.434 1.166-.916 1.166-1.928 0-1.416-1.196-2.1-2.506-2.1-1.188 0-2.489.552-2.578 2.142zm1.46 5.403c0 .5.398.87.947.87.57 0 .963-.37.963-.87 0-.517-.393-.881-.964-.881-.548 0-.946.364-.946.881z"/></g></symbol><symbol viewBox="0 0 13 13" id="LK_users" xmlns="http://www.w3.org/2000/svg"><path fill-rule="evenodd" clip-rule="evenodd" d="M8.375 3.688a1.875 1.875 0 11-3.75 0 1.875 1.875 0 013.75 0zM6.5 6.5a2.813 2.813 0 100-5.625 2.813 2.813 0 000 5.625zm5.625 4.688c0 .937-.938.937-.938.937H1.813s-.938 0-.938-.938c0-.937.938-3.75 5.625-3.75 4.688 0 5.625 2.813 5.625 3.75zm-.938-.004c0-.23-.144-.925-.78-1.56-.61-.612-1.761-1.249-3.907-1.249-2.147 0-3.296.637-3.908 1.249-.635.635-.778 1.33-.78 1.56h9.376z"/></symbol><symbol fill="none" viewBox="0 0 130 37" id="footer__logo" xmlns="http://www.w3.org/2000/svg"><path d="M9.176 30.634H3.098l-1.307 2.912H.589l4.987-10.91h1.14l4.988 10.91h-1.215l-1.313-2.912zm-.421-.936l-2.615-5.86-2.62 5.86h5.235zm11.911-4.348v8.196h-1.06v-1.5c-.293.5-.693.89-1.201 1.165-.508.278-1.09.415-1.747.415-1.07 0-1.915-.299-2.534-.898-.617-.598-.923-1.475-.923-2.627V25.35h1.102v4.64c0 .865.213 1.522.639 1.97.424.447 1.034.67 1.827.67.858 0 1.538-.262 2.039-.787.498-.528.75-1.26.75-2.193v-4.3h1.108zm7.416 7.694c-.207.19-.465.335-.774.434a3.089 3.089 0 01-.954.148c-.769 0-1.362-.207-1.779-.625-.418-.417-.625-1.004-.625-1.76v-4.956h-1.462v-.936h1.462v-1.797h1.109v1.797h2.49v.936h-2.49v4.894c0 .488.12.86.365 1.115.243.253.595.378 1.053.378.227 0 .447-.034.657-.105.214-.074.4-.18.558-.316l.39.793zm5.361.582c-.79 0-1.502-.18-2.138-.539a3.933 3.933 0 01-1.493-1.487c-.364-.635-.545-1.353-.545-2.156 0-.796.181-1.511.545-2.143a3.843 3.843 0 011.493-1.481c.636-.355 1.348-.533 2.138-.533.788 0 1.5.178 2.131.533a3.802 3.802 0 011.493 1.48c.36.633.54 1.348.54 2.144 0 .803-.18 1.521-.54 2.157a3.89 3.89 0 01-1.493 1.486c-.632.36-1.343.54-2.131.54zm0-.985c.582 0 1.104-.131 1.567-.396a2.77 2.77 0 001.085-1.128c.26-.49.39-1.048.39-1.673 0-.622-.13-1.178-.39-1.666a2.787 2.787 0 00-1.085-1.128 3.114 3.114 0 00-1.567-.396 3.11 3.11 0 00-1.568.396 2.811 2.811 0 00-1.09 1.128c-.265.488-.396 1.044-.396 1.666 0 .625.131 1.182.396 1.673.263.488.627.864 1.09 1.128.462.265.986.396 1.568.396zM46.97 27.92c.718.154 1.27.462 1.66.923.392.463.588 1.06.588 1.79 0 .935-.347 1.654-1.04 2.157-.691.505-1.71.756-3.061.756h-5.019v-10.91h4.709c1.214 0 2.156.244 2.825.73.672.489 1.01 1.18 1.01 2.076 0 .604-.149 1.115-.446 1.537-.297.418-.706.73-1.227.941zm-5.72-4.337v3.96h3.477c.882 0 1.562-.168 2.038-.502.478-.338.718-.83.718-1.475 0-.644-.24-1.135-.718-1.474-.476-.338-1.156-.509-2.038-.509H41.25zm3.848 9.015c.98 0 1.718-.167 2.218-.502.499-.334.75-.855.75-1.561 0-1.359-.99-2.038-2.968-2.038h-3.847v4.1h3.847zm9.868 1.028c-.79 0-1.503-.18-2.138-.539a3.933 3.933 0 01-1.493-1.487c-.364-.635-.545-1.353-.545-2.156 0-.796.181-1.511.545-2.143a3.843 3.843 0 011.493-1.481c.635-.355 1.348-.533 2.138-.533.788 0 1.499.178 2.13.533a3.802 3.802 0 011.494 1.48c.36.633.539 1.348.539 2.144 0 .803-.18 1.521-.539 2.157a3.89 3.89 0 01-1.493 1.486c-.632.36-1.343.54-2.131.54zm0-.985c.582 0 1.104-.131 1.567-.396.462-.263.824-.64 1.084-1.128.26-.49.39-1.048.39-1.673 0-.622-.13-1.178-.39-1.666a2.787 2.787 0 00-1.084-1.128 3.114 3.114 0 00-1.567-.396 3.11 3.11 0 00-1.568.396 2.811 2.811 0 00-1.09 1.128c-.265.488-.397 1.044-.397 1.666 0 .625.132 1.182.397 1.673.263.488.627.864 1.09 1.128.462.265.985.396 1.568.396zm8.619.985a6.245 6.245 0 01-1.914-.29c-.607-.194-1.083-.436-1.425-.726l.502-.873c.342.272.774.495 1.295.669a5.17 5.17 0 001.617.254c.75 0 1.304-.118 1.66-.353a1.12 1.12 0 00.539-.992c0-.3-.1-.535-.297-.706a1.888 1.888 0 00-.744-.39 10.42 10.42 0 00-1.202-.26 13.97 13.97 0 01-1.604-.378 2.417 2.417 0 01-1.041-.663c-.285-.313-.428-.745-.428-1.295 0-.685.285-1.245.855-1.679.573-.437 1.371-.657 2.392-.657a6.21 6.21 0 011.586.21c.528.137.966.322 1.313.552l-.483.886c-.678-.466-1.484-.7-2.416-.7-.711 0-1.246.127-1.605.378-.356.248-.533.575-.533.979 0 .31.1.56.304.75.201.186.454.325.756.415.3.086.715.176 1.245.266.657.129 1.18.254 1.574.378.396.124.734.338 1.016.638.28.302.421.717.421 1.245 0 .72-.3 1.29-.898 1.71-.6.422-1.428.632-2.485.632zm7.621 0a6.244 6.244 0 01-1.914-.29c-.608-.194-1.083-.436-1.425-.726l.501-.873c.343.272.775.495 1.295.669.52.17 1.06.254 1.617.254.752 0 1.305-.118 1.66-.353.36-.236.54-.566.54-.992 0-.3-.1-.535-.297-.706a1.888 1.888 0 00-.744-.39c-.302-.09-.703-.177-1.202-.26-.666-.124-1.2-.25-1.605-.378a2.417 2.417 0 01-1.04-.663c-.285-.313-.428-.745-.428-1.295 0-.685.285-1.245.855-1.679.573-.437 1.37-.657 2.391-.657a6.21 6.21 0 011.587.21c.528.137.966.322 1.313.552l-.483.886c-.679-.466-1.484-.7-2.416-.7-.711 0-1.246.127-1.605.378-.356.248-.533.575-.533.979 0 .31.1.56.304.75.201.186.454.325.755.415.301.086.716.176 1.246.266.657.129 1.18.254 1.573.378a2.32 2.32 0 011.017.638c.28.302.42.717.42 1.245 0 .72-.3 1.29-.897 1.71-.6.422-1.429.632-2.485.632z" fill="#FD5928"/><path d="M88.652 32.548v.998H80.94v-10.91h7.484v.997h-6.332v3.878h5.645v.986H82.09v4.051h6.561zm7.701.998l-2.602-3.433-2.621 3.433h-1.245l3.24-4.207-3.086-3.99h1.246l2.466 3.21 2.46-3.21h1.22l-3.092 3.99 3.278 4.207h-1.264zm7.325-8.259c.768 0 1.464.174 2.088.52a3.71 3.71 0 011.462 1.475c.355.632.533 1.354.533 2.162 0 .823-.178 1.552-.533 2.188a3.755 3.755 0 01-1.456 1.474c-.616.347-1.313.52-2.094.52-.666 0-1.267-.137-1.803-.415a3.414 3.414 0 01-1.313-1.208v4.566h-1.11V25.35h1.06v1.617c.335-.54.775-.955 1.32-1.245.545-.288 1.16-.434 1.846-.434zm-.081 7.354c.574 0 1.094-.131 1.562-.396.466-.263.831-.64 1.096-1.128.264-.49.397-1.048.397-1.673 0-.622-.133-1.177-.397-1.66a2.868 2.868 0 00-1.096-1.128 3.087 3.087 0 00-1.562-.402c-.582 0-1.105.134-1.567.402a2.93 2.93 0 00-1.09 1.128c-.265.483-.397 1.038-.397 1.66 0 .625.132 1.182.397 1.673a2.86 2.86 0 001.09 1.128c.462.265.985.396 1.567.396zm13.559-2.85h-6.858c.062.852.387 1.54.979 2.064.594.525 1.344.786 2.249.786.508 0 .974-.09 1.4-.272.429-.181.799-.45 1.109-.806l.625.719a3.524 3.524 0 01-1.363 1.004 4.63 4.63 0 01-1.802.34c-.843 0-1.59-.18-2.237-.539a3.879 3.879 0 01-1.518-1.487c-.364-.635-.545-1.353-.545-2.156 0-.796.173-1.511.52-2.143a3.753 3.753 0 011.431-1.481 4.012 4.012 0 012.051-.533c.759 0 1.441.178 2.045.533a3.747 3.747 0 011.418 1.468c.343.63.515 1.348.515 2.156l-.019.347zm-3.959-3.556c-.79 0-1.453.253-1.989.756-.532.505-.836 1.162-.91 1.97h5.817c-.074-.808-.381-1.465-.917-1.97-.533-.503-1.2-.756-2.001-.756zm7.294.719a2.661 2.661 0 011.159-1.245c.516-.28 1.154-.422 1.914-.422v1.072l-.266-.012c-.864 0-1.54.264-2.026.793-.488.53-.731 1.273-.731 2.23v4.176h-1.109v-8.197h1.059v1.605zm9.509 6.09c-.207.19-.465.335-.774.434a3.089 3.089 0 01-.954.148c-.769 0-1.362-.207-1.779-.625-.418-.417-.625-1.004-.625-1.76v-4.956h-1.462v-.936h1.462v-1.797h1.109v1.797h2.49v.936h-2.49v4.894c0 .488.12.86.365 1.115.243.253.595.378 1.053.378.227 0 .447-.034.657-.105.214-.074.4-.18.558-.316l.39.793zM75.72 18.735h-5.928a2.53 2.53 0 01-2.214-1.273L57.58 0h5.929c.87 0 1.739.438 2.213 1.273l9.999 17.462z" fill="#fff"/><path d="M58.471 18.735c2.63 0 4.759-2.062 4.759-4.61 0-2.546-2.129-4.609-4.758-4.609-2.63 0-4.759 2.063-4.759 4.61s2.129 4.61 4.758 4.61z" fill="#FF5722"/></symbol><symbol viewBox="0 0 8 12" id="icon__arrow-l" xmlns="http://www.w3.org/2000/svg"><path fill-rule="evenodd" clip-rule="evenodd" d="M6.935.44a.437.437 0 00-.62 0l-5.25 5.25a.438.438 0 000 .62l5.25 5.25a.438.438 0 00.62-.62L1.994 6l4.94-4.94a.437.437 0 000-.62z"/></symbol><symbol viewBox="0 0 8 12" id="icon__arrow-r" xmlns="http://www.w3.org/2000/svg"><path fill-rule="evenodd" clip-rule="evenodd" d="M1.065.44a.437.437 0 01.62 0l5.25 5.25a.438.438 0 010 .62l-5.25 5.25a.438.438 0 01-.62-.62L6.006 6l-4.94-4.94a.437.437 0 010-.62z"/></symbol><symbol fill="none" viewBox="0 0 26 22" id="icon__author-book" xmlns="http://www.w3.org/2000/svg"><path fill-rule="evenodd" clip-rule="evenodd" d="M13.813 2.91v15.838c1.519-.861 3.444-.98 5.22-.801 1.918.195 3.852.749 5.342 1.318V3.14c-1.438-.602-3.5-1.25-5.506-1.451-2.16-.218-3.994.102-5.056 1.222zM13 1.443C11.4.065 9.079-.14 6.966.072 4.506.32 2.023 1.164.476 1.867a.812.812 0 00-.476.74v17.875a.812.812 0 001.149.74c1.433-.65 3.742-1.433 5.98-1.658 2.29-.231 4.209.141 5.237 1.425a.812.812 0 001.268 0c1.028-1.284 2.947-1.656 5.235-1.425 2.24.226 4.55 1.007 5.982 1.657a.813.813 0 001.149-.74V2.608a.812.812 0 00-.476-.74c-1.547-.703-4.03-1.547-6.49-1.795C16.92-.141 14.6.065 13 1.442z" fill="#D07948"/></symbol><symbol fill="none" viewBox="0 0 27 27" id="icon__author-curs" xmlns="http://www.w3.org/2000/svg"><path d="M26.16 3.274a.844.844 0 010 1.191L24.4 6.227l-3.376-3.375 1.76-1.762a.844.844 0 011.193 0l2.182 2.182v.002zm-2.954 4.144l-3.375-3.375L8.334 15.542a.844.844 0 00-.204.33l-1.36 4.075a.422.422 0 00.534.533l4.073-1.358a.843.843 0 00.331-.203L23.206 7.42v-.002z" fill="#0D6EFD"/><path fill-rule="evenodd" clip-rule="evenodd" d="M1.688 22.781a2.531 2.531 0 002.53 2.532h18.563a2.531 2.531 0 002.532-2.532V12.656a.844.844 0 00-1.688 0v10.125a.844.844 0 01-.844.844H4.22a.844.844 0 01-.844-.844V4.22a.844.844 0 01.844-.844h10.968a.844.844 0 100-1.688H4.22A2.531 2.531 0 001.687 4.22v18.56z" fill="#1C1D1F"/></symbol><symbol fill="none" viewBox="0 0 24 24" id="icon__author-master" xmlns="http://www.w3.org/2000/svg"><g clip-path="url(#anclip0_181_193)" fill-rule="evenodd" clip-rule="evenodd"><path d="M9.054 20.504a.75.75 0 01-.048-.263v-.75h-.75a.75.75 0 01-.75-.75v-.75h-.75a.75.75 0 01-.75-.75v-.75h-.75a.75.75 0 01-.75-.75v-.75h-.75a.75.75 0 01-.263-.048l-.268.267a.75.75 0 00-.165.252l-3 7.5a.75.75 0 00.975.975l7.5-3a.751.751 0 00.252-.165l.267-.267v-.001z" fill="#0D6EFD"/><path d="M19.287.21a.75.75 0 00-1.06 0l-2.471 2.47 5.56 5.561 2.47-2.469a.75.75 0 000-1.062l-4.5-4.5zm.969 9.092l-5.56-5.56-9.75 9.75h.31a.75.75 0 01.75.75v.75h.75a.75.75 0 01.75.75v.75h.75a.75.75 0 01.75.75v.75h.75a.75.75 0 01.75.75v.31l9.75-9.75z" fill="#1C1D1F"/></g><defs><clipPath id="anclip0_181_193"><path fill="#fff" d="M0 0h24v24H0z"/></clipPath></defs></symbol><symbol fill="none" viewBox="0 0 27 27" id="icon__author-metod" xmlns="http://www.w3.org/2000/svg"><path fill-rule="evenodd" clip-rule="evenodd" d="M17.965 1.09a.843.843 0 011.195 0l6.75 6.75a.845.845 0 010 1.195l-3.21 3.21-1.399 5.59a2.53 2.53 0 01-1.728 1.81l-17.457 5.24 5.238-17.46A2.531 2.531 0 019.163 5.7l5.59-1.398 3.212-3.211zm-3.037 4.907L9.572 7.335a.844.844 0 00-.604.578L4.632 22.366l14.457-4.337a.843.843 0 00.574-.602l1.34-5.356-6.075-6.075v.001z" fill="#6C757D"/><path fill-rule="evenodd" clip-rule="evenodd" d="M4.78 22.322l8.72-7.134a1.688 1.688 0 10-1.687-1.688l-7.135 8.721-.044.145.145-.044z" fill="#6C757D"/></symbol><symbol viewBox="0 0 1000 1000" id="icon__blank" xmlns="http://www.w3.org/2000/svg"><path d="M99.48 12.78c-40.62 8.12-75.74 46.11-85.54 92.71-5.26 23.89-5.26 765.56 0 789.45 10.04 47.79 45.16 84.82 87.93 92.94 8.12 1.44 156.74 1.91 406.91 1.67l394.01-.72 13.62-5.74c29.15-12.18 54.96-40.38 66.66-73.59l5.74-16.25.72-150.53c.72-162.48.96-160.57-11.71-176.81-15.29-19.12-48.03-21.74-67.86-5.5-18.4 15.29-17.92 9.8-17.92 165.58 0 130.94-.24 139.06-4.54 148.62-8.84 18.87 24.85 17.44-387.79 17.44-358.88 0-368.92-.24-376.09-4.54-16.49-10.03-15.53 15.05-14.81-392.09.72-355.78.96-367.01 5.26-373.46 9.56-13.86 5.5-13.62 157.94-13.62 120.9 0 141.21-.48 148.86-3.58 38.23-16.25 40.14-69.05 3.11-87.93l-13.14-6.45-150.53.24c-82.94.25-155.33 1.2-160.83 2.16z"/><path d="M680.58 13.26c-32.26 11.23-43.72 51.13-22.22 77.18 14.1 16.96 18.64 17.92 91.03 17.92 35.12 0 63.8.72 63.8 1.91 0 .96-81.24 82.91-180.64 182.07-123.29 123.05-182.07 183.5-185.18 189.95-15.29 32.5 8.12 71.68 44.68 74.79 25.57 2.15 16.96 9.56 214.8-188.28 99.89-99.88 182.32-181.6 183.28-181.6 1.19 0 1.91 28.67 1.91 63.8 0 72.4.96 76.94 17.92 91.03 15.29 12.66 36.32 14.34 54.96 4.78 9.56-5.02 14.34-10.51 20.07-23.42 4.78-10.27 5.02-15.29 5.02-139.54 0-95.1-.72-131.18-2.87-138.58-3.82-12.66-20.07-28.91-32.02-32.26-12.67-3.58-264.51-3.34-274.54.25z"/></symbol><symbol viewBox="0 0 12 12" id="icon__close" xmlns="http://www.w3.org/2000/svg"><path fill-rule="evenodd" clip-rule="evenodd" d="M.894.896A.781.781 0 012 .896l4.134 4.136L10.27.896a.782.782 0 111.106 1.106L7.239 6.137l4.136 4.134a.78.78 0 010 1.106.78.78 0 01-1.106 0L6.134 7.241 2 11.377a.781.781 0 11-1.106-1.106L5.03 6.137.894 2.002a.781.781 0 010-1.106z"/></symbol><symbol viewBox="0 0 128 128" id="icon__confir" xmlns="http://www.w3.org/2000/svg"><circle cx="64" cy="64" r="64" fill="#2180e2"/><path d="M54.3 97.2L24.8 67.7c-.4-.4-.4-1 0-1.4l8.5-8.5c.4-.4 1-.4 1.4 0L55 78.1l38.2-38.2c.4-.4 1-.4 1.4 0l8.5 8.5c.4.4.4 1 0 1.4L55.7 97.2c-.4.4-1 .4-1.4 0z" fill="#fff"/></symbol><symbol viewBox="0 0 15 15" id="icon__day" xmlns="http://www.w3.org/2000/svg"><path fill-rule="evenodd" clip-rule="evenodd" d="M3.281 0a.469.469 0 01.469.469v.469h7.5v-.47a.469.469 0 01.938 0v.47h.937A1.875 1.875 0 0115 2.813v10.312A1.875 1.875 0 0113.125 15H1.875A1.875 1.875 0 010 13.125V2.812A1.875 1.875 0 011.875.938h.938v-.47A.469.469 0 013.28 0zM.937 3.75v9.375a.937.937 0 00.938.938h11.25a.938.938 0 00.938-.938V3.75H.937z"/><path d="M6.042 10.957v-5H5.45a11.81 11.81 0 00-1.23.756v.651c.351-.24.908-.581 1.18-.728h.01v4.321h.633zm1.114-1.223c.044.6.557 1.318 1.596 1.318 1.18 0 1.875-1 1.875-2.691 0-1.814-.732-2.502-1.83-2.502-.869 0-1.685.63-1.685 1.696 0 1.088.772 1.66 1.571 1.66.7 0 1.153-.353 1.297-.74h.025c-.004 1.233-.432 2.028-1.223 2.028-.623 0-.945-.422-.985-.769h-.641zm2.768-2.172c0 .652-.524 1.106-1.11 1.106-.563 0-1.072-.359-1.072-1.125 0-.771.545-1.134 1.095-1.134.593 0 1.087.373 1.087 1.153z"/></symbol><symbol viewBox="0 0 10 10" id="icon__delete" xmlns="http://www.w3.org/2000/svg"><path fill-rule="evenodd" clip-rule="evenodd" d="M.809.807a.625.625 0 01.885 0L5 4.117 8.31.806a.626.626 0 11.885.885L5.884 5l3.31 3.307a.626.626 0 11-.885.885L5 5.884 1.694 9.192a.626.626 0 01-.885-.885L4.117 5 .81 1.692a.625.625 0 010-.885z"/></symbol><symbol viewBox="0 0 15 15" id="icon__eye-hide" xmlns="http://www.w3.org/2000/svg"><g clip-path="url(#clip0_400_8838)"><path d="M12.524 10.536C14.12 9.113 15 7.5 15 7.5s-2.812-5.156-7.5-5.156c-.9.003-1.79.19-2.615.551l.722.723A5.573 5.573 0 017.5 3.28c1.988 0 3.637 1.095 4.845 2.304A12.312 12.312 0 0113.902 7.5c-.055.082-.115.172-.183.27-.314.45-.778 1.05-1.374 1.645a10.22 10.22 0 01-.484.456l.663.665z"/><path d="M10.591 8.603a3.28 3.28 0 00-4.194-4.195l.771.772a2.344 2.344 0 012.653 2.652l.77.77zM7.832 9.82l.77.771a3.28 3.28 0 01-4.194-4.194l.772.771A2.344 2.344 0 007.832 9.82z"/><path d="M3.14 5.128c-.168.15-.33.302-.485.457A12.313 12.313 0 001.099 7.5l.183.27c.314.45.778 1.05 1.373 1.645C3.863 10.624 5.513 11.72 7.5 11.72c.671 0 1.303-.125 1.894-.338l.722.724a6.59 6.59 0 01-2.616.551C2.812 12.656 0 7.5 0 7.5s.88-1.613 2.476-3.036l.664.665z"/><path fill-rule="evenodd" clip-rule="evenodd" d="M12.794 13.457L1.544 2.207l.664-.664 11.25 11.25-.664.664z"/></g></symbol><symbol viewBox="0 0 15 15" id="icon__eye-show" xmlns="http://www.w3.org/2000/svg"><path fill-rule="evenodd" clip-rule="evenodd" d="M15 7.5s-2.813-5.156-7.5-5.156C2.812 2.344 0 7.5 0 7.5s2.813 5.156 7.5 5.156c4.688 0 7.5-5.156 7.5-5.156zm-13.9 0c.453.689.974 1.33 1.556 1.915C3.862 10.624 5.513 11.72 7.5 11.72c1.988 0 3.637-1.095 4.845-2.304A12.306 12.306 0 0013.901 7.5a12.305 12.305 0 00-1.556-1.915C11.137 4.376 9.487 3.28 7.5 3.28c-1.987 0-3.637 1.095-4.845 2.304A12.312 12.312 0 001.099 7.5z"/><path fill-rule="evenodd" clip-rule="evenodd" d="M7.5 5.156a2.344 2.344 0 100 4.688 2.344 2.344 0 000-4.688zM4.219 7.5a3.281 3.281 0 116.562 0 3.281 3.281 0 01-6.562 0z"/></symbol><symbol viewBox="0 0 18 24" id="icon__file" xmlns="http://www.w3.org/2000/svg"><path fill-rule="evenodd" clip-rule="evenodd" d="M15 0H3a3 3 0 00-3 3v18a3 3 0 003 3h12a3 3 0 003-3V3a3 3 0 00-3-3zM4.5 6a.75.75 0 000 1.5h9a.75.75 0 100-1.5h-9zm-.75 3.75A.75.75 0 014.5 9h9a.75.75 0 110 1.5h-9a.75.75 0 01-.75-.75zM4.5 12a.75.75 0 100 1.5h9a.75.75 0 100-1.5h-9zm0 3a.75.75 0 100 1.5H9A.75.75 0 109 15H4.5z"/></symbol><symbol viewBox="0 0 10 10" id="icon__info" xmlns="http://www.w3.org/2000/svg"><g clip-path="url(#clip0_385_2716)"><path fill-rule="evenodd" clip-rule="evenodd" d="M5 9.375a4.375 4.375 0 100-8.75 4.375 4.375 0 000 8.75zM5 10A5 5 0 105 0a5 5 0 000 10z"/><path d="M4.376 3.122a.625.625 0 101.25 0 .625.625 0 00-1.25 0zm.061 3.753a.565.565 0 101.125 0l-.219-2.192a.345.345 0 00-.687 0l-.219 2.192z"/></g></symbol><symbol shape-rendering="geometricPrecision" text-rendering="geometricPrecision" image-rendering="optimizeQuality" fill-rule="evenodd" clip-rule="evenodd" viewBox="0 0 47 44.06" id="icon__like" xmlns="http://www.w3.org/2000/svg"><path d="M22.94 4.8c12.38-12.73 43.35 9.54 0 38.19-43.35-28.64-12.39-50.92 0-38.19z"/></symbol><symbol viewBox="0 0 15 15" id="icon__mail" xmlns="http://www.w3.org/2000/svg"><path fill-rule="evenodd" clip-rule="evenodd" d="M0 3.75a1.875 1.875 0 011.875-1.875h11.25A1.875 1.875 0 0115 3.75v7.5a1.875 1.875 0 01-1.875 1.875H1.875A1.875 1.875 0 010 11.25v-7.5zm1.875-.938a.937.937 0 00-.938.938v.203L7.5 7.891l6.563-3.938V3.75a.938.938 0 00-.938-.938H1.875zm12.188 2.235L9.601 7.723l4.46 2.696V5.047zm-.032 6.448L8.69 8.269l-1.19.715-1.192-.714-5.34 3.224a.937.937 0 00.906.694h11.25a.938.938 0 00.906-.693zM.937 10.419l4.461-2.696-4.46-2.676v5.372z"/></symbol><symbol viewBox="0 0 32 32" id="icon__menu" xmlns="http://www.w3.org/2000/svg"><path d="M28 10H4a1 1 0 010-2h24a1 1 0 010 2zm0 7H4a1 1 0 010-2h24a1 1 0 010 2zm0 7H4a1 1 0 010-2h24a1 1 0 010 2z" data-name="Layer 2"/></symbol><symbol viewBox="0 0 15 15" id="icon__phone" xmlns="http://www.w3.org/2000/svg"><g clip-path="url(#bbclip0_220_8021)"><path fill-rule="evenodd" clip-rule="evenodd" d="M3.419 1.24a.636.636 0 00-.952-.058l-.97.97c-.452.454-.619 1.096-.421 1.66a16.47 16.47 0 003.907 6.195 16.47 16.47 0 006.195 3.907c.564.198 1.206.03 1.66-.422l.97-.97a.635.635 0 00-.06-.95l-2.163-1.683a.636.636 0 00-.543-.114l-2.054.513a1.636 1.636 0 01-1.553-.43L5.132 7.553A1.636 1.636 0 014.702 6l.513-2.054a.636.636 0 00-.114-.543L3.419 1.24zM1.759.476a1.636 1.636 0 012.45.153L5.89 2.79c.308.396.417.913.295 1.4l-.513 2.053a.636.636 0 00.167.603L8.143 9.15a.636.636 0 00.604.167l2.052-.513a1.636 1.636 0 011.4.295l2.162 1.682c.777.605.849 1.753.153 2.448l-.97.97c-.693.693-1.73.998-2.697.657a17.468 17.468 0 01-6.571-4.144 17.469 17.469 0 01-4.144-6.57c-.34-.966-.035-2.004.659-2.698l.97-.97h-.002z"/></g><defs><clipPath id="bbclip0_220_8021"><path d="M0 0h15v15H0z"/></clipPath></defs></symbol><symbol viewBox="0 0 15 15" id="icon__point" xmlns="http://www.w3.org/2000/svg"><g clip-path="url(#bcclip0_220_8015)" fill-rule="evenodd" clip-rule="evenodd"><path d="M11.406 8.381c.496-1.006.781-1.948.781-2.756a4.688 4.688 0 00-9.374 0c0 .808.285 1.75.781 2.756.492.996 1.157 1.988 1.838 2.878a29.65 29.65 0 002.068 2.41l.195-.207a29.523 29.523 0 001.873-2.203c.68-.89 1.346-1.882 1.838-2.878zM7.5 15s5.625-5.33 5.625-9.375a5.625 5.625 0 10-11.25 0C1.875 9.669 7.5 15 7.5 15z"/><path d="M7.5 7.5a1.875 1.875 0 100-3.75 1.875 1.875 0 000 3.75zm0 .938a2.813 2.813 0 100-5.626 2.813 2.813 0 000 5.626z"/></g><defs><clipPath id="bcclip0_220_8015"><path d="M0 0h15v15H0z"/></clipPath></defs></symbol><symbol viewBox="0 0 14 16" id="icon__q-del" xmlns="http://www.w3.org/2000/svg"><path d="M12.83 2.82H9.457v-.484A1.79 1.79 0 007.67.55H6.331c-.984 0-1.785.801-1.785 1.786v.483H1.17a.45.45 0 100 .9h.466l.93 9.93a1.978 1.978 0 001.977 1.801h4.913a1.978 1.978 0 001.978-1.801l.93-9.93h.466a.45.45 0 100-.9zm-7.384-.484c0-.489.397-.886.886-.886H7.67c.489 0 .886.398.886.886v.483h-3.11v-.483zm5.092 11.229a1.08 1.08 0 01-1.081.985H4.544a1.08 1.08 0 01-1.081-.985L2.54 3.719h8.918l-.92 9.846z"/><path d="M5.65 12.843h.014a.45.45 0 00.436-.464L5.896 5.84a.45.45 0 00-.9.028l.204 6.539a.45.45 0 00.45.436zm2.687 0h.014a.45.45 0 00.449-.437l.204-6.538a.45.45 0 00-.435-.464.444.444 0 00-.464.436L7.9 12.379a.45.45 0 00.436.463z"/></symbol><symbol viewBox="0 0 14 14" id="icon__q-edit" xmlns="http://www.w3.org/2000/svg"><path fill-rule="evenodd" clip-rule="evenodd" d="M10.632.116a.437.437 0 01.619 0l2.625 2.625a.437.437 0 010 .62l-8.75 8.75a.437.437 0 01-.147.096l-4.375 1.75a.438.438 0 01-.569-.57l1.75-4.374a.437.437 0 01.096-.147l8.75-8.75zm-.822 2.06l2.006 2.006 1.132-1.131-2.007-2.007L9.81 2.176zM11.198 4.8L9.19 2.794 3.504 8.482v.256h.437a.437.437 0 01.438.438v.437h.437a.437.437 0 01.438.438v.437h.256l5.688-5.687zM2.657 9.329l-.093.093-1.337 3.343 3.343-1.337.093-.093a.438.438 0 01-.284-.41v-.437H3.94a.437.437 0 01-.437-.437v-.438h-.438a.437.437 0 01-.41-.284z"/></symbol><symbol fill="none" viewBox="0 0 20 20" id="icon__search" xmlns="http://www.w3.org/2000/svg"><g clip-path="url(#clip0_464_3854)"><path fill-rule="evenodd" clip-rule="evenodd" d="M8.125 15a6.875 6.875 0 100-13.75 6.875 6.875 0 000 13.75zm8.125-6.875a8.125 8.125 0 11-16.25 0 8.125 8.125 0 0116.25 0z" fill="#8E8E8E"/><path stroke="#8E8E8E" stroke-width="1.5" d="M13.03 13.636l5.834 5.834"/></g></symbol><symbol fill="none" viewBox="0 0 64 64" id="icon__sendmessage" xmlns="http://www.w3.org/2000/svg"><path d="M10.667 10.667h42.666c2.934 0 5.334 2.4 5.334 5.333v32c0 2.933-2.4 5.333-5.334 5.333H10.668c-2.933 0-5.333-2.4-5.333-5.333V16c0-2.933 2.4-5.333 5.333-5.333z"/><path d="M58.667 16L32 34.667 5.334 16"/></symbol><symbol fill="none" viewBox="0 0 27 27" id="icon__sert-bronze" xmlns="http://www.w3.org/2000/svg"><path fill-rule="evenodd" clip-rule="evenodd" d="M3.375 3.375A3.375 3.375 0 016.75 0h8.932c.447 0 .877.178 1.193.494l6.256 6.256c.316.316.494.746.494 1.193v15.682A3.375 3.375 0 0120.25 27H6.75a3.375 3.375 0 01-3.375-3.375V3.375zM15.188 6.75l.843-4.219 5.063 5.063-4.219.843a1.687 1.687 0 01-1.688-1.687zM7.593 13.5a.844.844 0 000 1.688h11.812a.844.844 0 000-1.688H7.594zm-.844 4.219a.844.844 0 01.844-.844h11.812a.844.844 0 010 1.688H7.594a.844.844 0 01-.844-.844zm0 3.375a.844.844 0 01.844-.844h6.75a.844.844 0 010 1.688h-6.75a.844.844 0 01-.844-.844z" fill="#D07948"/></symbol><symbol fill="none" viewBox="0 0 27 27" id="icon__sert-gold" xmlns="http://www.w3.org/2000/svg"><path fill-rule="evenodd" clip-rule="evenodd" d="M3.375 3.375A3.375 3.375 0 016.75 0h8.932c.447 0 .877.178 1.193.494l6.256 6.256c.316.316.494.746.494 1.193v15.682A3.375 3.375 0 0120.25 27H6.75a3.375 3.375 0 01-3.375-3.375V3.375zM15.188 6.75l.843-4.219 5.063 5.063-4.219.843a1.687 1.687 0 01-1.688-1.687zM7.593 13.5a.844.844 0 000 1.688h11.812a.844.844 0 000-1.688H7.594zm-.844 4.219a.844.844 0 01.844-.844h11.812a.844.844 0 010 1.688H7.594a.844.844 0 01-.844-.844zm0 3.375a.844.844 0 01.844-.844h6.75a.844.844 0 010 1.688h-6.75a.844.844 0 01-.844-.844z" fill="#F6B863"/></symbol><symbol fill="none" viewBox="0 0 27 27" id="icon__sert-silver" xmlns="http://www.w3.org/2000/svg"><path fill-rule="evenodd" clip-rule="evenodd" d="M3.375 3.375A3.375 3.375 0 016.75 0h8.932c.447 0 .877.178 1.193.494l6.256 6.256c.316.316.494.746.494 1.193v15.682A3.375 3.375 0 0120.25 27H6.75a3.375 3.375 0 01-3.375-3.375V3.375zM15.188 6.75l.843-4.219 5.063 5.063-4.219.843a1.687 1.687 0 01-1.688-1.687zM7.593 13.5a.844.844 0 000 1.688h11.812a.844.844 0 000-1.688H7.594zm-.844 4.219a.844.844 0 01.844-.844h11.812a.844.844 0 010 1.688H7.594a.844.844 0 01-.844-.844zm0 3.375a.844.844 0 01.844-.844h6.75a.844.844 0 010 1.688h-6.75a.844.844 0 01-.844-.844z" fill="#D7D7D7"/></symbol><symbol fill="none" viewBox="0 0 27 27" id="icon__sert-user" xmlns="http://www.w3.org/2000/svg"><path fill-rule="evenodd" clip-rule="evenodd" d="M3.375 3.375A3.375 3.375 0 016.75 0h8.932c.447 0 .877.178 1.193.494l6.256 6.256c.316.316.494.746.494 1.193v15.682A3.375 3.375 0 0120.25 27H6.75a3.375 3.375 0 01-3.375-3.375V3.375zm12.656 2.531V2.531l5.063 5.063h-3.375a1.688 1.688 0 01-1.688-1.688zm2.532 7.594a5.062 5.062 0 11-10.125 0 5.062 5.062 0 0110.124 0zm3.375 9.712S20.25 20.25 13.5 20.25c-6.75 0-8.438 2.962-8.438 2.962v.413a1.687 1.687 0 001.688 1.688h13.5a1.687 1.687 0 001.688-1.688v-.413z" fill="#0D6EFD"/></symbol><symbol viewBox="0 0 15 15" id="icon__spec" xmlns="http://www.w3.org/2000/svg"><path fill-rule="evenodd" clip-rule="evenodd" d="M0 11.719a1.406 1.406 0 001.406 1.406h12.188A1.406 1.406 0 0015 11.719V6.094h-.938v5.625a.469.469 0 01-.468.469H1.406a.469.469 0 01-.468-.47V6.095H0v5.625z"/><path fill-rule="evenodd" clip-rule="evenodd" d="M0 4.219a1.406 1.406 0 011.406-1.407h12.188A1.406 1.406 0 0115 4.22v2.235L7.862 8.357a1.406 1.406 0 01-.724 0L0 6.454V4.219zm1.406-.469a.469.469 0 00-.468.469v1.515l6.44 1.716c.08.021.163.021.242 0l6.441-1.717V4.219a.469.469 0 00-.468-.469H1.406zm3.282-1.406A1.406 1.406 0 016.093.938h2.812a1.406 1.406 0 011.406 1.406v.469h-.937v-.47a.469.469 0 00-.469-.468H6.094a.469.469 0 00-.469.469v.469h-.938v-.47z"/></symbol><symbol fill="none" viewBox="0 0 27 27" id="icon__spiker" xmlns="http://www.w3.org/2000/svg"><path d="M8.438 5.063a5.063 5.063 0 1110.124 0V13.5a5.062 5.062 0 01-10.125 0V5.062z" fill="#F6B863"/><path fill-rule="evenodd" clip-rule="evenodd" d="M5.906 10.969a.843.843 0 01.844.844V13.5a6.75 6.75 0 0013.5 0v-1.688a.844.844 0 111.688 0V13.5a8.438 8.438 0 01-7.594 8.395v3.418h5.062a.844.844 0 010 1.687H7.594a.844.844 0 010-1.688h5.062v-3.417A8.437 8.437 0 015.062 13.5v-1.688a.844.844 0 01.844-.843z" fill="#1C1D1F"/></symbol><symbol viewBox="0 0 15 15" id="icon__star" xmlns="http://www.w3.org/2000/svg"><path fill-rule="evenodd" clip-rule="evenodd" d="M2.686 13.922c-.074.416.337.741.699.556l4.116-2.115 4.114 2.115c.362.185.773-.14.7-.555l-.778-4.435 3.302-3.146c.309-.294.149-.832-.265-.89l-4.592-.653L7.935.742a.481.481 0 00-.87 0L5.019 4.8l-4.592.652c-.413.059-.574.597-.265.891L3.464 9.49l-.778 4.435v-.002zm4.598-2.594l-3.456 1.775.651-3.71a.53.53 0 00-.153-.473L1.602 6.323l3.799-.54a.492.492 0 00.368-.27l1.732-3.429 1.73 3.43a.492.492 0 00.369.27l3.798.538-2.724 2.597a.528.528 0 00-.153.475l.65 3.71-3.455-1.776a.471.471 0 00-.432 0z"/></symbol><symbol viewBox="0 0 15 15" id="icon__start" xmlns="http://www.w3.org/2000/svg"><path d="M3.385 14.378c-.362.186-.773-.14-.7-.556l.779-4.44L.16 6.233c-.309-.294-.148-.833.265-.891l4.592-.654L7.066.627a.481.481 0 01.869 0l2.047 4.062 4.592.653c.414.058.574.597.265.891l-3.302 3.15.778 4.44c.073.416-.338.742-.7.556L7.5 12.26l-4.115 2.118h.001z"/></symbol><symbol viewBox="0 0 15 15" id="icon__upload" xmlns="http://www.w3.org/2000/svg"><path fill-rule="evenodd" clip-rule="evenodd" d="M7.5 9.375a.469.469 0 00.469-.469v-5.43L9.98 5.487a.469.469 0 10.663-.664L7.832 2.012a.469.469 0 00-.664 0L4.356 4.824a.47.47 0 00.663.664l2.012-2.013v5.431a.469.469 0 00.469.469zM.937 11.719a.469.469 0 01.47-.469h12.187a.469.469 0 010 .938H1.406a.469.469 0 01-.468-.47z"/></symbol><symbol viewBox="0 0 13 13" id="icon__user" xmlns="http://www.w3.org/2000/svg"><path fill-rule="evenodd" clip-rule="evenodd" d="M8.375 3.688a1.875 1.875 0 11-3.75 0 1.875 1.875 0 013.75 0zM6.5 6.5a2.813 2.813 0 100-5.625 2.813 2.813 0 000 5.625zm5.625 4.688c0 .937-.938.937-.938.937H1.813s-.938 0-.938-.938c0-.937.938-3.75 5.625-3.75 4.688 0 5.625 2.813 5.625 3.75zm-.938-.004c0-.23-.144-.925-.78-1.56-.61-.612-1.761-1.249-3.907-1.249-2.147 0-3.296.637-3.908 1.249-.635.635-.778 1.33-.78 1.56h9.376z"/></symbol><symbol viewBox="0 0 15 13" id="icon__users" xmlns="http://www.w3.org/2000/svg"><path fill-rule="evenodd" clip-rule="evenodd" d="M14.063 12.125s.937 0 .937-.938c0-.937-.938-3.75-4.688-3.75s-4.687 2.813-4.687 3.75c0 .938.938.938.938.938h7.5zm-7.48-.938h7.459a.197.197 0 00.013-.001l.008-.002c-.002-.248-.157-.966-.713-1.613-.518-.606-1.427-1.196-3.037-1.196-1.61 0-2.52.59-3.038 1.196-.556.647-.712 1.366-.713 1.613l.021.004zm3.73-5.624a1.875 1.875 0 100-3.75 1.875 1.875 0 000 3.75zm2.812-1.875a2.811 2.811 0 11-5.623 0 2.811 2.811 0 015.623 0zM6.503 7.7a5.512 5.512 0 00-1.154-.232 6.89 6.89 0 00-.662-.03C.938 7.438 0 10.25 0 11.188c0 .625.312.937.938.937H4.89a2.098 2.098 0 01-.202-.938c0-.946.353-1.914 1.021-2.722a4.96 4.96 0 01.794-.765zm-1.89.675c-1.564.019-2.452.6-2.963 1.196-.56.65-.712 1.372-.712 1.617H3.75c0-.98.303-1.956.862-2.813zM1.405 4.156a2.813 2.813 0 115.625 0 2.813 2.813 0 01-5.625 0zM4.22 2.281a1.875 1.875 0 100 3.75 1.875 1.875 0 000-3.75z"/></symbol><symbol shape-rendering="geometricPrecision" text-rendering="geometricPrecision" image-rendering="optimizeQuality" fill-rule="evenodd" clip-rule="evenodd" viewBox="0 0 22 22" id="icon__view-list" xmlns="http://www.w3.org/2000/svg"><path d="M.8.2h4c.55 0 1 .45 1 1v4c0 .55-.45 1-1 1h-4c-.55 0-1-.45-1-1v-4c0-.55.45-1 1-1zm0 8h4c.55 0 1 .45 1 1v4c0 .55-.45 1-1 1h-4c-.55 0-1-.45-1-1v-4c0-.55.45-1 1-1zm0 8h4c.55 0 1 .45 1 1v4c0 .55-.45 1-1 1h-4c-.55 0-1-.45-1-1v-4c0-.55.45-1 1-1zm8-16h12c.55 0 1 .45 1 1v4c0 .55-.45 1-1 1h-12c-.55 0-1-.45-1-1v-4c0-.55.45-1 1-1zm0 8h12c.55 0 1 .45 1 1v4c0 .55-.45 1-1 1h-12c-.55 0-1-.45-1-1v-4c0-.55.45-1 1-1zm0 8h12c.55 0 1 .45 1 1v4c0 .55-.45 1-1 1h-12c-.55 0-1-.45-1-1v-4c0-.55.45-1 1-1z"/></symbol><symbol viewBox="0 0 22 22" id="icon__view-table" xmlns="http://www.w3.org/2000/svg"><path fill-rule="evenodd" clip-rule="evenodd" d="M.5 2.75A2.25 2.25 0 012.75.5h4.5A2.25 2.25 0 019.5 2.75v4.5A2.25 2.25 0 017.25 9.5h-4.5A2.25 2.25 0 01.5 7.25v-4.5zm12 0A2.25 2.25 0 0114.75.5h4.5a2.25 2.25 0 012.25 2.25v4.5a2.25 2.25 0 01-2.25 2.25h-4.5a2.25 2.25 0 01-2.25-2.25v-4.5zm-12 12a2.25 2.25 0 012.25-2.25h4.5a2.25 2.25 0 012.25 2.25v4.5a2.25 2.25 0 01-2.25 2.25h-4.5A2.25 2.25 0 01.5 19.25v-4.5zm12 0a2.25 2.25 0 012.25-2.25h4.5a2.25 2.25 0 012.25 2.25v4.5a2.25 2.25 0 01-2.25 2.25h-4.5a2.25 2.25 0 01-2.25-2.25v-4.5z"/></symbol><symbol viewBox="0 0 15 15" id="icon__www" xmlns="http://www.w3.org/2000/svg"><path fill-rule="evenodd" clip-rule="evenodd" d="M0 7.5a7.5 7.5 0 1115 0 7.5 7.5 0 01-15 0zm7.031-6.49c-.628.19-1.251.768-1.769 1.739a7.16 7.16 0 00-.37.817c.66.147 1.38.241 2.14.27V1.01zM3.983 3.318a7.848 7.848 0 01-1.123-.46 6.572 6.572 0 012.134-1.425c-.21.276-.397.568-.56.874a8.3 8.3 0 00-.45 1.012v-.001zM3.29 7.03H.953a6.529 6.529 0 011.278-3.445c.44.242.933.452 1.467.625-.243.922-.38 1.868-.41 2.82h.002zm1.312-2.57c.758.176 1.576.283 2.43.312V7.03H4.227a11.49 11.49 0 01.374-2.57zm3.367.31v2.26h2.803a11.573 11.573 0 00-.374-2.57c-.758.176-1.576.283-2.43.312v-.001zm-3.74 3.2H7.03v2.258c-.853.028-1.671.136-2.429.311a11.57 11.57 0 01-.375-2.57h.001zm3.74 0v2.258c.853.028 1.671.136 2.429.311.209-.775.341-1.644.375-2.57H7.969zm-3.077 3.465a11.85 11.85 0 012.14-.268v2.825c-.629-.191-1.252-.768-1.77-1.739a7.293 7.293 0 01-.37-.817v-.001zm.103 2.134a6.277 6.277 0 01-.56-.875 8.3 8.3 0 01-.452-1.012 7.87 7.87 0 00-1.123.46 6.57 6.57 0 002.134 1.427h.001zm-1.297-2.78a8.507 8.507 0 00-1.467.626A6.528 6.528 0 01.954 7.97H3.29c.029.952.166 1.898.41 2.82zm6.308 2.78a6.572 6.572 0 002.133-1.426 7.85 7.85 0 00-1.122-.46 8.3 8.3 0 01-.451 1.01c-.162.307-.35.6-.56.876zm-2.037-2.403c.76.028 1.478.122 2.14.269a7.335 7.335 0 01-.371.817c-.518.97-1.142 1.547-1.77 1.74v-2.826zm3.333-.376a8.515 8.515 0 011.467.625 6.527 6.527 0 001.277-3.445H11.71a12.523 12.523 0 01-.41 2.82zm2.744-3.758H11.71a12.523 12.523 0 00-.41-2.82 8.558 8.558 0 001.468-.625 6.527 6.527 0 011.277 3.445zm-3.48-4.724c.166.313.317.65.451 1.01a7.85 7.85 0 001.122-.459 6.572 6.572 0 00-2.133-1.425c.204.266.392.56.56.874zm-.458 1.26c-.66.146-1.38.24-2.14.268V1.01c.629.19 1.252.768 1.77 1.739.134.251.259.525.37.817z"/></symbol><symbol fill="none" viewBox="0 0 130 37" id="logo" xmlns="http://www.w3.org/2000/svg"><path d="M9.176 30.634H3.098l-1.307 2.912H.589l4.987-10.91h1.14l4.988 10.91h-1.215l-1.313-2.912zm-.421-.936l-2.615-5.86-2.62 5.86h5.235zm11.911-4.348v8.196h-1.06v-1.5c-.293.5-.693.89-1.201 1.165-.508.278-1.09.415-1.747.415-1.07 0-1.915-.299-2.534-.898-.617-.598-.923-1.475-.923-2.627V25.35h1.102v4.64c0 .865.213 1.522.639 1.97.424.447 1.034.67 1.827.67.858 0 1.538-.262 2.039-.787.498-.528.75-1.26.75-2.193v-4.3h1.108zm7.416 7.694c-.207.19-.465.335-.774.434a3.089 3.089 0 01-.954.148c-.769 0-1.362-.207-1.779-.625-.418-.417-.625-1.004-.625-1.76v-4.956h-1.462v-.936h1.462v-1.797h1.109v1.797h2.49v.936h-2.49v4.894c0 .488.12.86.365 1.115.243.253.595.378 1.053.378.227 0 .447-.034.657-.105.214-.074.4-.18.558-.316l.39.793zm5.361.583c-.79 0-1.502-.18-2.138-.54a3.932 3.932 0 01-1.493-1.487c-.364-.635-.545-1.353-.545-2.155 0-.797.181-1.512.545-2.144a3.843 3.843 0 011.493-1.48c.636-.356 1.348-.534 2.138-.534.788 0 1.5.178 2.131.533a3.803 3.803 0 011.493 1.48c.36.633.54 1.348.54 2.145 0 .802-.18 1.52-.54 2.155a3.89 3.89 0 01-1.493 1.487c-.632.36-1.343.54-2.131.54zm0-.986a3.1 3.1 0 001.567-.396 2.77 2.77 0 001.085-1.128c.26-.49.39-1.048.39-1.672 0-.623-.13-1.18-.39-1.667a2.786 2.786 0 00-1.085-1.128 3.115 3.115 0 00-1.567-.396 3.11 3.11 0 00-1.568.396 2.81 2.81 0 00-1.09 1.128c-.265.488-.396 1.044-.396 1.667 0 .624.131 1.181.396 1.672.263.488.627.864 1.09 1.128.462.265.986.396 1.568.396zM46.97 27.92c.718.154 1.27.462 1.66.923.392.464.588 1.06.588 1.791 0 .934-.347 1.653-1.04 2.156-.691.505-1.71.756-3.061.756h-5.019v-10.91h4.709c1.214 0 2.156.244 2.825.73.672.489 1.01 1.18 1.01 2.076 0 .604-.149 1.115-.446 1.537-.297.418-.706.73-1.227.941zm-5.72-4.337v3.96h3.477c.882 0 1.562-.168 2.038-.502.478-.338.718-.83.718-1.475 0-.644-.24-1.135-.718-1.474-.476-.338-1.156-.508-2.038-.508H41.25zm3.848 9.015c.98 0 1.718-.167 2.218-.502.499-.334.75-.855.75-1.561 0-1.358-.99-2.038-2.968-2.038h-3.847v4.101h3.847zm9.868 1.029c-.79 0-1.503-.18-2.138-.54a3.932 3.932 0 01-1.493-1.487c-.364-.635-.545-1.353-.545-2.155 0-.797.181-1.512.545-2.144a3.843 3.843 0 011.493-1.48c.635-.356 1.348-.534 2.138-.534.788 0 1.499.178 2.13.533a3.803 3.803 0 011.494 1.48c.36.633.539 1.348.539 2.145 0 .802-.18 1.52-.539 2.155a3.89 3.89 0 01-1.493 1.487c-.632.36-1.343.54-2.131.54zm0-.986a3.1 3.1 0 001.567-.396c.462-.263.824-.64 1.084-1.128.26-.49.39-1.048.39-1.672 0-.623-.13-1.18-.39-1.667a2.786 2.786 0 00-1.084-1.128 3.115 3.115 0 00-1.567-.396 3.11 3.11 0 00-1.568.396 2.81 2.81 0 00-1.09 1.128c-.265.488-.397 1.044-.397 1.667 0 .624.132 1.181.397 1.672.263.488.627.864 1.09 1.128.462.265.985.396 1.568.396zm8.619.986a6.248 6.248 0 01-1.914-.292c-.607-.193-1.083-.435-1.425-.725l.502-.873c.342.272.774.496 1.295.669a5.17 5.17 0 001.617.254c.75 0 1.304-.118 1.66-.353a1.12 1.12 0 00.539-.992c0-.3-.1-.535-.297-.706a1.89 1.89 0 00-.744-.39 10.44 10.44 0 00-1.202-.26 13.97 13.97 0 01-1.604-.378 2.418 2.418 0 01-1.041-.663c-.285-.313-.428-.745-.428-1.295 0-.685.285-1.245.855-1.679.573-.437 1.371-.657 2.392-.657a6.21 6.21 0 011.586.21c.528.137.966.322 1.313.552l-.483.886c-.678-.466-1.484-.7-2.416-.7-.711 0-1.246.127-1.605.378-.356.248-.533.575-.533.979 0 .31.1.56.304.75.201.186.454.325.756.415.3.086.715.176 1.245.266.657.129 1.18.254 1.574.378a2.32 2.32 0 011.016.638c.28.302.421.717.421 1.245 0 .72-.3 1.29-.898 1.71-.6.422-1.428.633-2.485.633zm7.621 0a6.247 6.247 0 01-1.914-.292c-.608-.193-1.083-.435-1.425-.725l.501-.873c.343.272.775.496 1.295.669.52.17 1.06.254 1.617.254.752 0 1.305-.118 1.66-.353.36-.236.54-.566.54-.992 0-.3-.1-.535-.297-.706a1.89 1.89 0 00-.744-.39c-.302-.09-.703-.177-1.202-.26-.666-.124-1.2-.25-1.605-.378a2.418 2.418 0 01-1.04-.663c-.285-.313-.428-.745-.428-1.295 0-.685.285-1.245.855-1.679.573-.437 1.37-.657 2.391-.657a6.21 6.21 0 011.587.21c.528.137.966.322 1.313.552l-.483.886c-.679-.466-1.484-.7-2.416-.7-.711 0-1.246.127-1.605.378-.356.248-.533.575-.533.979 0 .31.1.56.304.75.201.186.454.325.755.415.301.086.716.176 1.246.266.657.129 1.18.254 1.573.378a2.32 2.32 0 011.017.638c.28.302.42.717.42 1.245 0 .72-.3 1.29-.897 1.71-.6.422-1.429.633-2.485.633z" fill="#FD5928"/><path d="M88.652 32.548v.998H80.94v-10.91h7.484v.997h-6.332v3.878h5.645v.986H82.09v4.051h6.561zm7.701.998l-2.602-3.433-2.621 3.433h-1.245l3.24-4.207-3.086-3.99h1.246l2.466 3.21 2.46-3.21h1.22l-3.092 3.99 3.278 4.207h-1.264zm7.325-8.259c.768 0 1.464.174 2.088.52a3.71 3.71 0 011.462 1.475c.355.632.533 1.354.533 2.163 0 .822-.178 1.552-.533 2.186a3.755 3.755 0 01-1.456 1.475c-.616.347-1.313.52-2.094.52-.666 0-1.267-.137-1.803-.415a3.415 3.415 0 01-1.313-1.208v4.566h-1.11V25.35h1.06v1.617c.335-.54.775-.955 1.32-1.245.545-.288 1.16-.434 1.846-.434zm-.081 7.354c.574 0 1.094-.131 1.562-.396.466-.263.831-.64 1.096-1.128.264-.49.397-1.048.397-1.672 0-.623-.133-1.178-.397-1.66a2.867 2.867 0 00-1.096-1.128 3.086 3.086 0 00-1.562-.403c-.582 0-1.105.134-1.567.402-.458.27-.822.645-1.09 1.128-.265.483-.397 1.038-.397 1.66 0 .625.132 1.182.397 1.673a2.86 2.86 0 001.09 1.128c.462.265.985.396 1.567.396zm13.559-2.85h-6.858c.062.852.387 1.54.979 2.064.594.525 1.344.786 2.249.786.508 0 .974-.09 1.4-.272a3 3 0 001.109-.806l.625.719a3.523 3.523 0 01-1.363 1.004 4.63 4.63 0 01-1.802.34c-.843 0-1.59-.18-2.237-.539a3.878 3.878 0 01-1.518-1.487c-.364-.635-.545-1.353-.545-2.155 0-.797.173-1.512.52-2.144a3.753 3.753 0 011.431-1.48 4.011 4.011 0 012.051-.534c.759 0 1.441.178 2.045.533a3.747 3.747 0 011.418 1.468c.343.63.515 1.348.515 2.157l-.019.346zm-3.959-3.556c-.79 0-1.453.253-1.989.756-.532.505-.836 1.162-.91 1.97h5.817c-.074-.808-.381-1.465-.917-1.97-.533-.503-1.2-.756-2.001-.756zm7.294.719a2.66 2.66 0 011.159-1.245c.516-.28 1.154-.422 1.914-.422v1.072l-.266-.012c-.864 0-1.54.265-2.026.793-.488.53-.731 1.273-.731 2.23v4.176h-1.109v-8.197h1.059v1.605zm9.509 6.09c-.207.19-.465.335-.774.434a3.089 3.089 0 01-.954.148c-.769 0-1.362-.207-1.779-.625-.418-.417-.625-1.004-.625-1.76v-4.956h-1.462v-.936h1.462v-1.797h1.109v1.797h2.49v.936h-2.49v4.894c0 .488.12.86.365 1.115.243.253.595.378 1.053.378.227 0 .447-.034.657-.105.214-.074.4-.18.558-.316l.39.793zM75.72 18.735h-5.928a2.53 2.53 0 01-2.214-1.273L57.58 0h5.929c.87 0 1.739.438 2.213 1.273l9.999 17.462z" fill="#1C1D1F"/><path d="M58.471 18.735c2.63 0 4.759-2.062 4.759-4.61 0-2.546-2.129-4.609-4.758-4.609-2.63 0-4.759 2.063-4.759 4.61s2.129 4.61 4.758 4.61z" fill="#FF5722"/></symbol><symbol viewBox="0 0 24 25" id="profile__push" xmlns="http://www.w3.org/2000/svg"><path d="M12 25a3 3 0 003-3H9a3 3 0 003 3z"/><path fill-rule="evenodd" clip-rule="evenodd" d="M12 3.877l-1.195.241A6.003 6.003 0 006 10c0 .942-.201 3.295-.689 5.613-.24 1.15-.564 2.349-.994 3.387h15.366c-.43-1.038-.753-2.235-.994-3.387C18.2 13.295 18 10.942 18 10a6.003 6.003 0 00-4.805-5.88L12 3.875v.002zM21.33 19c.335.67.722 1.201 1.17 1.5h-21c.448-.299.836-.83 1.17-1.5 1.35-2.7 1.83-7.68 1.83-9 0-3.63 2.58-6.66 6.008-7.352a1.5 1.5 0 112.985 0A7.503 7.503 0 0119.5 10c0 1.32.48 6.3 1.83 9z"/></symbol><symbol viewBox="0 0 24 24" id="profile__setting" xmlns="http://www.w3.org/2000/svg"><g clip-path="url(#bxclip0_295_2)" fill-rule="evenodd" clip-rule="evenodd"><path d="M13.267 2.45c-.37-1.252-2.143-1.252-2.511 0l-.142.479A2.81 2.81 0 016.576 4.6l-.438-.24c-1.146-.622-2.4.63-1.776 1.778l.239.438a2.81 2.81 0 01-1.673 4.038l-.478.14c-1.253.37-1.253 2.143 0 2.512l.478.14a2.81 2.81 0 011.673 4.04l-.24.437c-.623 1.146.63 2.4 1.777 1.776l.438-.239a2.81 2.81 0 014.038 1.674l.141.477c.37 1.253 2.143 1.253 2.511 0l.142-.478a2.808 2.808 0 014.039-1.673l.437.24c1.145.623 2.4-.63 1.776-1.777l-.239-.437a2.808 2.808 0 011.674-4.04l.477-.14c1.253-.37 1.253-2.142 0-2.511l-.479-.141a2.808 2.808 0 01-1.672-4.038l.24-.438c.622-1.146-.63-2.4-1.777-1.776l-.437.238a2.81 2.81 0 01-4.041-1.672l-.141-.479h.002zm-3.95-.424c.79-2.685 4.598-2.685 5.388 0l.141.478a1.31 1.31 0 001.883.78l.438-.24c2.46-1.338 5.15 1.352 3.81 3.812l-.239.438a1.308 1.308 0 00.78 1.882l.479.141c2.684.79 2.684 4.598 0 5.388l-.479.141a1.31 1.31 0 00-.78 1.883l.24.438c1.34 2.46-1.353 5.15-3.812 3.81l-.438-.239a1.31 1.31 0 00-1.882.78l-.141.479c-.79 2.685-4.598 2.685-5.388 0l-.141-.479a1.31 1.31 0 00-1.883-.78l-.438.24c-2.46 1.34-5.149-1.353-3.81-3.811l.239-.438a1.31 1.31 0 00-.78-1.883l-.479-.14c-2.685-.791-2.685-4.598 0-5.389l.479-.14a1.31 1.31 0 00.78-1.883l-.24-.438c-1.338-2.46 1.353-5.15 3.811-3.81l.438.238a1.31 1.31 0 001.883-.78l.141-.478z"/><path d="M12 8.63a3.369 3.369 0 100 6.739 3.369 3.369 0 000-6.738zM7.13 12a4.869 4.869 0 119.739 0 4.869 4.869 0 01-9.738 0z"/></g><defs><clipPath id="bxclip0_295_2"><path d="M0 0h24v24H0z"/></clipPath></defs></symbol><symbol viewBox="0 0 33 33" id="soc__vk" xmlns="http://www.w3.org/2000/svg"><path d="M10.728 12.058l-2.584.002s-.147-.009-.326.015c-.178.023-.442.034-.713.34v.001l-.002.001a.92.92 0 00-.201.772c.03.175.097.307.097.307v.002c.025.06 1.9 4.657 4.265 7.126 1.668 1.743 3.452 2.318 5.04 2.318h.825c.271 0 .513-.012.781-.151.269-.14.5-.523.5-.82 0-.321.007-.632.048-.806.038-.162.024-.122.039-.122a.44.44 0 01.096.034c.114.051.29.166.487.318.39.304.853.744 1.373 1.085.743.492 1.55.462 1.55.462h2.661l.029-.002s.408-.01.828-.267a1.18 1.18 0 00.542-.717c.084-.354-.023-.725-.229-1.05-.075-.12-.44-.649-1.895-1.941-.376-.334-.633-.57-.734-.696-.036-.044-.04-.04-.046-.042.008-.022.092-.2.317-.492.235-.304.591-.729 1.05-1.313a9.377 9.377 0 001.25-2.063c.13-.302.221-.576.276-.824.055-.248.099-.454.018-.749a.959.959 0 00-.386-.519 1.175 1.175 0 00-.445-.167c-.269-.05-.506-.042-.727-.042-.464 0-2.524.017-2.694.017-.2 0-.518.083-.665.167-.366.21-.48.497-.48.497l-.035.06-.02.07s-.47 1.517-.952 2.3h-.001c-.568.92-.99 1.286-1.177 1.39l-.022.012a.896.896 0 01-.045-.209c-.028-.243-.012-.586-.012-.917 0-.919.07-1.491-.007-2.034-.038-.27-.136-.573-.358-.805-.222-.232-.509-.347-.795-.413h-.001c-.299-.068-.62-.127-1.393-.135-.985-.009-1.626.022-2.196.276l-.006.003-.005.003a1.825 1.825 0 00-.56.389c-.077.08-.17.14-.234.397a.715.715 0 00.11.57c.145.198.35.258.47.273-.022-.003.095.023.185.068.09.044.169.109.189.135-.009-.01.078.206.101.402.023.197.019.355.019.355l-.002.04.004.038s.04.435.019.884a3.05 3.05 0 01-.076.589c-.002.007-.003.005-.005.011-.16-.112-.53-.502-1.04-1.343-.47-.778-.91-2.177-.91-2.177l-.01-.031-.012-.03s-.082-.313-.445-.568c-.34-.24-.664-.272-.664-.272l-.06-.012zm-.149 1.28l.128.048-.015-.045.02.047h.002v.002h.001c-.032-.022-.005 0 0 .005.017.06.408 1.407 1.018 2.416.556.918.967 1.433 1.416 1.74.448.308 1.05.276 1.357.117.409-.213.523-.562.602-.853.08-.29.107-.586.12-.865.025-.533-.017-.969-.021-1.012 0-.024.006-.232-.026-.513-.033-.282-.092-.633-.343-.986.281-.042.437-.105 1.004-.1.723.007.833.037 1.118.102.155.036.172.066.158.05-.015-.015-.002-.025.016.1.035.248-.005.886-.005 1.854 0 .272-.026.657.019 1.06s.17.918.657 1.22c.278.17.808.23 1.307-.048.5-.279 1.012-.812 1.643-1.837.624-1.01.996-2.34 1.037-2.48l.011-.007c.011 0-.003.002.015.002.237 0 2.26-.016 2.694-.016.119 0 .17.006.26.01a3.385 3.385 0 01-.173.506 8.19 8.19 0 01-1.082 1.777c-.445.567-.79.978-1.055 1.322-.264.343-.472.614-.559 1.006-.087.392.079.834.305 1.115.227.28.507.516.88.847 1.409 1.25 1.64 1.63 1.662 1.665v.001c.024.038.009 0 .018.019-.08.025-.175.053-.184.055h-2.595s-.476-.016-.83-.25l-.001-.002h-.001c-.375-.245-.827-.665-1.292-1.026-.233-.18-.47-.35-.744-.474-.275-.124-.623-.212-.99-.103-.53.16-.824.664-.918 1.065-.068.287-.058.537-.06.788-.019.002-.003.002-.024.002h-.824c-1.301 0-2.655-.397-4.115-1.923-1.899-1.983-3.592-5.817-3.847-6.399l2.236-.001zm11.168.006c-.012.002.021.005.049.007l-.005.002c-.001-.011-.029-.013-.044-.01z"/><path d="M16.5 0C7.396 0 0 7.396 0 16.5S7.396 33 16.5 33 33 25.604 33 16.5 25.604 0 16.5 0zm0 1.435c8.329 0 15.065 6.736 15.065 15.065S24.83 31.565 16.5 31.565 1.435 24.83 1.435 16.5 8.17 1.435 16.5 1.435z"/></symbol></svg>