<svg width="26" height="26" viewBox="0 0 26 26" fill="none" xmlns="http://www.w3.org/2000/svg">
<path d="M3.25 6.5H5.41667H22.75" stroke="#808285" stroke-width="2" stroke-linecap="round" stroke-linejoin="round"/>
<path d="M8.66699 6.49999V4.33332C8.66699 3.75869 8.89527 3.20759 9.30159 2.80126C9.70792 2.39493 10.259 2.16666 10.8337 2.16666H15.167C15.7416 2.16666 16.2927 2.39493 16.6991 2.80126C17.1054 3.20759 17.3337 3.75869 17.3337 4.33332V6.49999M20.5837 6.49999V21.6667C20.5837 22.2413 20.3554 22.7924 19.9491 23.1987C19.5427 23.605 18.9916 23.8333 18.417 23.8333H7.58366C7.00902 23.8333 6.45792 23.605 6.05159 23.1987C5.64527 22.7924 5.41699 22.2413 5.41699 21.6667V6.49999H20.5837Z" stroke="#808285" stroke-width="2" stroke-linecap="round" stroke-linejoin="round"/>
<path d="M10.833 11.9167V18.4167" stroke="#808285" stroke-width="2" stroke-linecap="round" stroke-linejoin="round"/>
<path d="M15.167 11.9167V18.4167" stroke="#808285" stroke-width="2" stroke-linecap="round" stroke-linejoin="round"/>
</svg>
