<svg width="314" height="36" viewBox="0 0 314 36" fill="none" xmlns="http://www.w3.org/2000/svg">
<path d="M38.6905 34.7169H28.2711C26.7429 34.7169 25.2147 33.9528 24.3812 32.4941L6.80713 2H17.2265C18.7547 2 20.2829 2.76409 21.1164 4.22281L38.6905 34.7169Z" fill="#1C1D1F"/>
<path d="M7.91874 34.7169C12.2949 34.7169 15.8375 31.1743 15.8375 26.7981C15.8375 22.422 12.2949 18.8794 7.91874 18.8794C3.54259 18.8794 0 22.422 0 26.7981C0 31.1743 3.54259 34.7169 7.91874 34.7169Z" fill="#FF5722"/>
<path fill-rule="evenodd" clip-rule="evenodd" d="M155.417 14.114C156.806 14.114 157.917 13.0026 157.917 11.6134V10.1547H155.625V11.6134C155.625 11.6828 155.556 11.8218 155.417 11.8218H149.999C149.929 11.8218 149.79 11.7523 149.79 11.6134V5.50066C149.79 5.43119 149.86 5.29227 149.999 5.29227H155.417C155.486 5.29227 155.625 5.36173 155.625 5.50066V6.95937H157.917V5.50066C157.917 4.1114 156.806 3 155.417 3H149.999C148.609 3 147.498 4.1114 147.498 5.50066V11.6134C147.498 13.0026 148.609 14.114 149.999 14.114H155.417ZM141.177 14.114C142.566 14.114 143.678 13.0026 143.678 11.6134V10.1547H141.316V11.6134C141.316 11.6828 141.246 11.8218 141.107 11.8218H135.759C135.689 11.8218 135.55 11.7523 135.55 11.6134V5.50066C135.55 5.43119 135.62 5.29227 135.759 5.29227H141.177C141.246 5.29227 141.385 5.36173 141.385 5.50066V6.95937H143.678V5.50066C143.678 4.1114 142.566 3 141.177 3H135.759C134.37 3 133.258 4.1114 133.258 5.50066V11.6134C133.258 13.0026 134.37 14.114 135.759 14.114H141.177ZM107.071 5.36173H114.017V3.06946C110.961 3.06946 107.835 3.06946 104.779 3.06946V14.114H111.864C113.739 14.114 115.198 12.6553 115.198 10.7798C115.198 8.90433 113.739 7.44561 111.864 7.44561H107.071V5.36173ZM107.071 11.8218H111.864C112.419 11.8218 112.906 11.3355 112.906 10.7798C112.906 10.2241 112.419 9.73788 111.864 9.73788H107.071V11.8218ZM66.2267 5.36173V7.44561H71.0197C71.5754 7.44561 72.0616 6.95937 72.0616 6.40367C72.0616 5.84797 71.5754 5.36173 71.0197 5.36173H66.2267ZM63.9345 3.06946H71.0197C72.8952 3.06946 74.3539 4.52818 74.3539 6.40367C74.3539 7.23722 74.076 8.00131 73.5203 8.55701C74.0066 9.11271 74.3539 9.8768 74.3539 10.7104C74.3539 12.5858 72.8952 14.0446 71.0197 14.0446H63.9345C63.9345 10.4325 63.9345 6.75098 63.9345 3.06946ZM66.2267 11.8218H71.0197C71.5754 11.8218 72.0616 11.3355 72.0616 10.7798C72.0616 10.2241 71.5754 9.73788 71.0197 9.73788H66.2267V11.8218ZM52.8899 9.80734H57.0577L55.5295 5.36173H54.4876L52.8899 9.80734ZM57.1966 3.06946L61.017 14.114H58.5858L57.8912 12.0996H52.1258L51.4312 14.114H49C50.2503 10.4325 51.5007 6.75098 52.8204 3.06946C54.2792 3.06946 55.7379 3.06946 57.1966 3.06946ZM98.3879 5.36173C98.4574 5.36173 98.5963 5.43119 98.5963 5.57012V11.6828C98.5963 11.7523 98.5269 11.8912 98.3879 11.8912H92.9699C92.9004 11.8912 92.7615 11.8218 92.7615 11.6828V5.57012C92.7615 5.50066 92.8309 5.36173 92.9699 5.36173H98.3879ZM98.3879 14.114C99.7772 14.114 100.889 13.0026 100.889 11.6134V5.50066C100.889 4.1114 99.7772 3 98.3879 3H92.9699C91.5806 3 90.4692 4.1114 90.4692 5.50066V11.6134C90.4692 13.0026 91.5806 14.114 92.9699 14.114H98.3879ZM87.6212 3.06946H77.2713V5.36173H81.3001V14.114H83.5924V5.36173H87.6212V3.06946ZM126.937 5.36173C127.007 5.36173 127.145 5.43119 127.145 5.57012V11.6828C127.145 11.7523 127.076 11.8912 126.937 11.8912H121.519C121.45 11.8912 121.311 11.8218 121.311 11.6828V5.57012C121.311 5.50066 121.38 5.36173 121.519 5.36173H126.937ZM126.937 14.114C128.326 14.114 129.438 13.0026 129.438 11.6134V5.50066C129.438 4.1114 128.326 3 126.937 3H121.519C120.13 3 119.018 4.1114 119.018 5.50066V11.6134C119.018 13.0026 120.13 14.114 121.519 14.114H126.937Z" fill="#1C1D1F"/>
<path d="M81.9951 33.7197H77.6001V32.1447H81.0651C82.2351 32.1447 83.0601 31.9347 83.5401 31.5147C84.0301 31.0847 84.3101 30.3047 84.3801 29.1747H77.9601V27.5997H84.3801C84.3001 26.5397 84.0151 25.8097 83.5251 25.4097C83.0351 24.9997 82.2151 24.7947 81.0651 24.7947H77.7651V23.2197H81.9951C82.8651 23.2197 83.6001 23.3497 84.2001 23.6097C84.8001 23.8597 85.2601 24.2347 85.5801 24.7347C85.9001 25.2247 86.1251 25.7697 86.2551 26.3697C86.3851 26.9697 86.4501 27.6697 86.4501 28.4697C86.4501 29.2697 86.3851 29.9697 86.2551 30.5697C86.1251 31.1697 85.9001 31.7197 85.5801 32.2197C85.2601 32.7097 84.8001 33.0847 84.2001 33.3447C83.6001 33.5947 82.8651 33.7197 81.9951 33.7197Z" fill="#FF5722"/>
<path d="M99.4989 33.7197H96.9489L92.5539 29.7147C92.1939 29.3947 92.0139 28.9297 92.0139 28.3197C92.0139 27.8797 92.1839 27.4897 92.5239 27.1497L96.4989 23.2197H98.9589L94.4139 27.5247C94.3939 27.5447 94.3439 27.5897 94.2639 27.6597C94.1939 27.7297 94.1489 27.7797 94.1289 27.8097C94.1089 27.8297 94.0739 27.8747 94.0239 27.9447C93.9839 28.0047 93.9539 28.0647 93.9339 28.1247C93.9239 28.1747 93.9189 28.2347 93.9189 28.3047C93.9189 28.5947 94.1239 28.9147 94.5339 29.2647L99.4989 33.7197ZM89.4489 33.7197V23.2197H91.4289V33.7197H89.4489Z" fill="#FF5722"/>
<path d="M109.386 33.7197H105.006C104.136 33.7197 103.401 33.5947 102.801 33.3447C102.201 33.0847 101.741 32.7097 101.421 32.2197C101.101 31.7197 100.876 31.1697 100.746 30.5697C100.616 29.9697 100.551 29.2697 100.551 28.4697C100.551 27.6697 100.616 26.9697 100.746 26.3697C100.876 25.7697 101.101 25.2247 101.421 24.7347C101.741 24.2347 102.201 23.8597 102.801 23.6097C103.401 23.3497 104.136 23.2197 105.006 23.2197H109.221V24.7947H105.936C104.656 24.7947 103.776 25.0547 103.296 25.5747C102.826 26.0847 102.591 27.0497 102.591 28.4697C102.591 29.8897 102.826 30.8597 103.296 31.3797C103.776 31.8897 104.656 32.1447 105.936 32.1447H109.386V33.7197Z" fill="#FF5722"/>
<path d="M114.219 33.7197H112.239V24.7947C112.239 23.7447 112.749 23.2197 113.769 23.2197H120.039C121.059 23.2197 121.569 23.7447 121.569 24.7947V33.7197H119.589V25.5447C119.589 25.2447 119.539 25.0447 119.439 24.9447C119.339 24.8447 119.139 24.7947 118.839 24.7947H114.969C114.669 24.7947 114.469 24.8447 114.369 24.9447C114.269 25.0447 114.219 25.2447 114.219 25.5447V33.7197Z" fill="#FF5722"/>
<path d="M133.287 32.1447V33.7197H126.402C125.382 33.7197 124.872 33.1947 124.872 32.1447V24.7947C124.872 23.7447 125.382 23.2197 126.402 23.2197H133.227V24.7947H127.602C127.302 24.7947 127.102 24.8447 127.002 24.9447C126.902 25.0447 126.852 25.2447 126.852 25.5447V27.5697H133.077V29.1447H126.852V31.3947C126.852 31.6947 126.902 31.8947 127.002 31.9947C127.102 32.0947 127.302 32.1447 127.602 32.1447H133.287Z" fill="#FF5722"/>
<path d="M136.142 33.7197V24.7947C136.142 23.7447 136.652 23.2197 137.672 23.2197H142.892C143.432 23.2197 143.882 23.3097 144.242 23.4897C144.612 23.6597 144.887 23.9147 145.067 24.2547C145.257 24.5847 145.387 24.9347 145.457 25.3047C145.527 25.6647 145.562 26.0947 145.562 26.5947C145.562 27.0947 145.527 27.5297 145.457 27.8997C145.387 28.2697 145.257 28.6247 145.067 28.9647C144.887 29.2947 144.612 29.5497 144.242 29.7297C143.882 29.9097 143.432 29.9997 142.892 29.9997H138.122V33.7197H136.142ZM138.122 28.4247H141.917C142.557 28.4247 142.982 28.2847 143.192 28.0047C143.412 27.7147 143.522 27.2447 143.522 26.5947C143.522 25.9447 143.412 25.4847 143.192 25.2147C142.982 24.9347 142.557 24.7947 141.917 24.7947H138.872C138.572 24.7947 138.372 24.8447 138.272 24.9447C138.172 25.0447 138.122 25.2447 138.122 25.5447V28.4247Z" fill="#FF5722"/>
<path d="M153.73 33.7197H151.75V24.7947H147.655V23.2197H157.84V24.7947H153.73V33.7197Z" fill="#FF5722"/>
<path d="M198.525 1.287L196.226 6.996C196.101 7.304 195.973 7.52767 195.841 7.667C195.716 7.80633 195.533 7.876 195.291 7.876C195.049 7.876 194.862 7.80633 194.73 7.667C194.598 7.52767 194.47 7.304 194.345 6.996L192.057 1.287C191.991 1.12567 191.925 1.045 191.859 1.045C191.764 1.045 191.716 1.11833 191.716 1.265L191.738 7.788H190.715V0.869C190.715 0.590333 190.799 0.377666 190.968 0.231C191.144 0.0769999 191.386 0 191.694 0C191.995 0 192.222 0.0733333 192.376 0.22C192.53 0.366666 192.669 0.586666 192.794 0.88L195.093 6.578C195.159 6.754 195.225 6.842 195.291 6.842C195.357 6.842 195.423 6.754 195.489 6.578L197.788 0.88C197.905 0.586666 198.041 0.366666 198.195 0.22C198.349 0.0733333 198.576 0 198.877 0C199.185 0 199.427 0.0769999 199.603 0.231C199.779 0.377666 199.867 0.590333 199.867 0.869V7.788H198.844L198.866 1.265C198.866 1.11833 198.818 1.045 198.723 1.045C198.657 1.045 198.591 1.12567 198.525 1.287Z" fill="#1C1D1F"/>
<path d="M206.092 7.788H203.045C202.231 7.788 201.677 7.54967 201.384 7.073C201.091 6.589 200.944 5.863 200.944 4.895C200.944 3.80967 201.142 3.03967 201.538 2.585C201.934 2.123 202.62 1.892 203.595 1.892C204.438 1.892 205.091 2.06433 205.553 2.409C206.015 2.74633 206.246 3.32933 206.246 4.158C206.246 4.51 206.18 4.77033 206.048 4.939C205.916 5.10033 205.692 5.181 205.377 5.181H201.901C201.901 5.45233 201.916 5.687 201.945 5.885C201.982 6.07567 202.044 6.26633 202.132 6.457C202.22 6.64767 202.356 6.79433 202.539 6.897C202.73 6.99233 202.964 7.04 203.243 7.04H206.092V7.788ZM201.901 4.433H205.014C205.19 4.433 205.278 4.334 205.278 4.136V4.092C205.278 3.124 204.721 2.64 203.606 2.64C202.997 2.64 202.561 2.77567 202.297 3.047C202.033 3.311 201.901 3.773 201.901 4.433Z" fill="#1C1D1F"/>
<path d="M207.642 7.788H206.476L208.885 5.192C209.046 5.03067 209.127 4.895 209.127 4.785C209.127 4.68967 209.046 4.554 208.885 4.378L206.663 1.958H207.795L209.666 4.026C209.951 4.34867 210.094 4.609 210.094 4.807C210.094 5.005 209.974 5.23233 209.732 5.489L207.642 7.788ZM211.282 7.788H210.358V1.958H211.282V7.788ZM215.166 7.788H214L211.91 5.489C211.667 5.21767 211.547 4.99033 211.547 4.807C211.547 4.609 211.69 4.34867 211.976 4.026L213.846 1.958H214.979L212.757 4.378C212.595 4.56133 212.514 4.697 212.514 4.785C212.514 4.895 212.595 5.03067 212.757 5.192L215.166 7.788Z" fill="#1C1D1F"/>
<path d="M216.152 7.04H216.372L218.33 2.431C218.381 2.299 218.476 2.178 218.616 2.068C218.755 1.95067 218.931 1.892 219.144 1.892C219.525 1.892 219.793 2.07167 219.947 2.431L221.905 7.04H222.125C222.462 7.04 222.686 7.13167 222.796 7.315C222.906 7.491 222.961 7.79167 222.961 8.217V9.163H222.037V8.162C222.037 8.02267 222.007 7.92367 221.949 7.865C221.897 7.81367 221.813 7.788 221.696 7.788H216.526C216.335 7.788 216.24 7.91267 216.24 8.162V9.163H215.316V7.986C215.316 7.67067 215.378 7.436 215.503 7.282C215.627 7.12067 215.844 7.04 216.152 7.04ZM218.99 2.915L217.307 7.04H220.981L219.287 2.915C219.243 2.805 219.195 2.75 219.144 2.75C219.085 2.75 219.034 2.805 218.99 2.915Z" fill="#1C1D1F"/>
<path d="M228.339 1.958L224.863 9.669H223.895L224.786 7.766L222.256 1.958H223.224L225.259 6.754L227.371 1.958H228.339Z" fill="#1C1D1F"/>
<path d="M233.776 7.788H232.852V5.159H229.706V7.788H228.782V1.958H229.706V4.411H232.852V1.958H233.776V7.788Z" fill="#1C1D1F"/>
<path d="M235.125 1.958H238.194C238.693 1.958 239.071 2.101 239.327 2.387C239.584 2.673 239.712 3.06167 239.712 3.553V6.908C239.712 7.216 239.643 7.43967 239.503 7.579C239.364 7.71833 239.129 7.788 238.799 7.788H236.203C235.675 7.788 235.29 7.645 235.048 7.359C234.806 7.06567 234.685 6.61467 234.685 6.006C234.685 4.82533 235.191 4.235 236.203 4.235H238.788V3.542C238.788 2.98467 238.513 2.706 237.963 2.706H235.125V1.958ZM238.788 4.983H236.379C236.108 4.983 235.917 5.071 235.807 5.247C235.705 5.41567 235.653 5.66867 235.653 6.006C235.653 6.34333 235.705 6.6 235.807 6.776C235.917 6.952 236.108 7.04 236.379 7.04H238.48C238.686 7.04 238.788 6.941 238.788 6.743V4.983Z" fill="#1C1D1F"/>
<path d="M241.737 7.788V9.658H240.813V2.871C240.813 2.26233 241.132 1.958 241.77 1.958H243.519C244.406 1.958 245.026 2.2 245.378 2.684C245.73 3.16067 245.906 3.883 245.906 4.851C245.906 5.82633 245.73 6.55967 245.378 7.051C245.026 7.54233 244.406 7.788 243.519 7.788H241.737ZM241.737 3.047V7.04H243.354C243.625 7.04 243.856 7.00333 244.047 6.93C244.245 6.85667 244.399 6.76133 244.509 6.644C244.626 6.51933 244.718 6.358 244.784 6.16C244.85 5.962 244.89 5.764 244.905 5.566C244.927 5.368 244.938 5.12967 244.938 4.851C244.938 4.499 244.919 4.20933 244.883 3.982C244.846 3.74733 244.776 3.52733 244.674 3.322C244.571 3.10933 244.41 2.95533 244.19 2.86C243.97 2.75733 243.691 2.706 243.354 2.706H242.078C241.85 2.706 241.737 2.81967 241.737 3.047Z" fill="#1C1D1F"/>
<path d="M247.324 2.563C247.793 2.11567 248.559 1.892 249.623 1.892C250.686 1.892 251.449 2.11567 251.911 2.563C252.38 3.003 252.615 3.76567 252.615 4.851C252.615 5.94367 252.38 6.71733 251.911 7.172C251.449 7.62667 250.686 7.854 249.623 7.854C248.559 7.854 247.793 7.62667 247.324 7.172C246.862 6.71733 246.631 5.94367 246.631 4.851C246.631 3.76567 246.862 3.003 247.324 2.563ZM247.599 4.851C247.599 5.67967 247.749 6.26267 248.05 6.6C248.358 6.93733 248.882 7.106 249.623 7.106C250.363 7.106 250.884 6.93733 251.185 6.6C251.493 6.26267 251.647 5.67967 251.647 4.851C251.647 4.02967 251.496 3.45767 251.196 3.135C250.895 2.805 250.371 2.64 249.623 2.64C248.875 2.64 248.35 2.805 248.05 3.135C247.749 3.45767 247.599 4.02967 247.599 4.851Z" fill="#1C1D1F"/>
<path d="M253.331 7.04H253.551L255.509 2.431C255.56 2.299 255.655 2.178 255.795 2.068C255.934 1.95067 256.11 1.892 256.323 1.892C256.704 1.892 256.972 2.07167 257.126 2.431L259.084 7.04H259.304C259.641 7.04 259.865 7.13167 259.975 7.315C260.085 7.491 260.14 7.79167 260.14 8.217V9.163H259.216V8.162C259.216 8.02267 259.186 7.92367 259.128 7.865C259.076 7.81367 258.992 7.788 258.875 7.788H253.705C253.514 7.788 253.419 7.91267 253.419 8.162V9.163H252.495V7.986C252.495 7.67067 252.557 7.436 252.682 7.282C252.806 7.12067 253.023 7.04 253.331 7.04ZM256.169 2.915L254.486 7.04H258.16L256.466 2.915C256.422 2.805 256.374 2.75 256.323 2.75C256.264 2.75 256.213 2.805 256.169 2.915Z" fill="#1C1D1F"/>
<path d="M265.529 7.788H264.605V5.159H261.459V7.788H260.535V1.958H261.459V4.411H264.605V1.958H265.529V7.788Z" fill="#1C1D1F"/>
<path d="M266.879 1.958H269.948C270.447 1.958 270.825 2.101 271.081 2.387C271.338 2.673 271.466 3.06167 271.466 3.553V6.908C271.466 7.216 271.397 7.43967 271.257 7.579C271.118 7.71833 270.883 7.788 270.553 7.788H267.957C267.429 7.788 267.044 7.645 266.802 7.359C266.56 7.06567 266.439 6.61467 266.439 6.006C266.439 4.82533 266.945 4.235 267.957 4.235H270.542V3.542C270.542 2.98467 270.267 2.706 269.717 2.706H266.879V1.958ZM270.542 4.983H268.133C267.862 4.983 267.671 5.071 267.561 5.247C267.459 5.41567 267.407 5.66867 267.407 6.006C267.407 6.34333 267.459 6.6 267.561 6.776C267.671 6.952 267.862 7.04 268.133 7.04H270.234C270.44 7.04 270.542 6.941 270.542 6.743V4.983Z" fill="#1C1D1F"/>
<path d="M272.303 7.788L274.338 5.753C274.396 5.69433 274.426 5.64667 274.426 5.61C274.426 5.57333 274.393 5.555 274.327 5.555H273.898C272.952 5.555 272.479 4.95 272.479 3.74C272.479 2.552 272.952 1.958 273.898 1.958H276.626C277.22 1.958 277.517 2.27333 277.517 2.904V7.788H276.593V3.08C276.593 2.94067 276.563 2.84533 276.505 2.794C276.453 2.73533 276.369 2.706 276.252 2.706H274.184C273.898 2.706 273.703 2.79767 273.601 2.981C273.498 3.157 273.447 3.40633 273.447 3.729C273.447 4.44767 273.692 4.807 274.184 4.807H275.141C275.471 4.807 275.636 4.95 275.636 5.236C275.636 5.44133 275.566 5.621 275.427 5.775L273.469 7.788H272.303Z" fill="#1C1D1F"/>
<path d="M190.55 20.788V15.915C190.55 15.277 190.847 14.958 191.441 14.958H194.653C195.247 14.958 195.544 15.277 195.544 15.915V20.788H194.62V16.08C194.62 15.9407 194.591 15.8453 194.532 15.794C194.481 15.7353 194.396 15.706 194.279 15.706H191.815C191.698 15.706 191.61 15.7353 191.551 15.794C191.5 15.8453 191.474 15.9407 191.474 16.08V20.788H190.55Z" fill="#1C1D1F"/>
<path d="M197.565 20.788V22.658H196.641V15.871C196.641 15.2623 196.96 14.958 197.598 14.958H199.347C200.234 14.958 200.854 15.2 201.206 15.684C201.558 16.1607 201.734 16.883 201.734 17.851C201.734 18.8263 201.558 19.5597 201.206 20.051C200.854 20.5423 200.234 20.788 199.347 20.788H197.565ZM197.565 16.047V20.04H199.182C199.453 20.04 199.684 20.0033 199.875 19.93C200.073 19.8567 200.227 19.7613 200.337 19.644C200.454 19.5193 200.546 19.358 200.612 19.16C200.678 18.962 200.718 18.764 200.733 18.566C200.755 18.368 200.766 18.1297 200.766 17.851C200.766 17.499 200.748 17.2093 200.711 16.982C200.674 16.7473 200.605 16.5273 200.502 16.322C200.399 16.1093 200.238 15.9553 200.018 15.86C199.798 15.7573 199.519 15.706 199.182 15.706H197.906C197.679 15.706 197.565 15.8197 197.565 16.047Z" fill="#1C1D1F"/>
<path d="M203.152 15.563C203.621 15.1157 204.387 14.892 205.451 14.892C206.514 14.892 207.277 15.1157 207.739 15.563C208.208 16.003 208.443 16.7657 208.443 17.851C208.443 18.9437 208.208 19.7173 207.739 20.172C207.277 20.6267 206.514 20.854 205.451 20.854C204.387 20.854 203.621 20.6267 203.152 20.172C202.69 19.7173 202.459 18.9437 202.459 17.851C202.459 16.7657 202.69 16.003 203.152 15.563ZM203.427 17.851C203.427 18.6797 203.577 19.2627 203.878 19.6C204.186 19.9373 204.71 20.106 205.451 20.106C206.191 20.106 206.712 19.9373 207.013 19.6C207.321 19.2627 207.475 18.6797 207.475 17.851C207.475 17.0297 207.324 16.4577 207.024 16.135C206.723 15.805 206.199 15.64 205.451 15.64C204.703 15.64 204.178 15.805 203.878 16.135C203.577 16.4577 203.427 17.0297 203.427 17.851Z" fill="#1C1D1F"/>
<path d="M212.583 13.088H213.507V14.958H214.596C215.446 14.958 216.044 15.211 216.389 15.717C216.733 16.2157 216.906 16.9307 216.906 17.862C216.906 18.8153 216.733 19.5413 216.389 20.04C216.044 20.5387 215.446 20.788 214.596 20.788H213.507V22.658H212.583V20.788H211.483C210.632 20.788 210.034 20.5387 209.69 20.04C209.345 19.5413 209.173 18.8153 209.173 17.862C209.173 16.9307 209.345 16.2157 209.69 15.717C210.034 15.211 210.632 14.958 211.483 14.958H212.583V13.088ZM212.583 20.04V15.706H211.758C211.127 15.706 210.698 15.893 210.471 16.267C210.251 16.6337 210.141 17.1653 210.141 17.862C210.141 18.2067 210.159 18.5 210.196 18.742C210.24 18.984 210.317 19.2113 210.427 19.424C210.544 19.6293 210.713 19.7833 210.933 19.886C211.153 19.9887 211.428 20.04 211.758 20.04H212.583ZM213.507 20.04H214.321C214.959 20.04 215.388 19.8567 215.608 19.49C215.828 19.1233 215.938 18.5807 215.938 17.862C215.938 17.1653 215.828 16.6337 215.608 16.267C215.388 15.893 214.962 15.706 214.332 15.706H213.507V20.04Z" fill="#1C1D1F"/>
<path d="M222.775 20.788H219.728C218.914 20.788 218.36 20.5497 218.067 20.073C217.773 19.589 217.627 18.863 217.627 17.895C217.627 16.8097 217.825 16.0397 218.221 15.585C218.617 15.123 219.302 14.892 220.278 14.892C221.121 14.892 221.774 15.0643 222.236 15.409C222.698 15.7463 222.929 16.3293 222.929 17.158C222.929 17.51 222.863 17.7703 222.731 17.939C222.599 18.1003 222.375 18.181 222.06 18.181H218.584C218.584 18.4523 218.598 18.687 218.628 18.885C218.664 19.0757 218.727 19.2663 218.815 19.457C218.903 19.6477 219.038 19.7943 219.222 19.897C219.412 19.9923 219.647 20.04 219.926 20.04H222.775V20.788ZM218.584 17.433H221.697C221.873 17.433 221.961 17.334 221.961 17.136V17.092C221.961 16.124 221.403 15.64 220.289 15.64C219.68 15.64 219.244 15.7757 218.98 16.047C218.716 16.311 218.584 16.773 218.584 17.433Z" fill="#1C1D1F"/>
<path d="M228.46 20.788H226.128C225.189 20.788 224.54 20.546 224.181 20.062C223.829 19.578 223.653 18.8447 223.653 17.862C223.653 16.9013 223.833 16.179 224.192 15.695C224.551 15.2037 225.197 14.958 226.128 14.958H228.339V15.706H226.293C225.618 15.706 225.167 15.882 224.94 16.234C224.72 16.5787 224.61 17.1213 224.61 17.862C224.61 18.6247 224.72 19.1783 224.94 19.523C225.16 19.8677 225.611 20.04 226.293 20.04H228.46V20.788Z" fill="#1C1D1F"/>
<path d="M233.681 20.788H231.349C230.41 20.788 229.761 20.546 229.402 20.062C229.05 19.578 228.874 18.8447 228.874 17.862C228.874 16.9013 229.053 16.179 229.413 15.695C229.772 15.2037 230.417 14.958 231.349 14.958H233.56V15.706H231.514C230.839 15.706 230.388 15.882 230.161 16.234C229.941 16.5787 229.831 17.1213 229.831 17.862C229.831 18.6247 229.941 19.1783 230.161 19.523C230.381 19.8677 230.832 20.04 231.514 20.04H233.681V20.788Z" fill="#1C1D1F"/>
<path d="M239.787 20.788H238.863L238.885 16.179C238.885 16.0837 238.867 16.036 238.83 16.036C238.801 16.036 238.753 16.0837 238.687 16.179L235.915 20.414C235.813 20.5753 235.71 20.689 235.607 20.755C235.505 20.821 235.362 20.854 235.178 20.854C234.724 20.854 234.496 20.6157 234.496 20.139V14.958H235.42L235.398 19.567C235.398 19.6697 235.424 19.721 235.475 19.721C235.512 19.721 235.556 19.6697 235.607 19.567L238.412 15.266C238.574 15.0167 238.805 14.892 239.105 14.892C239.289 14.892 239.446 14.9617 239.578 15.101C239.718 15.2403 239.787 15.431 239.787 15.673V20.788Z" fill="#1C1D1F"/>
<path d="M241.394 15.563C241.863 15.1157 242.63 14.892 243.693 14.892C244.756 14.892 245.519 15.1157 245.981 15.563C246.45 16.003 246.685 16.7657 246.685 17.851C246.685 18.9437 246.45 19.7173 245.981 20.172C245.519 20.6267 244.756 20.854 243.693 20.854C242.63 20.854 241.863 20.6267 241.394 20.172C240.932 19.7173 240.701 18.9437 240.701 17.851C240.701 16.7657 240.932 16.003 241.394 15.563ZM241.669 17.851C241.669 18.6797 241.819 19.2627 242.12 19.6C242.428 19.9373 242.952 20.106 243.693 20.106C244.434 20.106 244.954 19.9373 245.255 19.6C245.563 19.2627 245.717 18.6797 245.717 17.851C245.717 17.0297 245.567 16.4577 245.266 16.135C244.965 15.805 244.441 15.64 243.693 15.64C242.945 15.64 242.421 15.805 242.12 16.135C241.819 16.4577 241.669 17.0297 241.669 17.851Z" fill="#1C1D1F"/>
<path d="M252.596 20.788H251.672V18.159H248.526V20.788H247.602V14.958H248.526V17.411H251.672V14.958H252.596V20.788Z" fill="#1C1D1F"/>
<path d="M253.946 14.958H257.015C257.513 14.958 257.891 15.101 258.148 15.387C258.404 15.673 258.533 16.0617 258.533 16.553V19.908C258.533 20.216 258.463 20.4397 258.324 20.579C258.184 20.7183 257.95 20.788 257.62 20.788H255.024C254.496 20.788 254.111 20.645 253.869 20.359C253.627 20.0657 253.506 19.6147 253.506 19.006C253.506 17.8253 254.012 17.235 255.024 17.235H257.609V16.542C257.609 15.9847 257.334 15.706 256.784 15.706H253.946V14.958ZM257.609 17.983H255.2C254.928 17.983 254.738 18.071 254.628 18.247C254.525 18.4157 254.474 18.6687 254.474 19.006C254.474 19.3433 254.525 19.6 254.628 19.776C254.738 19.952 254.928 20.04 255.2 20.04H257.301C257.506 20.04 257.609 19.941 257.609 19.743V17.983Z" fill="#1C1D1F"/>
<path d="M258.91 20.788L261.198 15.365C261.33 15.0497 261.568 14.892 261.913 14.892C262.257 14.892 262.496 15.0497 262.628 15.365L264.894 20.788H263.904L262.023 15.992C261.971 15.8747 261.935 15.816 261.913 15.816C261.891 15.816 261.854 15.8747 261.803 15.992L259.9 20.788H258.91Z" fill="#1C1D1F"/>
<path d="M268.966 20.788H266.271C265.677 20.788 265.38 20.469 265.38 19.831V14.958H266.304V17.312H268.966C269.479 17.312 269.846 17.455 270.066 17.741C270.286 18.027 270.396 18.456 270.396 19.028C270.396 19.6073 270.286 20.0473 270.066 20.348C269.846 20.6413 269.479 20.788 268.966 20.788ZM266.304 18.06V19.666C266.304 19.8053 266.33 19.9043 266.381 19.963C266.44 20.0143 266.528 20.04 266.645 20.04H268.702C268.981 20.04 269.171 19.9557 269.274 19.787C269.377 19.6183 269.428 19.3653 269.428 19.028C269.428 18.698 269.377 18.456 269.274 18.302C269.179 18.1407 268.988 18.06 268.702 18.06H266.304Z" fill="#1C1D1F"/>
<path d="M276.25 20.788H275.326V18.159H272.18V20.788H271.256V14.958H272.18V17.411H275.326V14.958H276.25V20.788Z" fill="#1C1D1F"/>
<path d="M277.6 14.958H280.669C281.168 14.958 281.545 15.101 281.802 15.387C282.059 15.673 282.187 16.0617 282.187 16.553V19.908C282.187 20.216 282.117 20.4397 281.978 20.579C281.839 20.7183 281.604 20.788 281.274 20.788H278.678C278.15 20.788 277.765 20.645 277.523 20.359C277.281 20.0657 277.16 19.6147 277.16 19.006C277.16 17.8253 277.666 17.235 278.678 17.235H281.263V16.542C281.263 15.9847 280.988 15.706 280.438 15.706H277.6V14.958ZM281.263 17.983H278.854C278.583 17.983 278.392 18.071 278.282 18.247C278.179 18.4157 278.128 18.6687 278.128 19.006C278.128 19.3433 278.179 19.6 278.282 19.776C278.392 19.952 278.583 20.04 278.854 20.04H280.955C281.16 20.04 281.263 19.941 281.263 19.743V17.983Z" fill="#1C1D1F"/>
<path d="M283.023 20.788L285.058 18.753C285.117 18.6943 285.146 18.6467 285.146 18.61C285.146 18.5733 285.113 18.555 285.047 18.555H284.618C283.672 18.555 283.199 17.95 283.199 16.74C283.199 15.552 283.672 14.958 284.618 14.958H287.346C287.94 14.958 288.237 15.2733 288.237 15.904V20.788H287.313V16.08C287.313 15.9407 287.284 15.8453 287.225 15.794C287.174 15.7353 287.09 15.706 286.972 15.706H284.904C284.618 15.706 284.424 15.7977 284.321 15.981C284.219 16.157 284.167 16.4063 284.167 16.729C284.167 17.4477 284.413 17.807 284.904 17.807H285.861C286.191 17.807 286.356 17.95 286.356 18.236C286.356 18.4413 286.287 18.621 286.147 18.775L284.189 20.788H283.023Z" fill="#1C1D1F"/>
<path d="M296.523 20.788H294.191C293.252 20.788 292.603 20.546 292.244 20.062C291.892 19.578 291.716 18.8447 291.716 17.862C291.716 16.9013 291.895 16.179 292.255 15.695C292.614 15.2037 293.259 14.958 294.191 14.958H296.402V15.706H294.356C293.681 15.706 293.23 15.882 293.003 16.234C292.783 16.5787 292.673 17.1213 292.673 17.862C292.673 18.6247 292.783 19.1783 293.003 19.523C293.223 19.8677 293.674 20.04 294.356 20.04H296.523V20.788Z" fill="#1C1D1F"/>
<path d="M302.084 20.788H299.037C298.223 20.788 297.67 20.5497 297.376 20.073C297.083 19.589 296.936 18.863 296.936 17.895C296.936 16.8097 297.134 16.0397 297.53 15.585C297.926 15.123 298.612 14.892 299.587 14.892C300.431 14.892 301.083 15.0643 301.545 15.409C302.007 15.7463 302.238 16.3293 302.238 17.158C302.238 17.51 302.172 17.7703 302.04 17.939C301.908 18.1003 301.685 18.181 301.369 18.181H297.893C297.893 18.4523 297.908 18.687 297.937 18.885C297.974 19.0757 298.036 19.2663 298.124 19.457C298.212 19.6477 298.348 19.7943 298.531 19.897C298.722 19.9923 298.957 20.04 299.235 20.04H302.084V20.788ZM297.893 17.433H301.006C301.182 17.433 301.27 17.334 301.27 17.136V17.092C301.27 16.124 300.713 15.64 299.598 15.64C298.99 15.64 298.553 15.7757 298.289 16.047C298.025 16.311 297.893 16.773 297.893 17.433Z" fill="#1C1D1F"/>
<path d="M305.713 20.788H304.789V15.706H302.6V14.958H307.902V15.706H305.713V20.788Z" fill="#1C1D1F"/>
<path d="M312.042 20.788H309.347C308.753 20.788 308.456 20.469 308.456 19.831V14.958H309.38V17.312H312.042C312.556 17.312 312.922 17.455 313.142 17.741C313.362 18.027 313.472 18.456 313.472 19.028C313.472 19.6073 313.362 20.0473 313.142 20.348C312.922 20.6413 312.556 20.788 312.042 20.788ZM309.38 18.06V19.666C309.38 19.8053 309.406 19.9043 309.457 19.963C309.516 20.0143 309.604 20.04 309.721 20.04H311.778C312.057 20.04 312.248 19.9557 312.35 19.787C312.453 19.6183 312.504 19.3653 312.504 19.028C312.504 18.698 312.453 18.456 312.35 18.302C312.255 18.1407 312.064 18.06 311.778 18.06H309.38Z" fill="#1C1D1F"/>
<path d="M190.627 31.104V30.356H194.224C194.187 29.806 194.048 29.3953 193.806 29.124C193.564 28.8453 193.15 28.706 192.563 28.706H190.462V27.958H192.717C193.648 27.958 194.294 28.2037 194.653 28.695C195.02 29.1863 195.203 29.9123 195.203 30.873C195.203 31.8483 195.023 32.578 194.664 33.062C194.305 33.546 193.656 33.788 192.717 33.788H190.33V33.04H192.563C193.201 33.04 193.634 32.886 193.861 32.578C194.096 32.27 194.22 31.7787 194.235 31.104H190.627Z" fill="#1C1D1F"/>
<path d="M201.131 33.788H199.943L197.655 31.489C197.42 31.2543 197.303 31.0197 197.303 30.785C197.303 30.5797 197.446 30.3267 197.732 30.026L199.778 27.958H200.922L198.524 30.367C198.355 30.5577 198.271 30.697 198.271 30.785C198.271 30.9023 198.344 31.0343 198.491 31.181L201.131 33.788ZM197.039 33.788H196.115V27.958H197.039V33.788Z" fill="#1C1D1F"/>
<path d="M205.955 33.788H203.623C202.685 33.788 202.036 33.546 201.676 33.062C201.324 32.578 201.148 31.8447 201.148 30.862C201.148 29.9013 201.328 29.179 201.687 28.695C202.047 28.2037 202.692 27.958 203.623 27.958H205.834V28.706H203.788C203.114 28.706 202.663 28.882 202.435 29.234C202.215 29.5787 202.105 30.1213 202.105 30.862C202.105 31.6247 202.215 32.1783 202.435 32.523C202.655 32.8677 203.106 33.04 203.788 33.04H205.955V33.788Z" fill="#1C1D1F"/>
<path d="M206.771 33.788V28.915C206.771 28.277 207.068 27.958 207.662 27.958H210.874C211.468 27.958 211.765 28.277 211.765 28.915V33.788H210.841V29.08C210.841 28.9407 210.811 28.8453 210.753 28.794C210.701 28.7353 210.617 28.706 210.5 28.706H208.036C207.918 28.706 207.83 28.7353 207.772 28.794C207.72 28.8453 207.695 28.9407 207.695 29.08V33.788H206.771Z" fill="#1C1D1F"/>
<path d="M217.823 33.788H214.776C213.962 33.788 213.408 33.5497 213.115 33.073C212.821 32.589 212.675 31.863 212.675 30.895C212.675 29.8097 212.873 29.0397 213.269 28.585C213.665 28.123 214.35 27.892 215.326 27.892C216.169 27.892 216.822 28.0643 217.284 28.409C217.746 28.7463 217.977 29.3293 217.977 30.158C217.977 30.51 217.911 30.7703 217.779 30.939C217.647 31.1003 217.423 31.181 217.108 31.181H213.632C213.632 31.4523 213.646 31.687 213.676 31.885C213.712 32.0757 213.775 32.2663 213.863 32.457C213.951 32.6477 214.086 32.7943 214.27 32.897C214.46 32.9923 214.695 33.04 214.974 33.04H217.823V33.788ZM213.632 30.433H216.745C216.921 30.433 217.009 30.334 217.009 30.136V30.092C217.009 29.124 216.451 28.64 215.337 28.64C214.728 28.64 214.292 28.7757 214.028 29.047C213.764 29.311 213.632 29.773 213.632 30.433Z" fill="#1C1D1F"/>
<path d="M219.812 33.788V35.658H218.888V28.871C218.888 28.2623 219.207 27.958 219.845 27.958H221.594C222.481 27.958 223.101 28.2 223.453 28.684C223.805 29.1607 223.981 29.883 223.981 30.851C223.981 31.8263 223.805 32.5597 223.453 33.051C223.101 33.5423 222.481 33.788 221.594 33.788H219.812ZM219.812 29.047V33.04H221.429C221.7 33.04 221.931 33.0033 222.122 32.93C222.32 32.8567 222.474 32.7613 222.584 32.644C222.701 32.5193 222.793 32.358 222.859 32.16C222.925 31.962 222.965 31.764 222.98 31.566C223.002 31.368 223.013 31.1297 223.013 30.851C223.013 30.499 222.995 30.2093 222.958 29.982C222.921 29.7473 222.852 29.5273 222.749 29.322C222.646 29.1093 222.485 28.9553 222.265 28.86C222.045 28.7573 221.766 28.706 221.429 28.706H220.153C219.926 28.706 219.812 28.8197 219.812 29.047Z" fill="#1C1D1F"/>
<path d="M227.241 33.788H226.317V28.706H224.128V27.958H229.43V28.706H227.241V33.788Z" fill="#1C1D1F"/>
<path d="M230.383 28.563C230.853 28.1157 231.619 27.892 232.682 27.892C233.746 27.892 234.508 28.1157 234.97 28.563C235.44 29.003 235.674 29.7657 235.674 30.851C235.674 31.9437 235.44 32.7173 234.97 33.172C234.508 33.6267 233.746 33.854 232.682 33.854C231.619 33.854 230.853 33.6267 230.383 33.172C229.921 32.7173 229.69 31.9437 229.69 30.851C229.69 29.7657 229.921 29.003 230.383 28.563ZM230.658 30.851C230.658 31.6797 230.809 32.2627 231.109 32.6C231.417 32.9373 231.942 33.106 232.682 33.106C233.423 33.106 233.944 32.9373 234.244 32.6C234.552 32.2627 234.706 31.6797 234.706 30.851C234.706 30.0297 234.556 29.4577 234.255 29.135C233.955 28.805 233.43 28.64 232.682 28.64C231.934 28.64 231.41 28.805 231.109 29.135C230.809 29.4577 230.658 30.0297 230.658 30.851Z" fill="#1C1D1F"/>
<path d="M240.661 30.741V30.785C240.991 30.8437 241.226 30.9757 241.365 31.181C241.504 31.3863 241.574 31.7017 241.574 32.127C241.574 33.2343 241.097 33.788 240.144 33.788H237.669C237.28 33.788 237.002 33.7293 236.833 33.612C236.672 33.4947 236.591 33.2747 236.591 32.952V29.124C236.591 28.7427 236.65 28.453 236.767 28.255C236.884 28.057 237.104 27.958 237.427 27.958H240.045C240.544 27.958 240.914 28.0717 241.156 28.299C241.405 28.519 241.53 28.882 241.53 29.388C241.53 29.8133 241.468 30.1323 241.343 30.345C241.226 30.5577 240.998 30.6897 240.661 30.741ZM237.515 30.389H239.792C240.305 30.389 240.562 30.0993 240.562 29.52C240.562 29.2413 240.5 29.036 240.375 28.904C240.258 28.772 240.063 28.706 239.792 28.706H237.801C237.61 28.706 237.515 28.794 237.515 28.97V30.389ZM237.515 31.137V32.688C237.515 32.9227 237.629 33.04 237.856 33.04H239.737C240.06 33.04 240.283 32.9703 240.408 32.831C240.54 32.6917 240.606 32.4387 240.606 32.072C240.606 31.4487 240.335 31.137 239.792 31.137H237.515Z" fill="#1C1D1F"/>
<path d="M245.341 27.958H248.41C248.909 27.958 249.286 28.101 249.543 28.387C249.8 28.673 249.928 29.0617 249.928 29.553V32.908C249.928 33.216 249.858 33.4397 249.719 33.579C249.58 33.7183 249.345 33.788 249.015 33.788H246.419C245.891 33.788 245.506 33.645 245.264 33.359C245.022 33.0657 244.901 32.6147 244.901 32.006C244.901 30.8253 245.407 30.235 246.419 30.235H249.004V29.542C249.004 28.9847 248.729 28.706 248.179 28.706H245.341V27.958ZM249.004 30.983H246.595C246.324 30.983 246.133 31.071 246.023 31.247C245.92 31.4157 245.869 31.6687 245.869 32.006C245.869 32.3433 245.92 32.6 246.023 32.776C246.133 32.952 246.324 33.04 246.595 33.04H248.696C248.901 33.04 249.004 32.941 249.004 32.743V30.983Z" fill="#1C1D1F"/>
<path d="M255.099 30.741V30.785C255.429 30.8437 255.663 30.9757 255.803 31.181C255.942 31.3863 256.012 31.7017 256.012 32.127C256.012 33.2343 255.535 33.788 254.582 33.788H252.107C251.718 33.788 251.439 33.7293 251.271 33.612C251.109 33.4947 251.029 33.2747 251.029 32.952V29.124C251.029 28.7427 251.087 28.453 251.205 28.255C251.322 28.057 251.542 27.958 251.865 27.958H254.483C254.981 27.958 255.352 28.0717 255.594 28.299C255.843 28.519 255.968 28.882 255.968 29.388C255.968 29.8133 255.905 30.1323 255.781 30.345C255.663 30.5577 255.436 30.6897 255.099 30.741ZM251.953 30.389H254.23C254.743 30.389 255 30.0993 255 29.52C255 29.2413 254.937 29.036 254.813 28.904C254.695 28.772 254.501 28.706 254.23 28.706H252.239C252.048 28.706 251.953 28.794 251.953 28.97V30.389ZM251.953 31.137V32.688C251.953 32.9227 252.066 33.04 252.294 33.04H254.175C254.497 33.04 254.721 32.9703 254.846 32.831C254.978 32.6917 255.044 32.4387 255.044 32.072C255.044 31.4487 254.772 31.137 254.23 31.137H251.953Z" fill="#1C1D1F"/>
<path d="M259.521 33.788H258.597V28.706H256.408V27.958H261.71V28.706H259.521V33.788Z" fill="#1C1D1F"/>
<path d="M262.663 28.563C263.133 28.1157 263.899 27.892 264.963 27.892C266.026 27.892 266.788 28.1157 267.25 28.563C267.72 29.003 267.954 29.7657 267.954 30.851C267.954 31.9437 267.72 32.7173 267.25 33.172C266.788 33.6267 266.026 33.854 264.963 33.854C263.899 33.854 263.133 33.6267 262.663 33.172C262.201 32.7173 261.97 31.9437 261.97 30.851C261.97 29.7657 262.201 29.003 262.663 28.563ZM262.938 30.851C262.938 31.6797 263.089 32.2627 263.389 32.6C263.697 32.9373 264.222 33.106 264.963 33.106C265.703 33.106 266.224 32.9373 266.524 32.6C266.832 32.2627 266.986 31.6797 266.986 30.851C266.986 30.0297 266.836 29.4577 266.535 29.135C266.235 28.805 265.711 28.64 264.963 28.64C264.215 28.64 263.69 28.805 263.389 29.135C263.089 29.4577 262.938 30.0297 262.938 30.851Z" fill="#1C1D1F"/>
<path d="M273.788 26.836H271.247C270.8 26.836 270.444 26.9423 270.18 27.155C269.924 27.3677 269.795 27.6757 269.795 28.079H271.797C272.67 28.079 273.279 28.31 273.623 28.772C273.968 29.2267 274.14 29.9343 274.14 30.895C274.14 31.4083 274.104 31.8373 274.03 32.182C273.957 32.5193 273.825 32.8237 273.634 33.095C273.444 33.359 273.172 33.5533 272.82 33.678C272.468 33.7953 272.021 33.854 271.478 33.854C270.576 33.854 269.916 33.6743 269.498 33.315C269.08 32.9557 268.871 32.3397 268.871 31.467V28.31C268.871 27.6353 269.04 27.0963 269.377 26.693C269.722 26.2897 270.246 26.088 270.95 26.088H273.788V26.836ZM269.795 28.827V31.533C269.795 32.5817 270.353 33.106 271.467 33.106C272.157 33.106 272.611 32.93 272.831 32.578C273.059 32.226 273.172 31.665 273.172 30.895C273.172 30.213 273.07 29.6997 272.864 29.355C272.659 29.003 272.263 28.827 271.676 28.827H269.795Z" fill="#1C1D1F"/>
<path d="M280.339 33.788H279.415L279.437 29.179C279.437 29.0837 279.419 29.036 279.382 29.036C279.353 29.036 279.305 29.0837 279.239 29.179L276.467 33.414C276.364 33.5753 276.262 33.689 276.159 33.755C276.056 33.821 275.913 33.854 275.73 33.854C275.275 33.854 275.048 33.6157 275.048 33.139V27.958H275.972L275.95 32.567C275.95 32.6697 275.976 32.721 276.027 32.721C276.064 32.721 276.108 32.6697 276.159 32.567L278.964 28.266C279.125 28.0167 279.356 27.892 279.657 27.892C279.84 27.892 279.998 27.9617 280.13 28.101C280.269 28.2403 280.339 28.431 280.339 28.673V33.788Z" fill="#1C1D1F"/>
<path d="M285.18 30.741V30.785C285.51 30.8437 285.741 30.9757 285.873 31.181C286.012 31.3863 286.082 31.7017 286.082 32.127C286.082 33.2343 285.609 33.788 284.663 33.788H281.33V33.04H284.256C284.571 33.04 284.791 32.9703 284.916 32.831C285.048 32.6917 285.114 32.4387 285.114 32.072C285.114 31.4487 284.842 31.137 284.3 31.137H281.495V30.389H284.3C284.813 30.389 285.07 30.0993 285.07 29.52C285.07 28.9773 284.809 28.706 284.289 28.706H281.429V27.958H284.553C285.059 27.958 285.433 28.0717 285.675 28.299C285.917 28.519 286.038 28.882 286.038 29.388C286.038 29.8133 285.979 30.1323 285.862 30.345C285.744 30.5577 285.517 30.6897 285.18 30.741Z" fill="#1C1D1F"/>
<path d="M292.063 33.788H291.139V31.159H287.993V33.788H287.069V27.958H287.993V30.411H291.139V27.958H292.063V33.788Z" fill="#1C1D1F"/>
<path d="M298.12 33.788H295.073C294.259 33.788 293.706 33.5497 293.412 33.073C293.119 32.589 292.972 31.863 292.972 30.895C292.972 29.8097 293.17 29.0397 293.566 28.585C293.962 28.123 294.648 27.892 295.623 27.892C296.467 27.892 297.119 28.0643 297.581 28.409C298.043 28.7463 298.274 29.3293 298.274 30.158C298.274 30.51 298.208 30.7703 298.076 30.939C297.944 31.1003 297.721 31.181 297.405 31.181H293.929C293.929 31.4523 293.944 31.687 293.973 31.885C294.01 32.0757 294.072 32.2663 294.16 32.457C294.248 32.6477 294.384 32.7943 294.567 32.897C294.758 32.9923 294.993 33.04 295.271 33.04H298.12V33.788ZM293.929 30.433H297.042C297.218 30.433 297.306 30.334 297.306 30.136V30.092C297.306 29.124 296.749 28.64 295.634 28.64C295.026 28.64 294.589 28.7757 294.325 29.047C294.061 29.311 293.929 29.773 293.929 30.433Z" fill="#1C1D1F"/>
<path d="M303.806 33.788H301.474C300.535 33.788 299.886 33.546 299.527 33.062C299.175 32.578 298.999 31.8447 298.999 30.862C298.999 29.9013 299.178 29.179 299.538 28.695C299.897 28.2037 300.542 27.958 301.474 27.958H303.685V28.706H301.639C300.964 28.706 300.513 28.882 300.286 29.234C300.066 29.5787 299.956 30.1213 299.956 30.862C299.956 31.6247 300.066 32.1783 300.286 32.523C300.506 32.8677 300.957 33.04 301.639 33.04H303.806V33.788Z" fill="#1C1D1F"/>
<path d="M304.874 27.958H307.943C308.442 27.958 308.82 28.101 309.076 28.387C309.333 28.673 309.461 29.0617 309.461 29.553V32.908C309.461 33.216 309.392 33.4397 309.252 33.579C309.113 33.7183 308.878 33.788 308.548 33.788H305.952C305.424 33.788 305.039 33.645 304.797 33.359C304.555 33.0657 304.434 32.6147 304.434 32.006C304.434 30.8253 304.94 30.235 305.952 30.235H308.537V29.542C308.537 28.9847 308.262 28.706 307.712 28.706H304.874V27.958ZM308.537 30.983H306.128C305.857 30.983 305.666 31.071 305.556 31.247C305.454 31.4157 305.402 31.6687 305.402 32.006C305.402 32.3433 305.454 32.6 305.556 32.776C305.666 32.952 305.857 33.04 306.128 33.04H308.229C308.435 33.04 308.537 32.941 308.537 32.743V30.983Z" fill="#1C1D1F"/>
<line x1="173.5" x2="173.5" y2="35" stroke="black" stroke-opacity="0.2"/>
</svg>
