<svg width="158" height="33" viewBox="0 0 158 33" fill="none" xmlns="http://www.w3.org/2000/svg">
<path d="M38.6905 32.7169H28.2711C26.7429 32.7169 25.2147 31.9528 24.3812 30.4941L6.80713 0H17.2265C18.7547 0 20.2829 0.764089 21.1164 2.22281L38.6905 32.7169Z" fill="#1C1D1F"/>
<path d="M7.91874 32.7169C12.2949 32.7169 15.8375 29.1743 15.8375 24.7981C15.8375 20.422 12.2949 16.8794 7.91874 16.8794C3.54259 16.8794 0 20.422 0 24.7981C0 29.1743 3.54259 32.7169 7.91874 32.7169Z" fill="#FF5722"/>
<path fill-rule="evenodd" clip-rule="evenodd" d="M155.417 12.114C156.806 12.114 157.917 11.0026 157.917 9.61337V8.15465H155.625V9.61337C155.625 9.68283 155.556 9.82176 155.417 9.82176H149.999C149.929 9.82176 149.79 9.7523 149.79 9.61337V3.50066C149.79 3.43119 149.86 3.29227 149.999 3.29227H155.417C155.486 3.29227 155.625 3.36173 155.625 3.50066V4.95937H157.917V3.50066C157.917 2.1114 156.806 1 155.417 1H149.999C148.609 1 147.498 2.1114 147.498 3.50066V9.61337C147.498 11.0026 148.609 12.114 149.999 12.114H155.417ZM141.177 12.114C142.566 12.114 143.678 11.0026 143.678 9.61337V8.15465H141.316V9.61337C141.316 9.68283 141.246 9.82176 141.107 9.82176H135.759C135.689 9.82176 135.55 9.7523 135.55 9.61337V3.50066C135.55 3.43119 135.62 3.29227 135.759 3.29227H141.177C141.246 3.29227 141.385 3.36173 141.385 3.50066V4.95937H143.678V3.50066C143.678 2.1114 142.566 1 141.177 1H135.759C134.37 1 133.258 2.1114 133.258 3.50066V9.61337C133.258 11.0026 134.37 12.114 135.759 12.114H141.177ZM107.071 3.36173H114.017V1.06946C110.961 1.06946 107.835 1.06946 104.779 1.06946V12.114H111.864C113.739 12.114 115.198 10.6553 115.198 8.77982C115.198 6.90433 113.739 5.44561 111.864 5.44561H107.071V3.36173ZM107.071 9.82176H111.864C112.419 9.82176 112.906 9.33552 112.906 8.77982C112.906 8.22412 112.419 7.73788 111.864 7.73788H107.071V9.82176ZM66.2267 3.36173V5.44561H71.0197C71.5754 5.44561 72.0616 4.95937 72.0616 4.40367C72.0616 3.84797 71.5754 3.36173 71.0197 3.36173H66.2267ZM63.9345 1.06946H71.0197C72.8952 1.06946 74.3539 2.52818 74.3539 4.40367C74.3539 5.23722 74.076 6.00131 73.5203 6.55701C74.0066 7.11271 74.3539 7.8768 74.3539 8.71036C74.3539 10.5858 72.8952 12.0446 71.0197 12.0446H63.9345C63.9345 8.43251 63.9345 4.75098 63.9345 1.06946ZM66.2267 9.82176H71.0197C71.5754 9.82176 72.0616 9.33552 72.0616 8.77982C72.0616 8.22412 71.5754 7.73788 71.0197 7.73788H66.2267V9.82176ZM52.8899 7.80734H57.0577L55.5295 3.36173H54.4876L52.8899 7.80734ZM57.1966 1.06946L61.017 12.114H58.5858L57.8912 10.0996H52.1258L51.4312 12.114H49C50.2503 8.4325 51.5007 4.75098 52.8204 1.06946C54.2792 1.06946 55.7379 1.06946 57.1966 1.06946ZM98.3879 3.36173C98.4574 3.36173 98.5963 3.43119 98.5963 3.57012V9.68283C98.5963 9.75229 98.5269 9.89122 98.3879 9.89122H92.9699C92.9004 9.89122 92.7615 9.82176 92.7615 9.68283V3.57012C92.7615 3.50066 92.8309 3.36173 92.9699 3.36173H98.3879ZM98.3879 12.114C99.7772 12.114 100.889 11.0026 100.889 9.61337V3.50066C100.889 2.1114 99.7772 1 98.3879 1H92.9699C91.5806 1 90.4692 2.1114 90.4692 3.50066V9.61337C90.4692 11.0026 91.5806 12.114 92.9699 12.114H98.3879ZM87.6212 1.06946H77.2713V3.36173H81.3001V12.114H83.5924V3.36173H87.6212V1.06946ZM126.937 3.36173C127.007 3.36173 127.145 3.43119 127.145 3.57012V9.68283C127.145 9.75229 127.076 9.89122 126.937 9.89122H121.519C121.45 9.89122 121.311 9.82176 121.311 9.68283V3.57012C121.311 3.50066 121.38 3.36173 121.519 3.36173H126.937ZM126.937 12.114C128.326 12.114 129.438 11.0026 129.438 9.61337V3.50066C129.438 2.1114 128.326 1 126.937 1H121.519C120.13 1 119.018 2.1114 119.018 3.50066V9.61337C119.018 11.0026 120.13 12.114 121.519 12.114H126.937Z" fill="#1C1D1F"/>
<path d="M81.9951 31.7197H77.6001V30.1447H81.0651C82.2351 30.1447 83.0601 29.9347 83.5401 29.5147C84.0301 29.0847 84.3101 28.3047 84.3801 27.1747H77.9601V25.5997H84.3801C84.3001 24.5397 84.0151 23.8097 83.5251 23.4097C83.0351 22.9997 82.2151 22.7947 81.0651 22.7947H77.7651V21.2197H81.9951C82.8651 21.2197 83.6001 21.3497 84.2001 21.6097C84.8001 21.8597 85.2601 22.2347 85.5801 22.7347C85.9001 23.2247 86.1251 23.7697 86.2551 24.3697C86.3851 24.9697 86.4501 25.6697 86.4501 26.4697C86.4501 27.2697 86.3851 27.9697 86.2551 28.5697C86.1251 29.1697 85.9001 29.7197 85.5801 30.2197C85.2601 30.7097 84.8001 31.0847 84.2001 31.3447C83.6001 31.5947 82.8651 31.7197 81.9951 31.7197Z" fill="#FF5722"/>
<path d="M99.4989 31.7197H96.9489L92.5539 27.7147C92.1939 27.3947 92.0139 26.9297 92.0139 26.3197C92.0139 25.8797 92.1839 25.4897 92.5239 25.1497L96.4989 21.2197H98.9589L94.4139 25.5247C94.3939 25.5447 94.3439 25.5897 94.2639 25.6597C94.1939 25.7297 94.1489 25.7797 94.1289 25.8097C94.1089 25.8297 94.0739 25.8747 94.0239 25.9447C93.9839 26.0047 93.9539 26.0647 93.9339 26.1247C93.9239 26.1747 93.9189 26.2347 93.9189 26.3047C93.9189 26.5947 94.1239 26.9147 94.5339 27.2647L99.4989 31.7197ZM89.4489 31.7197V21.2197H91.4289V31.7197H89.4489Z" fill="#FF5722"/>
<path d="M109.386 31.7197H105.006C104.136 31.7197 103.401 31.5947 102.801 31.3447C102.201 31.0847 101.741 30.7097 101.421 30.2197C101.101 29.7197 100.876 29.1697 100.746 28.5697C100.616 27.9697 100.551 27.2697 100.551 26.4697C100.551 25.6697 100.616 24.9697 100.746 24.3697C100.876 23.7697 101.101 23.2247 101.421 22.7347C101.741 22.2347 102.201 21.8597 102.801 21.6097C103.401 21.3497 104.136 21.2197 105.006 21.2197H109.221V22.7947H105.936C104.656 22.7947 103.776 23.0547 103.296 23.5747C102.826 24.0847 102.591 25.0497 102.591 26.4697C102.591 27.8897 102.826 28.8597 103.296 29.3797C103.776 29.8897 104.656 30.1447 105.936 30.1447H109.386V31.7197Z" fill="#FF5722"/>
<path d="M114.219 31.7197H112.239V22.7947C112.239 21.7447 112.749 21.2197 113.769 21.2197H120.039C121.059 21.2197 121.569 21.7447 121.569 22.7947V31.7197H119.589V23.5447C119.589 23.2447 119.539 23.0447 119.439 22.9447C119.339 22.8447 119.139 22.7947 118.839 22.7947H114.969C114.669 22.7947 114.469 22.8447 114.369 22.9447C114.269 23.0447 114.219 23.2447 114.219 23.5447V31.7197Z" fill="#FF5722"/>
<path d="M133.287 30.1447V31.7197H126.402C125.382 31.7197 124.872 31.1947 124.872 30.1447V22.7947C124.872 21.7447 125.382 21.2197 126.402 21.2197H133.227V22.7947H127.602C127.302 22.7947 127.102 22.8447 127.002 22.9447C126.902 23.0447 126.852 23.2447 126.852 23.5447V25.5697H133.077V27.1447H126.852V29.3947C126.852 29.6947 126.902 29.8947 127.002 29.9947C127.102 30.0947 127.302 30.1447 127.602 30.1447H133.287Z" fill="#FF5722"/>
<path d="M136.142 31.7197V22.7947C136.142 21.7447 136.652 21.2197 137.672 21.2197H142.892C143.432 21.2197 143.882 21.3097 144.242 21.4897C144.612 21.6597 144.887 21.9147 145.067 22.2547C145.257 22.5847 145.387 22.9347 145.457 23.3047C145.527 23.6647 145.562 24.0947 145.562 24.5947C145.562 25.0947 145.527 25.5297 145.457 25.8997C145.387 26.2697 145.257 26.6247 145.067 26.9647C144.887 27.2947 144.612 27.5497 144.242 27.7297C143.882 27.9097 143.432 27.9997 142.892 27.9997H138.122V31.7197H136.142ZM138.122 26.4247H141.917C142.557 26.4247 142.982 26.2847 143.192 26.0047C143.412 25.7147 143.522 25.2447 143.522 24.5947C143.522 23.9447 143.412 23.4847 143.192 23.2147C142.982 22.9347 142.557 22.7947 141.917 22.7947H138.872C138.572 22.7947 138.372 22.8447 138.272 22.9447C138.172 23.0447 138.122 23.2447 138.122 23.5447V26.4247Z" fill="#FF5722"/>
<path d="M153.73 31.7197H151.75V22.7947H147.655V21.2197H157.84V22.7947H153.73V31.7197Z" fill="#FF5722"/>
</svg>
